{
copyright = "Copyright \U00A9 Pooja Saxena, 2015";
customParameters = (
{
name = glyphOrder;
value = (
    space,
    exclam,
    quotedbl,
    numbersign,
    dollar,
    percent,
    ampersand,
    quotesingle,
    parenleft,
    parenright,
    asterisk,
    plus,
    comma,
    hyphen,
    period,
    slash,
    zero,
    one,
    two,
    three,
    four,
    five,
    six,
    seven,
    eight,
    nine,
    colon,
    semicolon,
    less,
    equal,
    greater,
    question,
    at,
    A,
    B,
    C,
    D,
    E,
    F,
    G,
    H,
    I,
    J,
    K,
    L,
    M,
    N,
    O,
    P,
    Q,
    R,
    S,
    T,
    U,
    V,
    W,
    X,
    Y,
    Z,
    bracketleft,
    backslash,
    bracketright,
    asciicircum,
    underscore,
    grave,
    "grave.cap",
    a,
    b,
    c,
    d,
    e,
    f,
    g,
    h,
    i,
    j,
    k,
    l,
    m,
    n,
    o,
    p,
    q,
    r,
    s,
    t,
    u,
    v,
    w,
    x,
    y,
    z,
    braceleft,
    bar,
    braceright,
    asciitilde,
    nbspace,
    exclamdown,
    cent,
    sterling,
    currency,
    yen,
    brokenbar,
    section,
    dieresis,
    "dieresis.cap",
    copyright,
    ordfeminine,
    guillemetleft,
    logicalnot,
    softhyphen,
    registered,
    macron,
    "macron.cap",
    degree,
    plusminus,
    twosuperior,
    threesuperior,
    acute,
    "acute.cap",
    micro,
    paragraph,
    periodcentered,
    cedilla,
    onesuperior,
    ordmasculine,
    guillemetright,
    onequarter,
    onehalf,
    threequarters,
    questiondown,
    Agrave,
    Aacute,
    Acircumflex,
    Atilde,
    Adieresis,
    Aring,
    AE,
    Ccedilla,
    Egrave,
    Eacute,
    Ecircumflex,
    Edieresis,
    Igrave,
    Iacute,
    Icircumflex,
    Idieresis,
    Eth,
    Ntilde,
    Ograve,
    Oacute,
    Ocircumflex,
    Otilde,
    Odieresis,
    multiply,
    Oslash,
    Ugrave,
    Uacute,
    Ucircumflex,
    Udieresis,
    Yacute,
    Thorn,
    germandbls,

glyphs = (
{
glyphname = exclam;
lastChange = "2015-10-06 11:15:53 +0000";
layers = (
{
background = {
paths = (
{
closed = 1;
nodes = (
"148 700 OFFCURVE",
"154 703 OFFCURVE",
"168 707 CURVE",
"200 715 OFFCURVE",
"208 713 OFFCURVE",
"205 690 CURVE",
"159 360 OFFCURVE",
"149 247 OFFCURVE",
"141 157 CURVE",
"135 89 OFFCURVE",
"133 39 OFFCURVE",
"132 19 CURVE SMOOTH",
"131 -1 OFFCURVE",
"124 -1 OFFCURVE",
"107 -5 CURVE",
"76 -10 OFFCURVE",
"72 -5 OFFCURVE",
"72 21 CURVE",
"72 67 OFFCURVE",
"110 419 OFFCURVE",
"145 673 CURVE"
);
}
);
};
layerId = "70F97C4B-94FA-40A4-8E29-E667CA674F9A";
name = Regular;
paths = (
{
closed = 1;
nodes = (
"124 605 OFFCURVE",
"130 608 OFFCURVE",
"144 612 CURVE",
"148 613 OFFCURVE",
"162 614 OFFCURVE",
"166 615 CURVE SMOOTH",
"188 619 OFFCURVE",
"194 615 OFFCURVE",
"191 595 CURVE",
"173 492 OFFCURVE",
"145 344 OFFCURVE",
"132 194 CURVE SMOOTH",
"130 174 OFFCURVE",
"124 174 OFFCURVE",
"107 170 CURVE",
"86 165 OFFCURVE",
"82 170 OFFCURVE",
"82 196 CURVE",
"82 242 OFFCURVE",
"90 324 OFFCURVE",
"121 578 CURVE"
);
},
{
closed = 1;
nodes = (
"131 104 OFFCURVE",
"145 88 OFFCURVE",
"145 61 CURVE",
"145 25 OFFCURVE",
"126 -7 OFFCURVE",
"95 -7 CURVE",
"74 -7 OFFCURVE",
"60 9 OFFCURVE",
"60 36 CURVE",
"60 72 OFFCURVE",
"79 104 OFFCURVE",
"110 104 CURVE"
);
}
);
width = 217;
}
);
unicode = 0021;
},
{
glyphname = quotedbl;
lastChange = "2015-09-17 13:50:49 +0000";
layers = (
{
layerId = "70F97C4B-94FA-40A4-8E29-E667CA674F9A";
name = Regular;
paths = (
{
closed = 1;
nodes = (
"72 699 OFFCURVE",
"79 701 OFFCURVE",
"91 704 CURVE",
"122 709 LINE",
"136 711 OFFCURVE",
"141 704 OFFCURVE",
"137 689 CURVE",
"109 553 LINE",
"105 538 OFFCURVE",
"105 535 OFFCURVE",
"78 529 CURVE",
"58 526 OFFCURVE",
"51 525 OFFCURVE",
"53 542 CURVE",
"70 686 LINE"
);
},
{
closed = 1;
nodes = (
"182 699 OFFCURVE",
"189 701 OFFCURVE",
"201 704 CURVE",
"232 709 LINE",
"246 711 OFFCURVE",
"251 704 OFFCURVE",
"247 689 CURVE",
"219 553 LINE",
"215 538 OFFCURVE",
"215 535 OFFCURVE",
"188 529 CURVE",
"168 526 OFFCURVE",
"161 525 OFFCURVE",
"163 542 CURVE",
"180 686 LINE"
);
}
);
width = 248;
}
);
unicode = 0022;
},
{
glyphname = quotesingle;
lastChange = "2015-09-17 13:49:52 +0000";
layers = (
{
background = {
paths = (
{
closed = 1;
nodes = (
"148 710 LINE",
"103 529 LINE",
"52 529 LINE",
"73 710 LINE"
);
}
);
};
layerId = "70F97C4B-94FA-40A4-8E29-E667CA674F9A";
name = Regular;
paths = (
{
closed = 1;
nodes = (
"72 699 OFFCURVE",
"79 701 OFFCURVE",
"91 704 CURVE",
"122 709 LINE",
"136 711 OFFCURVE",
"141 704 OFFCURVE",
"137 689 CURVE",
"109 553 LINE",
"105 538 OFFCURVE",
"105 535 OFFCURVE",
"78 529 CURVE",
"58 526 OFFCURVE",
"51 525 OFFCURVE",
"53 542 CURVE",
"70 686 LINE"
);
}
);
width = 138;
}
);
unicode = 0027;
},
{
glyphname = plus;
lastChange = "2015-09-20 12:51:50 +0000";
layers = (
{
background = {
paths = (
{
closed = 1;
nodes = (
"192 30 LINE",
"190 2 OFFCURVE",
"181 0 OFFCURVE",
"166 -4 CURVE",
"134 -12 OFFCURVE",
"127 -10 OFFCURVE",
"130 13 CURVE",
"200 633 LINE",
"203 661 OFFCURVE",
"209 664 OFFCURVE",
"224 668 CURVE",
"258 675 OFFCURVE",
"263 674 OFFCURVE",
"261 651 CURVE"
);
}
);
};
components = (
{
name = minus;
transform = "{1, 0, 0, 1, 0, 0}";
}
);
layerId = "70F97C4B-94FA-40A4-8E29-E667CA674F9A";
name = Regular;
paths = (
{
closed = 1;
nodes = (
"238 485 OFFCURVE",
"237 486 OFFCURVE",
"203 479 CURVE",
"188 475 OFFCURVE",
"182 472 OFFCURVE",
"179 444 CURVE",
"146 147 LINE",
"143 124 OFFCURVE",
"150 122 OFFCURVE",
"178 130 CURVE",
"193 134 OFFCURVE",
"202 136 OFFCURVE",
"204 164 CURVE",
"236 462 LINE"
);
}
);
width = 376;
}
);
unicode = 002B;
},
{
glyphname = comma;
lastChange = "2015-10-06 11:15:53 +0000";
layers = (
{
background = {
paths = (
{
closed = 1;
nodes = (
"6 84 OFFCURVE",
"11 92 OFFCURVE",
"30 98 CURVE",
"64 108 LINE",
"81 113 OFFCURVE",
"87 108 OFFCURVE",
"93 89 CURVE",
"106 47 OFFCURVE",
"91 -42 OFFCURVE",
"28 -113 CURVE SMOOTH",
"19 -123 OFFCURVE",
"14 -124 OFFCURVE",
"-3 -111 CURVE",
"-15 -102 OFFCURVE",
"-19 -99 OFFCURVE",
"-9 -84 CURVE SMOOTH",
"31 -25 OFFCURVE",
"28 22 OFFCURVE",
"11 70 CURVE SMOOTH"
);
}
);
};
layerId = "70F97C4B-94FA-40A4-8E29-E667CA674F9A";
name = Regular;
paths = (
{
closed = 1;
nodes = (
"16 92 OFFCURVE",
"45 102 CURVE",
"72 110 OFFCURVE",
"86 109 OFFCURVE",
"93 89 CURVE",
"106 47 OFFCURVE",
"91 -42 OFFCURVE",
"28 -113 CURVE SMOOTH",
"19 -123 OFFCURVE",
"10 -121 OFFCURVE",
"-3 -111 CURVE",
"-15 -102 OFFCURVE",
"-17 -95 OFFCURVE",
"-9 -84 CURVE SMOOTH",
"31 -29 OFFCURVE",
"28 14 OFFCURVE",
"13 63 CURVE SMOOTH",
"7 83 OFFCURVE"
);
}
);
width = 137;
}
);
unicode = 002C;
},
{
glyphname = hyphen;
lastChange = "2015-09-17 13:30:06 +0000";
layers = (
{
layerId = "70F97C4B-94FA-40A4-8E29-E667CA674F9A";
name = Regular;
paths = (
{
closed = 1;
nodes = (
"176 243 LINE",
"205 245 OFFCURVE",
"212 247 OFFCURVE",
"218 270 CURVE",
"223 296 OFFCURVE",
"221 302 OFFCURVE",
"199 301 CURVE",
"59 293 LINE",
"30 291 OFFCURVE",
"24 289 OFFCURVE",
"17 266 CURVE",
"12 243 OFFCURVE",
"14 234 OFFCURVE",
"36 235 CURVE"
);
}
);
width = 235;
}
);
unicode = 002D;
},
{
glyphname = period;
lastChange = "2015-10-06 11:15:53 +0000";
layers = (
{
background = {
paths = (
{
closed = 1;
nodes = (
"53 103 OFFCURVE",
"30 74 OFFCURVE",
"30 32 CURVE",
"30 7 OFFCURVE",
"42 -8 OFFCURVE",
"63 -8 CURVE",
"94 -8 OFFCURVE",
"117 24 OFFCURVE",
"117 66 CURVE",
"117 88 OFFCURVE",
"105 103 OFFCURVE",
"84 103 CURVE"
);
}
);
};
layerId = "70F97C4B-94FA-40A4-8E29-E667CA674F9A";
name = Regular;
paths = (
{
closed = 1;
nodes = (
"101 104 OFFCURVE",
"115 88 OFFCURVE",
"115 61 CURVE",
"115 25 OFFCURVE",
"96 -7 OFFCURVE",
"65 -7 CURVE",
"44 -7 OFFCURVE",
"30 9 OFFCURVE",
"30 36 CURVE",
"30 72 OFFCURVE",
"49 104 OFFCURVE",
"80 104 CURVE"
);
}
);
width = 167;
}
);
unicode = 002E;
},
{
glyphname = zero;
lastChange = "2015-09-20 12:51:46 +0000";
layers = (
{
background = {
paths = (
{
closed = 1;
nodes = (
"389 605 OFFCURVE",
"426 487 OFFCURVE",
"428 369 CURVE",
"428 190 OFFCURVE",
"368 -10 OFFCURVE",
"192 -10 CURVE",
"74 -9 OFFCURVE",
"37 113 OFFCURVE",
"35 227 CURVE",
"35 410 OFFCURVE",
"94 606 OFFCURVE",
"281 606 CURVE"
);
},
{
closed = 1;
nodes = (
"334 44 OFFCURVE",
"373 232 OFFCURVE",
"373 363 CURVE",
"373 458 OFFCURVE",
"346 552 OFFCURVE",
"273 552 CURVE",
"129 552 OFFCURVE",
"90 365 OFFCURVE",
"90 234 CURVE",
"90 139 OFFCURVE",
"117 44 OFFCURVE",
"200 44 CURVE"
);
}
);
};
layerId = "70F97C4B-94FA-40A4-8E29-E667CA674F9A";
name = Regular;
paths = (
{
closed = 1;
nodes = (
"373 458 OFFCURVE",
"346 553 OFFCURVE",
"263 553 CURVE",
"129 553 OFFCURVE",
"90 365 OFFCURVE",
"90 234 CURVE",
"90 139 OFFCURVE",
"117 44 OFFCURVE",
"200 44 CURVE",
"334 44 OFFCURVE",
"373 232 OFFCURVE",
"373 363 CURVE"
);
},
{
closed = 1;
nodes = (
"35 406 OFFCURVE",
"95 606 OFFCURVE",
"271 606 CURVE",
"389 605 OFFCURVE",
"426 483 OFFCURVE",
"428 369 CURVE",
"428 190 OFFCURVE",
"368 -10 OFFCURVE",
"192 -10 CURVE",
"74 -9 OFFCURVE",
"37 113 OFFCURVE",
"35 227 CURVE"
);
}
);
width = 463;
}
);
unicode = 0030;
},
{
glyphname = one;
lastChange = "2015-09-20 12:51:46 +0000";
layers = (
{
background = {
paths = (
{
closed = 1;
nodes = (
"77 -11 OFFCURVE",
"83 3 OFFCURVE",
"83 29 CURVE",
"89 162 OFFCURVE",
"121 417 OFFCURVE",
"148 572 CURVE",
"153 599 OFFCURVE",
"155 602 OFFCURVE",
"169 606 CURVE",
"201 614 OFFCURVE",
"208 612 OFFCURVE",
"206 589 CURVE",
"189 485 OFFCURVE",
"156 287 OFFCURVE",
"148 157 CURVE SMOOTH",
"144 89 OFFCURVE",
"140 39 OFFCURVE",
"139 13 CURVE SMOOTH",
"138 -1 OFFCURVE",
"122 -4 OFFCURVE",
"114 -5 CURVE"
);
},
{
closed = 1;
nodes = (
"176 552 LINE",
"46 482 LINE",
"19 547 LINE",
"169 606 LINE"
);
},
{
closed = 1;
nodes = (
"78 578 OFFCURVE",
"19 547 CURVE",
"46 482 LINE",
"78 504 OFFCURVE",
"100 516 OFFCURVE",
"141 533 CURVE",
"116 377 OFFCURVE",
"88 151 OFFCURVE",
"83 29 CURVE",
"83 3 OFFCURVE",
"77 -11 OFFCURVE",
"114 -5 CURVE",
"122 -4 OFFCURVE",
"138 -1 OFFCURVE",
"139 13 CURVE SMOOTH",
"140 39 OFFCURVE",
"144 89 OFFCURVE",
"148 157 CURVE SMOOTH",
"156 287 OFFCURVE",
"189 485 OFFCURVE",
"206 589 CURVE",
"207 604 OFFCURVE",
"205 610 OFFCURVE",
"193 610 CURVE SMOOTH",
"169 610 OFFCURVE"
);
}
);
};
layerId = "70F97C4B-94FA-40A4-8E29-E667CA674F9A";
name = Regular;
paths = (
{
closed = 1;
nodes = (
"99 584 OFFCURVE",
"43 559 CURVE SMOOTH",
"23 550 OFFCURVE",
"21 542 OFFCURVE",
"31 518 CURVE",
"39 498 OFFCURVE",
"49 497 OFFCURVE",
"67 506 CURVE SMOOTH",
"90 518 OFFCURVE",
"126 533 OFFCURVE",
"145 541 CURVE",
"136 500 LINE",
"111 347 OFFCURVE",
"88 142 OFFCURVE",
"83 29 CURVE",
"83 3 OFFCURVE",
"77 -11 OFFCURVE",
"114 -5 CURVE",
"122 -4 OFFCURVE",
"138 -1 OFFCURVE",
"139 13 CURVE SMOOTH",
"140 39 OFFCURVE",
"144 89 OFFCURVE",
"148 157 CURVE SMOOTH",
"156 287 OFFCURVE",
"189 485 OFFCURVE",
"206 589 CURVE",
"207 604 OFFCURVE",
"205 610 OFFCURVE",
"193 610 CURVE SMOOTH",
"172 610 OFFCURVE"
);
}
);
width = 251;
}
);
unicode = 0031;
},
{
glyphname = two;
lastChange = "2015-10-06 11:15:53 +0000";
layers = (
{
background = {
paths = (
{
closed = 1;
nodes = (
"197 162 OFFCURVE",
"342 294 OFFCURVE",
"342 465 CURVE",
"341 546 OFFCURVE",
"303 613 OFFCURVE",
"210 614 CURVE",
"129 614 OFFCURVE",
"74 570 OFFCURVE",
"45 494 CURVE SMOOTH",
"37 473 OFFCURVE",
"43 468 OFFCURVE",
"63 461 CURVE",
"87 453 OFFCURVE",
"93 455 OFFCURVE",
"101 475 CURVE SMOOTH",
"121 525 OFFCURVE",
"153 558 OFFCURVE",
"205 558 CURVE",
"266 558 OFFCURVE",
"284 520 OFFCURVE",
"284 456 CURVE",
"284 309 OFFCURVE",
"142 184 OFFCURVE",
"12 55 CURVE SMOOTH",
"8 51 OFFCURVE",
"0 43 OFFCURVE",
"0 36 CURVE",
"0 23 OFFCURVE",
"20 -8 OFFCURVE",
"39 -7 CURVE",
"295 0 LINE",
"324 0 OFFCURVE",
"330 4 OFFCURVE",
"337 27 CURVE",
"342 54 OFFCURVE",
"340 59 OFFCURVE",
"308 59 CURVE",
"85 50 LINE"
);
}
);
};
layerId = "70F97C4B-94FA-40A4-8E29-E667CA674F9A";
name = Regular;
paths = (
{
closed = 1;
nodes = (
"197 162 OFFCURVE",
"342 294 OFFCURVE",
"342 465 CURVE",
"341 546 OFFCURVE",
"303 613 OFFCURVE",
"210 614 CURVE",
"129 614 OFFCURVE",
"74 570 OFFCURVE",
"45 494 CURVE SMOOTH",
"37 473 OFFCURVE",
"43 468 OFFCURVE",
"63 461 CURVE",
"87 453 OFFCURVE",
"93 455 OFFCURVE",
"101 475 CURVE SMOOTH",
"121 525 OFFCURVE",
"153 558 OFFCURVE",
"205 558 CURVE",
"266 558 OFFCURVE",
"284 520 OFFCURVE",
"284 456 CURVE",
"284 309 OFFCURVE",
"142 184 OFFCURVE",
"12 55 CURVE SMOOTH",
"8 51 OFFCURVE",
"0 43 OFFCURVE",
"0 36 CURVE",
"0 23 OFFCURVE",
"20 -8 OFFCURVE",
"39 -7 CURVE",
"295 0 LINE",
"324 0 OFFCURVE",
"330 4 OFFCURVE",
"337 27 CURVE",
"342 54 OFFCURVE",
"340 59 OFFCURVE",
"308 59 CURVE",
"85 50 LINE"
);
}
);
width = 387;
}
);
unicode = 0032;
},
{
glyphname = three;
lastChange = "2015-10-06 12:43:19 +0000";
layers = (
{
background = {
paths = (
{
closed = 1;
nodes = (
"321 346 OFFCURVE",
"352 413 OFFCURVE",
"352 477 CURVE",
"351 546 OFFCURVE",
"303 613 OFFCURVE",
"210 614 CURVE SMOOTH",
"139 614 OFFCURVE",
"91 580 OFFCURVE",
"61 514 CURVE SMOOTH",
"52 493 OFFCURVE",
"59 488 OFFCURVE",
"79 481 CURVE SMOOTH",
"103 473 OFFCURVE",
"109 477 OFFCURVE",
"117 495 CURVE SMOOTH",
"136 538 OFFCURVE",
"163 558 OFFCURVE",
"205 558 CURVE SMOOTH",
"266 558 OFFCURVE",
"294 520 OFFCURVE",
"294 474 CURVE SMOOTH",
"294 405 OFFCURVE",
"256 346 OFFCURVE",
"133 331 CURVE SMOOTH",
"116 329 OFFCURVE",
"113 325 OFFCURVE",
"114 305 CURVE",
"115 285 OFFCURVE",
"117 279 OFFCURVE",
"136 280 CURVE SMOOTH",
"222 285 OFFCURVE",
"273 246 OFFCURVE",
"273 168 CURVE SMOOTH",
"273 100 OFFCURVE",
"222 50 OFFCURVE",
"156 50 CURVE SMOOTH",
"113 50 OFFCURVE",
"87 67 OFFCURVE",
"51 108 CURVE SMOOTH",
"38 122 OFFCURVE",
"31 120 OFFCURVE",
"14 104 CURVE",
"-2 88 OFFCURVE",
"-7 81 OFFCURVE",
"8 65 CURVE SMOOTH",
"53 17 OFFCURVE",
"91 -9 OFFCURVE",
"155 -9 CURVE SMOOTH",
"263 -9 OFFCURVE",
"331 77 OFFCURVE",
"331 173 CURVE SMOOTH",
"331 228 OFFCURVE",
"310 279 OFFCURVE",
"241 309 CURVE"
);
}
);
};
layerId = "70F97C4B-94FA-40A4-8E29-E667CA674F9A";
name = Regular;
paths = (
{
closed = 1;
nodes = (
"321 356 OFFCURVE",
"348 413 OFFCURVE",
"348 477 CURVE",
"347 546 OFFCURVE",
"299 613 OFFCURVE",
"213 614 CURVE SMOOTH",
"135 614 OFFCURVE",
"86 578 OFFCURVE",
"58 514 CURVE SMOOTH",
"53 502 OFFCURVE",
"54 493 OFFCURVE",
"74 485 CURVE SMOOTH",
"97 476 OFFCURVE",
"104 479 OFFCURVE",
"111 493 CURVE SMOOTH",
"133 538 OFFCURVE",
"157 558 OFFCURVE",
"207 558 CURVE SMOOTH",
"262 558 OFFCURVE",
"290 520 OFFCURVE",
"290 474 CURVE SMOOTH",
"290 405 OFFCURVE",
"256 351 OFFCURVE",
"133 336 CURVE SMOOTH",
"116 334 OFFCURVE",
"113 330 OFFCURVE",
"114 310 CURVE",
"115 290 OFFCURVE",
"117 284 OFFCURVE",
"136 285 CURVE SMOOTH",
"222 290 OFFCURVE",
"276 251 OFFCURVE",
"276 168 CURVE SMOOTH",
"276 100 OFFCURVE",
"232 50 OFFCURVE",
"162 50 CURVE SMOOTH",
"113 50 OFFCURVE",
"87 67 OFFCURVE",
"51 108 CURVE SMOOTH",
"38 122 OFFCURVE",
"31 120 OFFCURVE",
"14 104 CURVE",
"-2 88 OFFCURVE",
"-7 81 OFFCURVE",
"8 65 CURVE SMOOTH",
"53 17 OFFCURVE",
"91 -9 OFFCURVE",
"164 -9 CURVE SMOOTH",
"273 -9 OFFCURVE",
"334 77 OFFCURVE",
"334 173 CURVE SMOOTH",
"334 233 OFFCURVE",
"310 284 OFFCURVE",
"241 314 CURVE"
);
}
);
width = 392;
}
);
unicode = 0033;
},
{
glyphname = four;
lastChange = "2015-09-20 12:51:46 +0000";
layers = (
{
background = {
paths = (
{
closed = 1;
nodes = (
"258 -11 OFFCURVE",
"264 3 OFFCURVE",
"264 29 CURVE",
"270 162 OFFCURVE",
"302 417 OFFCURVE",
"329 572 CURVE",
"334 599 OFFCURVE",
"336 602 OFFCURVE",
"350 606 CURVE",
"382 614 OFFCURVE",
"389 612 OFFCURVE",
"387 589 CURVE",
"370 485 OFFCURVE",
"337 287 OFFCURVE",
"329 157 CURVE SMOOTH",
"325 89 OFFCURVE",
"321 39 OFFCURVE",
"320 13 CURVE SMOOTH",
"319 -1 OFFCURVE",
"303 -4 OFFCURVE",
"295 -5 CURVE"
);
},
{
closed = 1;
nodes = (
"31 252 LINE",
"70 354 OFFCURVE",
"113 501 OFFCURVE",
"149 580 CURVE",
"160 604 OFFCURVE",
"162 607 OFFCURVE",
"177 607 CURVE",
"210 607 OFFCURVE",
"216 604 OFFCURVE",
"209 582 CURVE",
"177 509 OFFCURVE",
"125 348 OFFCURVE",
"84 240 CURVE"
);
},
{
closed = 1;
nodes = (
"20 194 OFFCURVE",
"18 203 OFFCURVE",
"23 226 CURVE",
"29 249 OFFCURVE",
"36 252 OFFCURVE",
"65 253 CURVE",
"430 268 LINE",
"450 268 OFFCURVE",
"454 264 OFFCURVE",
"449 237 CURVE",
"442 215 OFFCURVE",
"436 213 OFFCURVE",
"407 211 CURVE",
"42 195 LINE"
);
}
);
};
layerId = "70F97C4B-94FA-40A4-8E29-E667CA674F9A";
name = Regular;
paths = (
{
closed = 1;
nodes = (
"258 -11 OFFCURVE",
"264 3 OFFCURVE",
"264 29 CURVE",
"270 162 OFFCURVE",
"302 417 OFFCURVE",
"329 572 CURVE",
"334 599 OFFCURVE",
"336 602 OFFCURVE",
"350 606 CURVE",
"382 614 OFFCURVE",
"389 612 OFFCURVE",
"387 589 CURVE",
"370 485 OFFCURVE",
"337 287 OFFCURVE",
"329 157 CURVE SMOOTH",
"325 89 OFFCURVE",
"321 39 OFFCURVE",
"320 13 CURVE SMOOTH",
"319 -1 OFFCURVE",
"303 -4 OFFCURVE",
"295 -5 CURVE"
);
},
{
closed = 1;
nodes = (
"70 354 OFFCURVE",
"119 501 OFFCURVE",
"149 580 CURVE SMOOTH",
"160 609 OFFCURVE",
"162 612 OFFCURVE",
"184 611 CURVE SMOOTH",
"216 610 OFFCURVE",
"216 604 OFFCURVE",
"209 582 CURVE",
"182 512 OFFCURVE",
"129 361 OFFCURVE",
"89 254 CURVE",
"403 268 LINE",
"423 268 OFFCURVE",
"427 264 OFFCURVE",
"422 237 CURVE",
"415 215 OFFCURVE",
"409 212 OFFCURVE",
"380 211 CURVE SMOOTH",
"74 196 LINE",
"50 195 OFFCURVE",
"24 232 OFFCURVE",
"31 252 CURVE"
);
}
);
width = 449;
}
);
unicode = 0034;
},
{
glyphname = colon;
lastChange = "2015-09-17 14:15:13 +0000";
layers = (
{
layerId = "70F97C4B-94FA-40A4-8E29-E667CA674F9A";
name = Regular;
paths = (
{
closed = 1;
nodes = (
"73 133 OFFCURVE",
"50 104 OFFCURVE",
"50 62 CURVE",
"50 37 OFFCURVE",
"62 22 OFFCURVE",
"83 22 CURVE",
"114 22 OFFCURVE",
"137 54 OFFCURVE",
"137 96 CURVE",
"137 118 OFFCURVE",
"125 133 OFFCURVE",
"104 133 CURVE"
);
},
{
closed = 1;
nodes = (
"98 417 OFFCURVE",
"75 388 OFFCURVE",
"75 346 CURVE",
"75 321 OFFCURVE",
"87 306 OFFCURVE",
"108 306 CURVE",
"139 306 OFFCURVE",
"162 338 OFFCURVE",
"162 380 CURVE",
"162 402 OFFCURVE",
"150 417 OFFCURVE",
"129 417 CURVE"
);
}
);
width = 207;
}
);
unicode = 003A;
},
{
glyphname = semicolon;
lastChange = "2015-09-17 14:23:52 +0000";
layers = (
{
background = {
paths = (
{
closed = 1;
nodes = (
"73 133 OFFCURVE",
"50 104 OFFCURVE",
"50 62 CURVE",
"50 37 OFFCURVE",
"62 22 OFFCURVE",
"83 22 CURVE",
"114 22 OFFCURVE",
"137 54 OFFCURVE",
"137 96 CURVE",
"137 118 OFFCURVE",
"125 133 OFFCURVE",
"104 133 CURVE"
);
},
{
closed = 1;
nodes = (
"98 417 OFFCURVE",
"75 388 OFFCURVE",
"75 346 CURVE",
"75 321 OFFCURVE",
"87 306 OFFCURVE",
"108 306 CURVE",
"139 306 OFFCURVE",
"162 338 OFFCURVE",
"162 380 CURVE",
"162 402 OFFCURVE",
"150 417 OFFCURVE",
"129 417 CURVE"
);
}
);
};
components = (
{
name = comma;
transform = "{1, 0, 0, 1, 51, 0}";
}
);
layerId = "70F97C4B-94FA-40A4-8E29-E667CA674F9A";
name = Regular;
paths = (
{
closed = 1;
nodes = (
"98 417 OFFCURVE",
"75 388 OFFCURVE",
"75 346 CURVE",
"75 321 OFFCURVE",
"87 306 OFFCURVE",
"108 306 CURVE",
"139 306 OFFCURVE",
"162 338 OFFCURVE",
"162 380 CURVE",
"162 402 OFFCURVE",
"150 417 OFFCURVE",
"129 417 CURVE"
);
}
);
width = 209;
}
);
unicode = 003B;
},
{
glyphname = question;
lastChange = "2015-10-06 11:15:53 +0000";
layers = (
{
background = {
paths = (
{
closed = 1;
nodes = (
"124 165 LINE",
"124 283 OFFCURVE",
"287 356 OFFCURVE",
"287 468 CURVE",
"287 513 OFFCURVE",
"269 556 OFFCURVE",
"208 556 CURVE",
"156 556 OFFCURVE",
"124 518 OFFCURVE",
"104 468 CURVE SMOOTH",
"96 448 OFFCURVE",
"90 446 OFFCURVE",
"66 454 CURVE",
"46 461 OFFCURVE",
"40 466 OFFCURVE",
"48 487 CURVE SMOOTH",
"77 563 OFFCURVE",
"132 612 OFFCURVE",
"213 612 CURVE",
"306 611 OFFCURVE",
"344 539 OFFCURVE",
"345 473 CURVE",
"345 345 OFFCURVE",
"183 255 OFFCURVE",
"182 161 CURVE"
);
},
{
closed = 1;
nodes = (
"112 103 OFFCURVE",
"92 74 OFFCURVE",
"92 32 CURVE",
"93 7 OFFCURVE",
"107 -8 OFFCURVE",
"128 -7 CURVE",
"159 -7 OFFCURVE",
"179 25 OFFCURVE",
"179 67 CURVE",
"178 89 OFFCURVE",
"164 104 OFFCURVE",
"143 104 CURVE"
);
}
);
};
layerId = "70F97C4B-94FA-40A4-8E29-E667CA674F9A";
name = Regular;
paths = (
{
closed = 1;
nodes = (
"181 173 OFFCURVE",
"179 166 OFFCURVE",
"150 163 CURVE",
"133 161 OFFCURVE",
"127 168 OFFCURVE",
"130 186 CURVE SMOOTH",
"148 292 OFFCURVE",
"287 376 OFFCURVE",
"287 476 CURVE",
"287 516 OFFCURVE",
"269 556 OFFCURVE",
"208 556 CURVE",
"156 556 OFFCURVE",
"124 518 OFFCURVE",
"104 468 CURVE SMOOTH",
"96 448 OFFCURVE",
"90 446 OFFCURVE",
"66 454 CURVE",
"46 461 OFFCURVE",
"40 466 OFFCURVE",
"48 487 CURVE SMOOTH",
"77 563 OFFCURVE",
"127 612 OFFCURVE",
"213 612 CURVE",
"306 611 OFFCURVE",
"344 548 OFFCURVE",
"345 487 CURVE",
"345 365 OFFCURVE",
"223 287 OFFCURVE",
"191 199 CURVE SMOOTH"
);
},
{
closed = 1;
nodes = (
"164 104 OFFCURVE",
"178 88 OFFCURVE",
"178 61 CURVE",
"178 25 OFFCURVE",
"159 -7 OFFCURVE",
"128 -7 CURVE",
"107 -7 OFFCURVE",
"93 9 OFFCURVE",
"93 36 CURVE",
"93 72 OFFCURVE",
"112 104 OFFCURVE",
"143 104 CURVE"
);
}
);
width = 372;
}
);
unicode = 003F;
},
{
glyphname = A;
lastChange = "2015-09-22 09:26:01 +0000";
layers = (
{
anchors = (
{
name = bottom;
position = "{211, 10}";
},
{
name = top;
position = "{290, 670}";
}
);
background = {
paths = (
{
closed = 1;
nodes = (
"-549 22 LINE",
"-559 -5 OFFCURVE",
"-568 -5 OFFCURVE",
"-584 -4 CURVE",
"-619 -3 OFFCURVE",
"-625 1 OFFCURVE",
"-615 23 CURVE",
"-346 675 LINE",
"-336 701 OFFCURVE",
"-329 702 OFFCURVE",
"-313 702 CURVE",
"-279 700 OFFCURVE",
"-272 696 OFFCURVE",
"-280 675 CURVE"
);
},
{
closed = 1;
nodes = (
"-180 45 LINE",
"-174 17 OFFCURVE",
"-183 12 OFFCURVE",
"-197 4 CURVE",
"-227 -12 OFFCURVE",
"-234 -12 OFFCURVE",
"-237 11 CURVE",
"-336 667 LINE",
"-341 695 OFFCURVE",
"-336 699 OFFCURVE",
"-322 706 CURVE",
"-290 723 OFFCURVE",
"-283 723 OFFCURVE",
"-279 701 CURVE"
);
},
{
closed = 1;
nodes = (
"-187 275 OFFCURVE",
"-197 266 OFFCURVE",
"-229 263 CURVE SMOOTH",
"-485 239 LINE SMOOTH",
"-478 301 LINE",
"-239 321 LINE SMOOTH",
"-210 323 OFFCURVE",
"-204 320 OFFCURVE",
"-195 298 CURVE"
);
},
{
closed = 1;
nodes = (
"-733 291 LINE",
"-973 291 LINE",
"-986 232 LINE SMOOTH",
"-728 232 LINE"
);
},
{
closed = 1;
nodes = (
"-838 534 LINE",
"-820 591 LINE",
"-816 533 LINE",
"-738 18 LINE SMOOTH",
"-734 -12 OFFCURVE",
"-727 -14 OFFCURVE",
"-697 0 CURVE SMOOTH",
"-678 9 OFFCURVE",
"-674 13 OFFCURVE",
"-680 41 CURVE",
"-777 688 LINE",
"-781 709 OFFCURVE",
"-785 714 OFFCURVE",
"-820 707 CURVE",
"-835 703 OFFCURVE",
"-837 696 OFFCURVE",
"-846 675 CURVE",
"-1115 23 LINE",
"-1123 0 OFFCURVE",
"-1124 -12 OFFCURVE",
"-1080 -4 CURVE",
"-1059 0 OFFCURVE",
"-1056 5 OFFCURVE",
"-1045 32 CURVE"
);
},
{
closed = 1;
nodes = (
"436 275 OFFCURVE",
"426 266 OFFCURVE",
"394 263 CURVE SMOOTH",
"138 239 LINE SMOOTH",
"145 301 LINE",
"384 321 LINE SMOOTH",
"413 323 OFFCURVE",
"419 320 OFFCURVE",
"428 298 CURVE"
);
},
{
closed = 1;
nodes = (
"436 17 OFFCURVE",
"427 12 OFFCURVE",
"413 4 CURVE SMOOTH",
"383 -12 OFFCURVE",
"376 -12 OFFCURVE",
"373 11 CURVE",
"342 185 OFFCURVE",
"317 333 OFFCURVE",
"288 517 CURVE SMOOTH",
"286 531 OFFCURVE",
"285 565 OFFCURVE",
"283 579 CURVE",
"278 566 OFFCURVE",
"271 532 OFFCURVE",
"266 519 CURVE SMOOTH",
"203 353 OFFCURVE",
"132 188 OFFCURVE",
"51 22 CURVE SMOOTH",
"39 -2 OFFCURVE",
"32 -4 OFFCURVE",
"16 -4 CURVE SMOOTH",
"-18 -3 OFFCURVE",
"-24 1 OFFCURVE",
"-14 23 CURVE",
"96 240 OFFCURVE",
"185 458 OFFCURVE",
"255 675 CURVE",
"261 691 OFFCURVE",
"265 699 OFFCURVE",
"281 706 CURVE SMOOTH",
"314 721 OFFCURVE",
"317 723 OFFCURVE",
"321 701 CURVE SMOOTH",
"323 688 OFFCURVE",
"391 262 OFFCURVE",
"430 45 CURVE SMOOTH"
);
}
);
};
layerId = "70F97C4B-94FA-40A4-8E29-E667CA674F9A";
name = Regular;
paths = (
{
closed = 1;
nodes = (
"434 273 OFFCURVE",
"432 269 OFFCURVE",
"384 264 CURVE SMOOTH",
"138 239 LINE SMOOTH",
"145 297 LINE",
"384 321 LINE SMOOTH",
"413 324 OFFCURVE",
"422 325 OFFCURVE",
"428 298 CURVE"
);
},
{
closed = 1;
nodes = (
"435 10 OFFCURVE",
"435 6 OFFCURVE",
"414 -3 CURVE SMOOTH",
"386 -15 OFFCURVE",
"377 -19 OFFCURVE",
"374 4 CURVE",
"294 477 LINE",
"285 561 LINE",
"50 22 LINE",
"38 -2 OFFCURVE",
"31 -4 OFFCURVE",
"15 -4 CURVE SMOOTH",
"-19 -3 OFFCURVE",
"-24 1 OFFCURVE",
"-14 23 CURVE",
"255 635 LINE",
"264 655 OFFCURVE",
"265 660 OFFCURVE",
"281 666 CURVE SMOOTH",
"312 677 OFFCURVE",
"316 679 OFFCURVE",
"319 661 CURVE SMOOTH",
"321 648 OFFCURVE",
"390 255 OFFCURVE",
"429 38 CURVE SMOOTH"
);
}
);
width = 471;
}
);
unicode = 0041;
},
{
glyphname = B;
lastChange = "2015-09-22 08:53:38 +0000";
layers = (
{
background = {
paths = (
{
closed = 1;
nodes = (
"672 310 OFFCURVE",
"649 310 OFFCURVE",
"623 312 CURVE",
"635 374 LINE",
"656 372 OFFCURVE",
"675 371 OFFCURVE",
"689 371 CURVE",
"836 374 OFFCURVE",
"895 433 OFFCURVE",
"893 510 CURVE",
"891 575 OFFCURVE",
"835 618 OFFCURVE",
"747 617 CURVE",
"681 617 OFFCURVE",
"636 612 OFFCURVE",
"578 600 CURVE SMOOTH",
"559 596 OFFCURVE",
"553 604 OFFCURVE",
"551 625 CURVE",
"549 643 OFFCURVE",
"553 654 OFFCURVE",
"572 658 CURVE SMOOTH",
"630 670 OFFCURVE",
"672 675 OFFCURVE",
"744 675 CURVE",
"883 675 OFFCURVE",
"956 600 OFFCURVE",
"956 507 CURVE",
"956 403 OFFCURVE",
"873 313 OFFCURVE",
"688 310 CURVE"
);
},
{
closed = 1;
nodes = (
"628 30 LINE",
"626 2 OFFCURVE",
"617 0 OFFCURVE",
"602 -4 CURVE",
"570 -12 OFFCURVE",
"563 -10 OFFCURVE",
"566 13 CURVE",
"636 633 LINE",
"639 661 OFFCURVE",
"645 664 OFFCURVE",
"660 668 CURVE",
"694 675 OFFCURVE",
"699 674 OFFCURVE",
"697 651 CURVE"
);
},
{
closed = 1;
nodes = (
"672 -3 OFFCURVE",
"649 -3 OFFCURVE",
"623 -1 CURVE",
"635 61 LINE",
"656 59 OFFCURVE",
"675 58 OFFCURVE",
"689 58 CURVE",
"836 61 OFFCURVE",
"895 120 OFFCURVE",
"893 207 CURVE",
"891 277 OFFCURVE",
"835 315 OFFCURVE",
"747 314 CURVE",
"681 314 OFFCURVE",
"636 309 OFFCURVE",
"578 297 CURVE SMOOTH",
"559 293 OFFCURVE",
"553 301 OFFCURVE",
"551 322 CURVE",
"549 340 OFFCURVE",
"553 351 OFFCURVE",
"572 355 CURVE SMOOTH",
"630 367 OFFCURVE",
"672 372 OFFCURVE",
"744 372 CURVE",
"883 372 OFFCURVE",
"956 302 OFFCURVE",
"956 204 CURVE",
"956 90 OFFCURVE",
"873 0 OFFCURVE",
"688 -3 CURVE"
);
},
{
closed = 1;
nodes = (
"631 57 CURVE",
"693 616 LINE",
"710 617 OFFCURVE",
"727 617 OFFCURVE",
"747 617 CURVE SMOOTH",
"835 618 OFFCURVE",
"891 575 OFFCURVE",
"893 510 CURVE SMOOTH",
"895 438 OFFCURVE",
"843 381 OFFCURVE",
"716 371 CURVE SMOOTH",
"707 371 OFFCURVE",
"698 370 OFFCURVE",
"689 370 CURVE",
"686 344 LINE",
"683 312 LINE",
"693 312 OFFCURVE",
"702 313 OFFCURVE",
"711 313 CURVE SMOOTH",
"722 314 OFFCURVE",
"734 314 OFFCURVE",
"747 314 CURVE SMOOTH",
"835 315 OFFCURVE",
"891 277 OFFCURVE",
"893 207 CURVE SMOOTH",
"895 120 OFFCURVE",
"832 49 OFFCURVE"
);
},
{
closed = 1;
nodes = (
"413 371 OFFCURVE",
"454 437 OFFCURVE",
"455 500 CURVE SMOOTH",
"457 601 OFFCURVE",
"404 649 OFFCURVE",
"325 668 CURVE SMOOTH",
"255 685 OFFCURVE",
"164 675 OFFCURVE",
"74 658 CURVE SMOOTH",
"55 654 OFFCURVE",
"50 643 OFFCURVE",
"52 625 CURVE SMOOTH",
"54 604 OFFCURVE",
"60 598 OFFCURVE",
"79 601 CURVE SMOOTH",
"98 605 OFFCURVE",
"116 608 OFFCURVE",
"134 610 CURVE",
"57 19 LINE SMOOTH",
"54 -2 OFFCURVE",
"59 -5 OFFCURVE",
"85 -7 CURVE",
"372 -25 OFFCURVE",
"448 83 OFFCURVE",
"450 197 CURVE SMOOTH",
"451 262 OFFCURVE",
"414 326 OFFCURVE",
"337 345 CURVE"
);
},
{
closed = 1;
nodes = (
"120 52 CURVE",
"193 617 LINE",
"295 628 OFFCURVE",
"391 608 OFFCURVE",
"393 504 CURVE SMOOTH",
"394 432 OFFCURVE",
"341 375 OFFCURVE",
"214 368 CURVE SMOOTH",
"187 367 OFFCURVE",
"186 366 OFFCURVE",
"182 341 CURVE",
"180 314 OFFCURVE",
"180 310 OFFCURVE",
"207 311 CURVE SMOOTH",
"289 315 OFFCURVE",
"386 295 OFFCURVE",
"387 201 CURVE SMOOTH",
"388 114 OFFCURVE",
"321 40 OFFCURVE"
);
}
);
};
layerId = "70F97C4B-94FA-40A4-8E29-E667CA674F9A";
name = Regular;
paths = (
{
closed = 1;
nodes = (
"368 -26 OFFCURVE",
"448 83 OFFCURVE",
"450 197 CURVE SMOOTH",
"451 262 OFFCURVE",
"414 326 OFFCURVE",
"337 345 CURVE",
"413 371 OFFCURVE",
"454 437 OFFCURVE",
"455 500 CURVE SMOOTH",
"457 601 OFFCURVE",
"404 649 OFFCURVE",
"325 668 CURVE SMOOTH",
"255 685 OFFCURVE",
"164 675 OFFCURVE",
"74 658 CURVE SMOOTH",
"55 654 OFFCURVE",
"50 643 OFFCURVE",
"52 625 CURVE SMOOTH",
"54 604 OFFCURVE",
"60 598 OFFCURVE",
"79 601 CURVE SMOOTH",
"98 605 OFFCURVE",
"116 608 OFFCURVE",
"134 610 CURVE",
"59 37 LINE",
"57 17 OFFCURVE",
"77 -5 OFFCURVE",
"98 -8 CURVE"
);
},
{
closed = 1;
nodes = (
"388 114 OFFCURVE",
"321 40 OFFCURVE",
"120 52 CURVE",
"193 617 LINE",
"295 628 OFFCURVE",
"391 608 OFFCURVE",
"393 504 CURVE SMOOTH",
"394 432 OFFCURVE",
"341 375 OFFCURVE",
"214 368 CURVE SMOOTH",
"187 367 OFFCURVE",
"186 366 OFFCURVE",
"182 341 CURVE",
"180 314 OFFCURVE",
"180 310 OFFCURVE",
"207 311 CURVE SMOOTH",
"289 315 OFFCURVE",
"386 295 OFFCURVE",
"387 201 CURVE SMOOTH"
);
}
);
width = 495;
}
);
unicode = 0042;
},
{
glyphname = C;
lastChange = "2015-10-06 11:32:42 +0000";
layers = (
{
anchors = (
{
name = top;
position = "{290, 670}";
}
);
background = {
paths = (
{
closed = 1;
nodes = (
"81 -8 OFFCURVE",
"37 105 OFFCURVE",
"35 254 CURVE",
"35 459 OFFCURVE",
"119 714 OFFCURVE",
"319 714 CURVE",
"438 712 OFFCURVE",
"486 599 OFFCURVE",
"488 450 CURVE",
"488 245 OFFCURVE",
"404 -10 OFFCURVE",
"204 -10 CURVE"
);
},
{
closed = 1;
nodes = (
"157 651 OFFCURVE",
"100 397 OFFCURVE",
"100 273 CURVE",
"100 148 OFFCURVE",
"129 53 OFFCURVE",
"212 53 CURVE",
"366 53 OFFCURVE",
"423 317 OFFCURVE",
"423 431 CURVE",
"423 551 OFFCURVE",
"394 651 OFFCURVE",
"311 651 CURVE"
);
},
{
closed = 1;
nodes = (
"395 164 LINE",
"425 150 LINE",
"422 144 OFFCURVE",
"419 137 OFFCURVE",
"415 131 CURVE SMOOTH",
"369 49 OFFCURVE",
"300 -10 OFFCURVE",
"204 -10 CURVE",
"81 -8 OFFCURVE",
"37 105 OFFCURVE",
"35 254 CURVE",
"35 459 OFFCURVE",
"119 714 OFFCURVE",
"309 714 CURVE",
"397 712 OFFCURVE",
"446 650 OFFCURVE",
"466 558 CURVE",
"403 539 LINE",
"388 606 OFFCURVE",
"357 651 OFFCURVE",
"301 651 CURVE",
"157 651 OFFCURVE",
"100 397 OFFCURVE",
"100 273 CURVE",
"100 148 OFFCURVE",
"129 53 OFFCURVE",
"212 53 CURVE",
"275 53 OFFCURVE",
"322 98 OFFCURVE",
"355 158 CURVE SMOOTH",
"359 164 OFFCURVE",
"363 171 OFFCURVE",
"366 178 CURVE"
);
}
);
};
layerId = "70F97C4B-94FA-40A4-8E29-E667CA674F9A";
name = Regular;
paths = (
{
closed = 1;
nodes = (
"378 181 OFFCURVE",
"367 182 OFFCURVE",
"357 164 CURVE SMOOTH",
"325 104 OFFCURVE",
"277 55 OFFCURVE",
"214 54 CURVE",
"131 53 OFFCURVE",
"98 139 OFFCURVE",
"96 254 CURVE",
"94 368 OFFCURVE",
"149 615 OFFCURVE",
"293 618 CURVE",
"348 619 OFFCURVE",
"375 588 OFFCURVE",
"387 530 CURVE SMOOTH",
"391 510 OFFCURVE",
"402 508 OFFCURVE",
"425 516 CURVE",
"450 523 OFFCURVE",
"453 528 OFFCURVE",
"448 549 CURVE SMOOTH",
"432 631 OFFCURVE",
"380 678 OFFCURVE",
"300 679 CURVE",
"110 675 OFFCURVE",
"30 429 OFFCURVE",
"34 234 CURVE",
"38 95 OFFCURVE",
"84 -7 OFFCURVE",
"207 -7 CURVE",
"303 -5 OFFCURVE",
"369 54 OFFCURVE",
"414 136 CURVE SMOOTH",
"422 152 OFFCURVE",
"415 160 OFFCURVE",
"395 170 CURVE"
);
}
);
width = 472;
}
);
unicode = 0043;
},
{
glyphname = D;
lastChange = "2015-09-22 09:09:06 +0000";
layers = (
{
anchors = (
{
name = bottom;
position = "{202, 0}";
},
{
name = top;
position = "{250, 670}";
}
);
background = {
paths = (
{
closed = 1;
nodes = (
"-434 -7 OFFCURVE",
"-480 105 OFFCURVE",
"-485 254 CURVE",
"-488 459 OFFCURVE",
"-409 715 OFFCURVE",
"-209 719 CURVE",
"-90 719 OFFCURVE",
"-40 607 OFFCURVE",
"-35 458 CURVE",
"-31 253 OFFCURVE",
"-111 -4 OFFCURVE",
"-311 -7 CURVE"
);
},
{
closed = 1;
nodes = (
"-369 653 OFFCURVE",
"-422 398 OFFCURVE",
"-420 274 CURVE",
"-418 149 OFFCURVE",
"-387 55 OFFCURVE",
"-304 56 CURVE",
"-150 59 OFFCURVE",
"-98 324 OFFCURVE",
"-100 438 CURVE",
"-102 558 OFFCURVE",
"-133 657 OFFCURVE",
"-215 656 CURVE"
);
},
{
closed = 1;
nodes = (
"-405 30 LINE",
"-407 2 OFFCURVE",
"-416 0 OFFCURVE",
"-431 -4 CURVE",
"-465 -12 OFFCURVE",
"-472 -10 OFFCURVE",
"-469 13 CURVE",
"-395 672 LINE",
"-392 700 OFFCURVE",
"-386 703 OFFCURVE",
"-371 707 CURVE",
"-336 714 OFFCURVE",
"-329 713 OFFCURVE",
"-331 690 CURVE"
);
},
{
closed = 1;
nodes = (
"-902 50 LINE",
"-904 22 OFFCURVE",
"-913 20 OFFCURVE",
"-928 16 CURVE",
"-962 8 OFFCURVE",
"-969 10 OFFCURVE",
"-966 33 CURVE",
"-895 672 LINE",
"-892 700 OFFCURVE",
"-886 703 OFFCURVE",
"-871 707 CURVE",
"-836 714 OFFCURVE",
"-829 713 OFFCURVE",
"-831 690 CURVE"
);
},
{
closed = 1;
nodes = (
"-886 -7 OFFCURVE",
"-975 3 OFFCURVE",
"-1037 13 CURVE",
"-1026 78 LINE",
"-965 70 OFFCURVE",
"-885 59 OFFCURVE",
"-844 59 CURVE",
"-660 62 OFFCURVE",
"-598 294 OFFCURVE",
"-600 438 CURVE",
"-602 558 OFFCURVE",
"-643 656 OFFCURVE",
"-765 655 CURVE",
"-820 655 OFFCURVE",
"-893 642 OFFCURVE",
"-958 630 CURVE",
"-966 697 LINE",
"-896 709 OFFCURVE",
"-833 719 OFFCURVE",
"-769 719 CURVE",
"-600 719 OFFCURVE",
"-540 607 OFFCURVE",
"-535 458 CURVE",
"-531 253 OFFCURVE",
"-614 -4 OFFCURVE",
"-845 -7 CURVE"
);
},
{
closed = 1;
nodes = (
"51 -8 OFFCURVE",
"7 98 OFFCURVE",
"5 234 CURVE",
"5 429 OFFCURVE",
"89 674 OFFCURVE",
"289 674 CURVE",
"408 672 OFFCURVE",
"456 569 OFFCURVE",
"458 430 CURVE",
"458 235 OFFCURVE",
"374 -10 OFFCURVE",
"174 -10 CURVE"
);
},
{
closed = 1;
nodes = (
"127 613 OFFCURVE",
"68 367 OFFCURVE",
"68 253 CURVE",
"68 138 OFFCURVE",
"99 51 OFFCURVE",
"182 51 CURVE",
"336 51 OFFCURVE",
"395 307 OFFCURVE",
"395 411 CURVE",
"395 521 OFFCURVE",
"364 613 OFFCURVE",
"281 613 CURVE"
);
}
);
};
layerId = "70F97C4B-94FA-40A4-8E29-E667CA674F9A";
name = Regular;
paths = (
{
closed = 1;
nodes = (
"115 -10 OFFCURVE",
"130 -12 OFFCURVE",
"143 -12 CURVE SMOOTH",
"348 -15 OFFCURVE",
"471 130 OFFCURVE",
"475 404 CURVE SMOOTH",
"478 577 OFFCURVE",
"407 669 OFFCURVE",
"248 672 CURVE SMOOTH",
"196 672 OFFCURVE",
"134 669 OFFCURVE",
"76 658 CURVE SMOOTH",
"57 654 OFFCURVE",
"52 643 OFFCURVE",
"54 625 CURVE SMOOTH",
"56 604 OFFCURVE",
"62 596 OFFCURVE",
"81 599 CURVE SMOOTH",
"98 603 OFFCURVE",
"117 605 OFFCURVE",
"136 607 CURVE",
"62 37 LINE",
"61 20 OFFCURVE",
"79 -4 OFFCURVE",
"100 -7 CURVE"
);
},
{
closed = 1;
nodes = (
"196 612 LINE",
"217 613 OFFCURVE",
"236 614 OFFCURVE",
"250 613 CURVE SMOOTH",
"350 612 OFFCURVE",
"414 560 OFFCURVE",
"413 415 CURVE SMOOTH",
"413 208 OFFCURVE",
"340 45 OFFCURVE",
"147 48 CURVE SMOOTH",
"139 48 OFFCURVE",
"132 49 OFFCURVE",
"123 50 CURVE"
);
}
);
width = 511;
}
);
unicode = 0044;
},
{
glyphname = E;
lastChange = "2015-09-22 08:53:38 +0000";
layers = (
{
anchors = (
{
name = bottom;
position = "{206, 0}";
},
{
name = top;
position = "{230, 670}";
}
);
background = {
paths = (
{
closed = 1;
nodes = (
"-184 335 LINE",
"-155 335 OFFCURVE",
"-149 339 OFFCURVE",
"-142 362 CURVE",
"-137 385 OFFCURVE",
"-139 393 OFFCURVE",
"-171 393 CURVE",
"-385 393 LINE",
"-414 393 OFFCURVE",
"-420 389 OFFCURVE",
"-427 366 CURVE",
"-432 343 OFFCURVE",
"-430 335 OFFCURVE",
"-398 335 CURVE"
);
},
{
closed = 1;
nodes = (
"-353 711 LINE SMOOTH",
"-374 711 OFFCURVE",
"-383 709 OFFCURVE",
"-389 700 CURVE",
"-393 695 OFFCURVE",
"-395 688 OFFCURVE",
"-397 672 CURVE",
"-469 20 LINE SMOOTH",
"-471 4 OFFCURVE",
"-466 -2 OFFCURVE",
"-453 -1 CURVE",
"-191 0 LINE SMOOTH",
"-162 0 OFFCURVE",
"-156 4 OFFCURVE",
"-149 27 CURVE",
"-144 50 OFFCURVE",
"-146 58 OFFCURVE",
"-178 58 CURVE SMOOTH",
"-402 60 LINE",
"-337 653 LINE",
"-122 653 LINE SMOOTH",
"-93 653 OFFCURVE",
"-87 657 OFFCURVE",
"-80 680 CURVE",
"-75 703 OFFCURVE",
"-77 711 OFFCURVE",
"-109 711 CURVE SMOOTH"
);
},
{
closed = 1;
nodes = (
"-184 335 LINE",
"-155 335 OFFCURVE",
"-149 339 OFFCURVE",
"-142 362 CURVE",
"-137 385 OFFCURVE",
"-139 393 OFFCURVE",
"-171 393 CURVE",
"-275 393 LINE",
"-304 393 OFFCURVE",
"-310 389 OFFCURVE",
"-317 366 CURVE",
"-322 343 OFFCURVE",
"-320 335 OFFCURVE",
"-288 335 CURVE"
);
},
{
closed = 1;
nodes = (
"-328 743 OFFCURVE",
"-335 744 OFFCURVE",
"-370 737 CURVE",
"-385 733 OFFCURVE",
"-391 730 OFFCURVE",
"-394 702 CURVE",
"-451 185 LINE",
"-463 71 OFFCURVE",
"-450 0 OFFCURVE",
"-293 0 CURVE",
"-191 0 LINE SMOOTH",
"-162 0 OFFCURVE",
"-156 4 OFFCURVE",
"-149 27 CURVE",
"-144 50 OFFCURVE",
"-146 58 OFFCURVE",
"-178 58 CURVE SMOOTH",
"-311 59 LINE",
"-372 59 OFFCURVE",
"-398 93 OFFCURVE",
"-393 142 CURVE",
"-330 720 LINE"
);
},
{
closed = 1;
nodes = (
"-122 653 LINE",
"-93 653 OFFCURVE",
"-87 657 OFFCURVE",
"-80 680 CURVE",
"-75 703 OFFCURVE",
"-77 711 OFFCURVE",
"-109 711 CURVE",
"-393 711 LINE",
"-422 711 OFFCURVE",
"-428 707 OFFCURVE",
"-435 684 CURVE",
"-440 661 OFFCURVE",
"-438 653 OFFCURVE",
"-406 653 CURVE"
);
},
{
closed = 1;
nodes = (
"816 335 LINE",
"845 335 OFFCURVE",
"851 339 OFFCURVE",
"858 362 CURVE",
"863 385 OFFCURVE",
"861 393 OFFCURVE",
"829 393 CURVE",
"615 393 LINE",
"586 393 OFFCURVE",
"580 389 OFFCURVE",
"573 366 CURVE",
"568 343 OFFCURVE",
"570 335 OFFCURVE",
"602 335 CURVE"
);
},
{
closed = 1;
nodes = (
"647 711 LINE SMOOTH",
"626 711 OFFCURVE",
"617 709 OFFCURVE",
"611 700 CURVE",
"607 695 OFFCURVE",
"605 688 OFFCURVE",
"603 672 CURVE",
"531 20 LINE SMOOTH",
"529 4 OFFCURVE",
"534 -2 OFFCURVE",
"547 -1 CURVE",
"809 0 LINE SMOOTH",
"838 0 OFFCURVE",
"844 4 OFFCURVE",
"851 27 CURVE",
"856 50 OFFCURVE",
"854 58 OFFCURVE",
"822 58 CURVE SMOOTH",
"598 60 LINE",
"663 653 LINE",
"878 653 LINE SMOOTH",
"907 653 OFFCURVE",
"913 657 OFFCURVE",
"920 680 CURVE",
"925 703 OFFCURVE",
"923 711 OFFCURVE",
"891 711 CURVE SMOOTH"
);
},
{
closed = 1;
nodes = (
"-122 653 LINE",
"-93 654 OFFCURVE",
"-87 657 OFFCURVE",
"-80 680 CURVE",
"-75 703 OFFCURVE",
"-79 712 OFFCURVE",
"-109 711 CURVE",
"-406 702 LINE",
"-435 702 OFFCURVE",
"-438 698 OFFCURVE",
"-445 675 CURVE",
"-450 649 OFFCURVE",
"-448 644 OFFCURVE",
"-416 644 CURVE"
);
},
{
closed = 1;
nodes = (
"98 50 LINE",
"166 680 LINE SMOOTH",
"168 703 OFFCURVE",
"161 704 OFFCURVE",
"126 697 CURVE",
"111 693 OFFCURVE",
"105 690 OFFCURVE",
"102 662 CURVE SMOOTH",
"34 35 LINE SMOOTH",
"32 15 OFFCURVE",
"54 -11 OFFCURVE",
"73 -10 CURVE",
"329 0 LINE",
"358 0 OFFCURVE",
"364 4 OFFCURVE",
"371 27 CURVE",
"376 54 OFFCURVE",
"374 59 OFFCURVE",
"342 59 CURVE"
);
},
{
closed = 1;
nodes = (
"316 335 LINE",
"345 337 OFFCURVE",
"351 339 OFFCURVE",
"358 362 CURVE",
"363 385 OFFCURVE",
"361 394 OFFCURVE",
"329 393 CURVE",
"125 383 LINE",
"96 383 OFFCURVE",
"90 379 OFFCURVE",
"83 356 CURVE",
"78 333 OFFCURVE",
"80 325 OFFCURVE",
"112 325 CURVE"
);
},
{
closed = 1;
nodes = (
"378 653 LINE",
"407 654 OFFCURVE",
"413 657 OFFCURVE",
"420 680 CURVE",
"425 703 OFFCURVE",
"421 712 OFFCURVE",
"391 711 CURVE",
"77 702 LINE",
"48 702 OFFCURVE",
"45 698 OFFCURVE",
"38 675 CURVE",
"33 649 OFFCURVE",
"35 644 OFFCURVE",
"67 644 CURVE"
);
}
);
};
layerId = "70F97C4B-94FA-40A4-8E29-E667CA674F9A";
name = Regular;
paths = (
{
closed = 1;
nodes = (
"98 50 LINE",
"162 640 LINE SMOOTH",
"165 663 OFFCURVE",
"157 664 OFFCURVE",
"122 657 CURVE",
"107 653 OFFCURVE",
"101 650 OFFCURVE",
"98 622 CURVE SMOOTH",
"34 35 LINE SMOOTH",
"32 15 OFFCURVE",
"54 -11 OFFCURVE",
"73 -10 CURVE",
"329 0 LINE",
"358 0 OFFCURVE",
"364 4 OFFCURVE",
"371 27 CURVE",
"376 54 OFFCURVE",
"374 59 OFFCURVE",
"342 59 CURVE"
);
},
{
closed = 1;
nodes = (
"314 315 LINE",
"343 317 OFFCURVE",
"349 319 OFFCURVE",
"356 342 CURVE",
"361 365 OFFCURVE",
"359 374 OFFCURVE",
"327 373 CURVE",
"123 363 LINE",
"94 363 OFFCURVE",
"88 359 OFFCURVE",
"81 336 CURVE",
"76 313 OFFCURVE",
"78 305 OFFCURVE",
"110 305 CURVE"
);
},
{
closed = 1;
nodes = (
"374 613 LINE",
"403 614 OFFCURVE",
"409 617 OFFCURVE",
"416 640 CURVE",
"421 663 OFFCURVE",
"417 672 OFFCURVE",
"387 671 CURVE",
"73 662 LINE",
"42 661 OFFCURVE",
"41 658 OFFCURVE",
"34 635 CURVE",
"29 609 OFFCURVE",
"31 604 OFFCURVE",
"63 604 CURVE"
);
}
);
width = 412;
}
);
unicode = 0045;
},
{
glyphname = F;
lastChange = "2015-09-22 08:53:38 +0000";
layers = (
{
background = {
paths = (
{
closed = 1;
nodes = (
"316 325 LINE",
"345 327 OFFCURVE",
"351 329 OFFCURVE",
"358 352 CURVE",
"363 375 OFFCURVE",
"361 384 OFFCURVE",
"329 383 CURVE",
"125 373 LINE",
"96 373 OFFCURVE",
"90 369 OFFCURVE",
"83 346 CURVE",
"78 323 OFFCURVE",
"80 315 OFFCURVE",
"112 315 CURVE"
);
},
{
closed = 1;
nodes = (
"378 653 LINE",
"407 654 OFFCURVE",
"413 657 OFFCURVE",
"420 680 CURVE",
"425 703 OFFCURVE",
"421 712 OFFCURVE",
"391 711 CURVE",
"77 702 LINE",
"48 702 OFFCURVE",
"45 698 OFFCURVE",
"38 675 CURVE",
"33 649 OFFCURVE",
"35 644 OFFCURVE",
"67 644 CURVE"
);
},
{
closed = 1;
nodes = (
"166 680 LINE SMOOTH",
"169 703 OFFCURVE",
"161 704 OFFCURVE",
"126 697 CURVE",
"111 693 OFFCURVE",
"105 690 OFFCURVE",
"102 662 CURVE SMOOTH",
"31 13 LINE",
"28 -10 OFFCURVE",
"35 -12 OFFCURVE",
"69 -4 CURVE",
"84 0 OFFCURVE",
"93 2 OFFCURVE",
"95 30 CURVE"
);
}
);
};
layerId = "70F97C4B-94FA-40A4-8E29-E667CA674F9A";
name = Regular;
paths = (
{
closed = 1;
nodes = (
"28 -10 OFFCURVE",
"35 -12 OFFCURVE",
"69 -4 CURVE",
"84 0 OFFCURVE",
"93 2 OFFCURVE",
"95 30 CURVE",
"162 640 LINE SMOOTH",
"165 663 OFFCURVE",
"157 664 OFFCURVE",
"122 657 CURVE",
"107 653 OFFCURVE",
"101 650 OFFCURVE",
"98 622 CURVE SMOOTH",
"31 13 LINE"
);
},
{
closed = 1;
nodes = (
"374 613 LINE",
"403 614 OFFCURVE",
"409 617 OFFCURVE",
"416 640 CURVE",
"421 663 OFFCURVE",
"417 672 OFFCURVE",
"387 671 CURVE",
"73 662 LINE",
"44 662 OFFCURVE",
"41 658 OFFCURVE",
"34 635 CURVE",
"29 609 OFFCURVE",
"31 604 OFFCURVE",
"63 604 CURVE"
);
},
{
closed = 1;
nodes = (
"314 295 LINE",
"343 297 OFFCURVE",
"349 299 OFFCURVE",
"356 322 CURVE",
"361 345 OFFCURVE",
"359 354 OFFCURVE",
"327 353 CURVE",
"123 343 LINE",
"94 343 OFFCURVE",
"88 339 OFFCURVE",
"81 316 CURVE",
"76 293 OFFCURVE",
"78 285 OFFCURVE",
"110 285 CURVE"
);
}
);
width = 412;
}
);
unicode = 0046;
},
{
glyphname = G;
lastChange = "2015-09-22 13:37:22 +0000";
layers = (
{
anchors = (
{
name = bottom;
position = "{205, 0}";
},
{
name = top;
position = "{290, 670}";
}
);
background = {
paths = (
{
closed = 1;
nodes = (
"396 170 CURVE",
"416 160 OFFCURVE",
"423 152 OFFCURVE",
"415 136 CURVE SMOOTH",
"370 54 OFFCURVE",
"304 -5 OFFCURVE",
"208 -7 CURVE",
"85 -7 OFFCURVE",
"39 95 OFFCURVE",
"35 234 CURVE",
"31 429 OFFCURVE",
"111 675 OFFCURVE",
"301 679 CURVE",
"381 678 OFFCURVE",
"433 631 OFFCURVE",
"449 549 CURVE SMOOTH",
"454 528 OFFCURVE",
"451 523 OFFCURVE",
"426 516 CURVE",
"403 508 OFFCURVE",
"392 510 OFFCURVE",
"388 530 CURVE SMOOTH",
"376 588 OFFCURVE",
"349 619 OFFCURVE",
"294 618 CURVE",
"150 615 OFFCURVE",
"95 368 OFFCURVE",
"97 254 CURVE",
"99 139 OFFCURVE",
"132 53 OFFCURVE",
"215 54 CURVE",
"278 55 OFFCURVE",
"326 104 OFFCURVE",
"358 164 CURVE SMOOTH",
"368 182 OFFCURVE",
"379 181 OFFCURVE"
);
}
);
};
layerId = "70F97C4B-94FA-40A4-8E29-E667CA674F9A";
name = Regular;
paths = (
{
closed = 1;
nodes = (
"284 315 LINE",
"255 315 OFFCURVE",
"249 311 OFFCURVE",
"242 288 CURVE",
"236 262 OFFCURVE",
"237 256 OFFCURVE",
"269 257 CURVE",
"379 264 LINE",
"363 151 OFFCURVE",
"310 56 OFFCURVE",
"215 54 CURVE SMOOTH",
"132 52 OFFCURVE",
"99 139 OFFCURVE",
"97 254 CURVE SMOOTH",
"95 368 OFFCURVE",
"150 615 OFFCURVE",
"294 618 CURVE SMOOTH",
"349 619 OFFCURVE",
"376 588 OFFCURVE",
"388 530 CURVE SMOOTH",
"392 510 OFFCURVE",
"403 508 OFFCURVE",
"426 516 CURVE",
"451 523 OFFCURVE",
"454 528 OFFCURVE",
"449 549 CURVE",
"433 631 OFFCURVE",
"381 678 OFFCURVE",
"301 679 CURVE SMOOTH",
"111 675 OFFCURVE",
"31 429 OFFCURVE",
"35 234 CURVE SMOOTH",
"39 95 OFFCURVE",
"85 -7 OFFCURVE",
"208 -7 CURVE SMOOTH",
"361 -4 OFFCURVE",
"425 132 OFFCURVE",
"447 292 CURVE",
"449 315 OFFCURVE",
"445 325 OFFCURVE",
"413 323 CURVE SMOOTH"
);
}
);
width = 486;
}
);
unicode = 0047;
},
{
glyphname = H;
lastChange = "2015-09-23 14:29:44 +0000";
layers = (
{
anchors = (
{
name = bottom;
position = "{202, 0}";
},
{
name = top;
position = "{286, 670}";
}
);
background = {
paths = (
{
closed = 1;
nodes = (
"-405 30 LINE",
"-407 2 OFFCURVE",
"-416 0 OFFCURVE",
"-431 -4 CURVE",
"-465 -12 OFFCURVE",
"-472 -10 OFFCURVE",
"-469 13 CURVE",
"-395 672 LINE",
"-392 700 OFFCURVE",
"-386 703 OFFCURVE",
"-371 707 CURVE",
"-336 714 OFFCURVE",
"-329 713 OFFCURVE",
"-331 690 CURVE"
);
},
{
closed = 1;
nodes = (
"-115 30 LINE",
"-117 2 OFFCURVE",
"-126 0 OFFCURVE",
"-141 -4 CURVE",
"-175 -12 OFFCURVE",
"-182 -10 OFFCURVE",
"-179 13 CURVE",
"-105 672 LINE",
"-102 700 OFFCURVE",
"-96 703 OFFCURVE",
"-81 707 CURVE",
"-46 714 OFFCURVE",
"-39 713 OFFCURVE",
"-41 690 CURVE"
);
},
{
closed = 1;
nodes = (
"-106 401 OFFCURVE",
"-112 405 OFFCURVE",
"-141 400 CURVE SMOOTH",
"-390 357 LINE",
"-353 305 LINE SMOOTH",
"-127 344 LINE SMOOTH",
"-96 349 OFFCURVE",
"-86 357 OFFCURVE",
"-96 379 CURVE"
);
},
{
closed = 1;
nodes = (
"-33 345 OFFCURVE",
"-43 336 OFFCURVE",
"-75 333 CURVE SMOOTH",
"-393 305 LINE SMOOTH",
"-386 367 LINE",
"-85 391 LINE SMOOTH",
"-56 393 OFFCURVE",
"-50 390 OFFCURVE",
"-41 368 CURVE"
);
},
{
closed = 1;
nodes = (
"95 30 LINE",
"93 2 OFFCURVE",
"84 0 OFFCURVE",
"69 -4 CURVE",
"37 -12 OFFCURVE",
"30 -10 OFFCURVE",
"33 13 CURVE",
"107 672 LINE",
"110 700 OFFCURVE",
"116 703 OFFCURVE",
"131 707 CURVE",
"166 714 OFFCURVE",
"171 713 OFFCURVE",
"169 690 CURVE"
);
},
{
closed = 1;
nodes = (
"395 30 LINE",
"393 2 OFFCURVE",
"384 0 OFFCURVE",
"369 -4 CURVE",
"337 -12 OFFCURVE",
"330 -10 OFFCURVE",
"333 13 CURVE",
"407 672 LINE",
"410 700 OFFCURVE",
"416 703 OFFCURVE",
"431 707 CURVE",
"466 714 OFFCURVE",
"471 713 OFFCURVE",
"469 690 CURVE"
);
},
{
closed = 1;
nodes = (
"80 321 OFFCURVE",
"78 329 OFFCURVE",
"82 352 CURVE",
"89 375 OFFCURVE",
"95 379 OFFCURVE",
"124 380 CURVE",
"438 385 LINE",
"470 386 OFFCURVE",
"472 378 OFFCURVE",
"467 355 CURVE",
"461 332 OFFCURVE",
"455 328 OFFCURVE",
"426 327 CURVE",
"112 322 LINE"
);
}
);
};
components = (
{
name = I;
transform = "{1, 0, 0, 1, 0, 0}";
},
{
name = I;
transform = "{1, 0, 0, 1, 290, 0}";
}
);
guideLines = (
{
position = "{255, 649}";
}
);
layerId = "70F97C4B-94FA-40A4-8E29-E667CA674F9A";
name = Regular;
paths = (
{
closed = 1;
nodes = (
"80 306 OFFCURVE",
"78 314 OFFCURVE",
"82 337 CURVE",
"89 360 OFFCURVE",
"95 364 OFFCURVE",
"124 365 CURVE",
"438 370 LINE",
"470 371 OFFCURVE",
"472 363 OFFCURVE",
"467 340 CURVE",
"461 317 OFFCURVE",
"455 313 OFFCURVE",
"426 312 CURVE",
"112 307 LINE"
);
}
);
width = 500;
}
);
unicode = 0048;
},
{
glyphname = I;
lastChange = "2015-09-22 08:53:38 +0000";
layers = (
{
anchors = (
{
name = bottom;
position = "{55, 0}";
},
{
name = top;
position = "{135, 670}";
}
);
background = {
paths = (
{
closed = 1;
nodes = (
"95 30 LINE",
"93 2 OFFCURVE",
"84 0 OFFCURVE",
"69 -4 CURVE",
"35 -12 OFFCURVE",
"28 -10 OFFCURVE",
"31 13 CURVE",
"105 672 LINE",
"108 700 OFFCURVE",
"114 703 OFFCURVE",
"129 707 CURVE",
"164 714 OFFCURVE",
"171 713 OFFCURVE",
"169 690 CURVE"
);
}
);
};
layerId = "70F97C4B-94FA-40A4-8E29-E667CA674F9A";
name = Regular;
paths = (
{
closed = 1;
nodes = (
"95 30 LINE",
"93 2 OFFCURVE",
"84 0 OFFCURVE",
"69 -4 CURVE",
"37 -12 OFFCURVE",
"30 -10 OFFCURVE",
"33 13 CURVE",
"103 633 LINE",
"106 661 OFFCURVE",
"112 664 OFFCURVE",
"127 668 CURVE",
"161 675 OFFCURVE",
"166 674 OFFCURVE",
"164 651 CURVE"
);
}
);
width = 199;
}
);
unicode = 0049;
},
{
glyphname = J;
lastChange = "2015-09-22 08:53:38 +0000";
layers = (
{
anchors = (
{
name = top;
position = "{135, 670}";
}
);
background = {
paths = (
{
closed = 1;
nodes = (
"125 299 LINE",
"95 30 LINE",
"93 2 OFFCURVE",
"84 0 OFFCURVE",
"69 -4 CURVE",
"37 -12 OFFCURVE",
"30 -10 OFFCURVE",
"33 13 CURVE",
"65 298 LINE",
"103 633 LINE",
"106 661 OFFCURVE",
"112 664 OFFCURVE",
"127 668 CURVE",
"161 675 OFFCURVE",
"166 674 OFFCURVE",
"164 651 CURVE"
);
},
{
closed = 1;
nodes = (
"43 112 OFFCURVE",
"33 -129 OFFCURVE",
"-91 -129 CURVE",
"-121 -129 OFFCURVE",
"-147 -115 OFFCURVE",
"-165 -94 CURVE",
"-204 -139 LINE",
"-179 -167 OFFCURVE",
"-148 -189 OFFCURVE",
"-99 -190 CURVE",
"83 -190 OFFCURVE",
"99 62 OFFCURVE",
"120 250 CURVE",
"164 651 LINE",
"166 674 OFFCURVE",
"161 675 OFFCURVE",
"127 668 CURVE",
"112 664 OFFCURVE",
"106 661 OFFCURVE",
"103 633 CURVE",
"60 240 LINE"
);
}
);
};
layerId = "70F97C4B-94FA-40A4-8E29-E667CA674F9A";
name = Regular;
paths = (
{
closed = 1;
nodes = (
"44 112 OFFCURVE",
"33 -129 OFFCURVE",
"-91 -129 CURVE",
"-113 -129 OFFCURVE",
"-133 -120 OFFCURVE",
"-150 -108 CURVE SMOOTH",
"-161 -100 OFFCURVE",
"-168 -98 OFFCURVE",
"-184 -116 CURVE",
"-199 -134 OFFCURVE",
"-204 -141 OFFCURVE",
"-190 -154 CURVE SMOOTH",
"-167 -175 OFFCURVE",
"-139 -189 OFFCURVE",
"-99 -190 CURVE",
"83 -190 OFFCURVE",
"99 62 OFFCURVE",
"120 250 CURVE",
"164 651 LINE",
"166 674 OFFCURVE",
"161 675 OFFCURVE",
"127 668 CURVE",
"112 664 OFFCURVE",
"106 661 OFFCURVE",
"103 633 CURVE",
"61 240 LINE"
);
}
);
width = 199;
}
);
unicode = 004A;
},
{
glyphname = K;
lastChange = "2015-09-22 13:55:01 +0000";
layers = (
{
anchors = (
{
name = bottom;
position = "{219, 20}";
}
);
background = {
paths = (
{
closed = 1;
nodes = (
"95 30 LINE",
"93 2 OFFCURVE",
"84 0 OFFCURVE",
"69 -4 CURVE",
"37 -12 OFFCURVE",
"30 -10 OFFCURVE",
"33 13 CURVE",
"103 633 LINE",
"106 661 OFFCURVE",
"112 664 OFFCURVE",
"127 668 CURVE",
"161 675 OFFCURVE",
"166 674 OFFCURVE",
"164 651 CURVE"
);
},
{
closed = 1;
nodes = (
"419 671 LINE",
"473 648 LINE",
"99 232 LINE",
"102 324 LINE"
);
},
{
closed = 1;
nodes = (
"437 13 LINE",
"377 -8 LINE",
"173 360 LINE",
"221 402 LINE"
);
},
{
closed = 1;
nodes = (
"423 35 LINE",
"435 13 LINE",
"406 2 LINE",
"377 -8 LINE",
"365 15 LINE",
"173 360 LINE",
"219 402 LINE"
);
}
);
};
layerId = "70F97C4B-94FA-40A4-8E29-E667CA674F9A";
name = Regular;
paths = (
{
closed = 1;
nodes = (
"95 30 LINE",
"93 2 OFFCURVE",
"84 0 OFFCURVE",
"69 -4 CURVE",
"37 -12 OFFCURVE",
"30 -10 OFFCURVE",
"33 13 CURVE",
"103 633 LINE",
"106 661 OFFCURVE",
"112 664 OFFCURVE",
"127 668 CURVE",
"161 675 OFFCURVE",
"166 674 OFFCURVE",
"164 651 CURVE"
);
},
{
closed = 1;
nodes = (
"401 657 LINE",
"416 674 OFFCURVE",
"422 674 OFFCURVE",
"448 663 CURVE",
"468 654 OFFCURVE",
"469 646 OFFCURVE",
"455 631 CURVE",
"216 367 LINE",
"199 355 LINE",
"99 241 LINE",
"100 325 LINE"
);
},
{
closed = 1;
nodes = (
"423 35 LINE",
"434 15 OFFCURVE",
"432 12 OFFCURVE",
"406 2 CURVE",
"380 -6 OFFCURVE",
"374 -7 OFFCURVE",
"362 15 CURVE",
"172 360 LINE",
"219 404 LINE"
);
}
);
width = 473;
}
);
unicode = 004B;
},
{
glyphname = L;
lastChange = "2015-09-22 11:31:54 +0000";
layers = (
{
anchors = (
{
name = bottom;
position = "{200, 0}";
},
{
name = top;
position = "{134, 670}";
}
);
background = {
paths = (
{
closed = 1;
nodes = (
"98 60 LINE",
"167 690 LINE SMOOTH",
"170 713 OFFCURVE",
"162 714 OFFCURVE",
"127 707 CURVE",
"112 703 OFFCURVE",
"106 700 OFFCURVE",
"103 672 CURVE SMOOTH",
"31 20 LINE SMOOTH",
"29 4 OFFCURVE",
"34 -2 OFFCURVE",
"47 -1 CURVE",
"329 0 LINE",
"358 0 OFFCURVE",
"364 4 OFFCURVE",
"371 27 CURVE",
"376 50 OFFCURVE",
"374 58 OFFCURVE",
"342 58 CURVE"
);
}
);
};
layerId = "70F97C4B-94FA-40A4-8E29-E667CA674F9A";
name = Regular;
paths = (
{
closed = 1;
nodes = (
"98 50 LINE",
"163 651 LINE SMOOTH",
"165 674 OFFCURVE",
"158 675 OFFCURVE",
"123 668 CURVE",
"108 664 OFFCURVE",
"102 661 OFFCURVE",
"99 633 CURVE SMOOTH",
"34 35 LINE SMOOTH",
"32 15 OFFCURVE",
"54 -11 OFFCURVE",
"73 -10 CURVE",
"332 0 LINE",
"361 1 OFFCURVE",
"364 4 OFFCURVE",
"371 27 CURVE",
"376 58 OFFCURVE",
"374 60 OFFCURVE",
"342 59 CURVE"
);
}
);
width = 403;
}
);
unicode = 004C;
},
{
glyphname = M;
lastChange = "2015-09-22 08:53:38 +0000";
layers = (
{
anchors = (
{
name = bottom;
position = "{267, 0}";
}
);
background = {
paths = (
{
closed = 1;
nodes = (
"446 666 OFFCURVE",
"440 663 OFFCURVE",
"437 635 CURVE SMOOTH",
"372 113 LINE",
"353 182 LINE",
"170 656 LINE",
"162 676 OFFCURVE",
"152 674 OFFCURVE",
"132 667 CURVE SMOOTH",
"116 661 OFFCURVE",
"104 658 OFFCURVE",
"101 632 CURVE SMOOTH",
"31 13 LINE SMOOTH",
"29 -9 OFFCURVE",
"32 -12 OFFCURVE",
"66 -4 CURVE SMOOTH",
"84 0 OFFCURVE",
"90 3 OFFCURVE",
"93 30 CURVE",
"151 550 LINE",
"170 488 LINE",
"356 8 LINE SMOOTH",
"363 -9 OFFCURVE",
"370 -11 OFFCURVE",
"398 -4 CURVE SMOOTH",
"413 0 OFFCURVE",
"421 2 OFFCURVE",
"423 30 CURVE",
"498 653 LINE SMOOTH",
"501 676 OFFCURVE",
"493 677 OFFCURVE",
"461 670 CURVE"
);
},
{
closed = 1;
nodes = (
"537 667 OFFCURVE",
"533 665 OFFCURVE",
"527 656 CURVE",
"301.311 315.467 LINE",
"170 656 LINE SMOOTH",
"162 676 OFFCURVE",
"152 674 OFFCURVE",
"132 667 CURVE SMOOTH",
"116 661 OFFCURVE",
"104 658 OFFCURVE",
"101 632 CURVE SMOOTH",
"31 13 LINE SMOOTH",
"29 -9 OFFCURVE",
"32 -12 OFFCURVE",
"66 -4 CURVE SMOOTH",
"84 0 OFFCURVE",
"90 3 OFFCURVE",
"93 30 CURVE SMOOTH",
"151 550 LINE",
"170 488 LINE",
"268 236 LINE",
"320 241 LINE",
"480 481 LINE",
"511 532 LINE",
"453 13 LINE SMOOTH",
"450 -10 OFFCURVE",
"457 -12 OFFCURVE",
"489 -4 CURVE SMOOTH",
"504 0 OFFCURVE",
"513 2 OFFCURVE",
"515 30 CURVE",
"584 653 LINE SMOOTH",
"587 676 OFFCURVE",
"581 677 OFFCURVE",
"547 670 CURVE"
);
}
);
};
layerId = "70F97C4B-94FA-40A4-8E29-E667CA674F9A";
name = Regular;
paths = (
{
closed = 1;
nodes = (
"536 674 OFFCURVE",
"531 671 OFFCURVE",
"522 658 CURVE",
"302 315 LINE",
"170 656 LINE SMOOTH",
"162 676 OFFCURVE",
"152 674 OFFCURVE",
"132 667 CURVE SMOOTH",
"116 661 OFFCURVE",
"104 658 OFFCURVE",
"101 632 CURVE SMOOTH",
"31 12.9999 LINE SMOOTH",
"29 -9 OFFCURVE",
"32 -12 OFFCURVE",
"66 -4 CURVE SMOOTH",
"84 0 OFFCURVE",
"90 2.9999 OFFCURVE",
"93 29.9999 CURVE SMOOTH",
"151 550 LINE",
"170 488 LINE",
"258 261 LINE",
"266 240 OFFCURVE",
"268 236 OFFCURVE",
"293 238 CURVE",
"319 240 OFFCURVE",
"321 242 OFFCURVE",
"336 265 CURVE",
"484 495 LINE",
"515 550 LINE",
"453 13 LINE SMOOTH",
"450 -10 OFFCURVE",
"457 -12 OFFCURVE",
"489 -4 CURVE SMOOTH",
"504 0 OFFCURVE",
"513 2 OFFCURVE",
"515 30 CURVE",
"585 655 LINE SMOOTH",
"588 678 OFFCURVE",
"582 679 OFFCURVE",
"548 675 CURVE"
);
}
);
width = 616;
}
);
unicode = 004D;
},
{
glyphname = N;
lastChange = "2015-09-22 08:53:38 +0000";
layers = (
{
anchors = (
{
name = bottom;
position = "{219, 0}";
},
{
name = top;
position = "{304, 670}";
}
);
background = {
paths = (
{
closed = 1;
nodes = (
"595 30 LINE",
"593 2 OFFCURVE",
"584 0 OFFCURVE",
"569 -4 CURVE",
"535 -12 OFFCURVE",
"528 -10 OFFCURVE",
"531 13 CURVE",
"605 672 LINE",
"608 700 OFFCURVE",
"614 703 OFFCURVE",
"629 707 CURVE",
"664 714 OFFCURVE",
"671 713 OFFCURVE",
"669 690 CURVE"
);
},
{
closed = 1;
nodes = (
"925 30 LINE",
"923 2 OFFCURVE",
"914 0 OFFCURVE",
"899 -4 CURVE",
"865 -12 OFFCURVE",
"858 -10 OFFCURVE",
"861 13 CURVE",
"935 672 LINE",
"938 700 OFFCURVE",
"944 703 OFFCURVE",
"959 707 CURVE",
"994 714 OFFCURVE",
"1001 713 OFFCURVE",
"999 690 CURVE"
);
},
{
closed = 1;
nodes = (
"906 51 LINE",
"917 26 OFFCURVE",
"910 20 OFFCURVE",
"898 9 CURVE",
"872 -13 OFFCURVE",
"865 -15 OFFCURVE",
"857 8 CURVE",
"625 651 LINE",
"614 677 OFFCURVE",
"618 683 OFFCURVE",
"630 693 CURVE",
"658 715 OFFCURVE",
"664 717 OFFCURVE",
"673 696 CURVE"
);
},
{
closed = 1;
nodes = (
"93 30 LINE",
"91 2 OFFCURVE",
"82 0 OFFCURVE",
"67 -4 CURVE",
"35 -12 OFFCURVE",
"28 -10 OFFCURVE",
"31 13 CURVE",
"101 633 LINE",
"104 661 OFFCURVE",
"110 664 OFFCURVE",
"125 668 CURVE",
"159 675 OFFCURVE",
"164 674 OFFCURVE",
"162 651 CURVE"
);
},
{
closed = 1;
nodes = (
"423 30 LINE",
"421 2 OFFCURVE",
"412 0 OFFCURVE",
"397 -4 CURVE",
"365 -12 OFFCURVE",
"358 -10 OFFCURVE",
"361 13 CURVE",
"431 633 LINE",
"434 661 OFFCURVE",
"440 664 OFFCURVE",
"455 668 CURVE",
"489 675 OFFCURVE",
"494 674 OFFCURVE",
"492 651 CURVE"
);
}
);
};
layerId = "70F97C4B-94FA-40A4-8E29-E667CA674F9A";
name = Regular;
paths = (
{
closed = 1;
nodes = (
"446 666 OFFCURVE",
"440 663 OFFCURVE",
"437 635 CURVE SMOOTH",
"372 113 LINE",
"353 182 LINE",
"170 656 LINE",
"162 676 OFFCURVE",
"152 674 OFFCURVE",
"132 667 CURVE SMOOTH",
"116 661 OFFCURVE",
"104 658 OFFCURVE",
"101 632 CURVE SMOOTH",
"31 13 LINE SMOOTH",
"29 -9 OFFCURVE",
"32 -12 OFFCURVE",
"66 -4 CURVE SMOOTH",
"84 0 OFFCURVE",
"90 3 OFFCURVE",
"93 30 CURVE",
"151 550 LINE",
"170 488 LINE",
"356 8 LINE SMOOTH",
"363 -9 OFFCURVE",
"370 -11 OFFCURVE",
"398 -4 CURVE SMOOTH",
"413 0 OFFCURVE",
"421 2 OFFCURVE",
"423 30 CURVE",
"498 653 LINE SMOOTH",
"501 676 OFFCURVE",
"493 677 OFFCURVE",
"461 670 CURVE"
);
}
);
width = 529;
}
);
unicode = 004E;
},
{
glyphname = O;
lastChange = "2015-09-22 08:53:38 +0000";
layers = (
{
anchors = (
{
name = bottom;
position = "{204, 0}";
},
{
name = top;
position = "{318, 670}";
}
);
background = {
paths = (
{
closed = 1;
nodes = (
"85 451 OFFCURVE",
"25 308 OFFCURVE",
"25 144 CURVE",
"26 63 OFFCURVE",
"66 -9 OFFCURVE",
"139 -10 CURVE",
"266 -10 OFFCURVE",
"326 133 OFFCURVE",
"326 297 CURVE",
"325 378 OFFCURVE",
"285 450 OFFCURVE",
"212 451 CURVE"
);
},
{
closed = 1;
nodes = (
"103 47 OFFCURVE",
"84 94 OFFCURVE",
"84 158 CURVE",
"84 230 OFFCURVE",
"109 392 OFFCURVE",
"207 392 CURVE",
"248 392 OFFCURVE",
"267 347 OFFCURVE",
"267 283 CURVE",
"267 211 OFFCURVE",
"242 47 OFFCURVE",
"144 47 CURVE"
);
},
{
closed = 1;
nodes = (
"81 -8 OFFCURVE",
"37 95 OFFCURVE",
"35 234 CURVE",
"35 429 OFFCURVE",
"119 674 OFFCURVE",
"319 674 CURVE",
"438 672 OFFCURVE",
"486 569 OFFCURVE",
"488 430 CURVE",
"488 235 OFFCURVE",
"404 -10 OFFCURVE",
"204 -10 CURVE"
);
},
{
closed = 1;
nodes = (
"157 611 OFFCURVE",
"100 367 OFFCURVE",
"100 253 CURVE",
"100 138 OFFCURVE",
"129 53 OFFCURVE",
"212 53 CURVE",
"366 53 OFFCURVE",
"423 307 OFFCURVE",
"423 411 CURVE",
"423 521 OFFCURVE",
"394 611 OFFCURVE",
"311 611 CURVE"
);
}
);
};
layerId = "70F97C4B-94FA-40A4-8E29-E667CA674F9A";
name = Regular;
paths = (
{
closed = 1;
nodes = (
"404 -10 OFFCURVE",
"488 235 OFFCURVE",
"488 430 CURVE",
"486 569 OFFCURVE",
"438 672 OFFCURVE",
"319 674 CURVE",
"119 674 OFFCURVE",
"35 429 OFFCURVE",
"35 234 CURVE",
"37 98 OFFCURVE",
"81 -8 OFFCURVE",
"204 -10 CURVE"
);
},
{
closed = 1;
nodes = (
"394 613 OFFCURVE",
"425 521 OFFCURVE",
"425 411 CURVE",
"425 307 OFFCURVE",
"366 51 OFFCURVE",
"212 51 CURVE",
"129 51 OFFCURVE",
"98 138 OFFCURVE",
"98 253 CURVE",
"98 367 OFFCURVE",
"157 613 OFFCURVE",
"311 613 CURVE"
);
}
);
width = 523;
}
);
unicode = 004F;
},
{
glyphname = P;
lastChange = "2015-09-22 08:53:38 +0000";
layers = (
{
background = {
paths = (
{
closed = 1;
nodes = (
"602 296 OFFCURVE",
"579 296 OFFCURVE",
"553 298 CURVE",
"565 362 LINE",
"586 360 OFFCURVE",
"605 359 OFFCURVE",
"619 359 CURVE",
"766 362 OFFCURVE",
"825 431 OFFCURVE",
"823 528 CURVE",
"821 603 OFFCURVE",
"766 653 OFFCURVE",
"678 652 CURVE",
"612 652 OFFCURVE",
"566 646 OFFCURVE",
"508 634 CURVE SMOOTH",
"489 630 OFFCURVE",
"481 642 OFFCURVE",
"481 663 CURVE",
"479 681 OFFCURVE",
"483 693 OFFCURVE",
"502 696 CURVE SMOOTH",
"561 705 OFFCURVE",
"592 713 OFFCURVE",
"674 713 CURVE",
"813 713 OFFCURVE",
"888 633 OFFCURVE",
"888 525 CURVE",
"888 401 OFFCURVE",
"803 299 OFFCURVE",
"618 296 CURVE"
);
},
{
closed = 1;
nodes = (
"558 30 LINE",
"556 2 OFFCURVE",
"547 0 OFFCURVE",
"532 -4 CURVE",
"498 -12 OFFCURVE",
"491 -10 OFFCURVE",
"494 13 CURVE",
"568 672 LINE",
"571 700 OFFCURVE",
"577 703 OFFCURVE",
"592 707 CURVE",
"627 714 OFFCURVE",
"634 713 OFFCURVE",
"632 690 CURVE"
);
},
{
closed = 1;
nodes = (
"172 298 OFFCURVE",
"149 298 OFFCURVE",
"123 300 CURVE",
"135 362 LINE",
"156 360 OFFCURVE",
"175 359 OFFCURVE",
"189 359 CURVE",
"336 362 OFFCURVE",
"395 431 OFFCURVE",
"393 528 CURVE",
"391 608 OFFCURVE",
"336 655 OFFCURVE",
"248 654 CURVE",
"182 654 OFFCURVE",
"136 648 OFFCURVE",
"78 636 CURVE SMOOTH",
"59 632 OFFCURVE",
"51 642 OFFCURVE",
"51 663 CURVE",
"49 681 OFFCURVE",
"53 693 OFFCURVE",
"72 696 CURVE SMOOTH",
"131 705 OFFCURVE",
"162 713 OFFCURVE",
"244 713 CURVE",
"383 713 OFFCURVE",
"456 630 OFFCURVE",
"456 525 CURVE",
"456 401 OFFCURVE",
"373 301 OFFCURVE",
"188 298 CURVE"
);
},
{
closed = 1;
nodes = (
"128 30 LINE",
"126 2 OFFCURVE",
"117 0 OFFCURVE",
"102 -4 CURVE",
"70 -12 OFFCURVE",
"63 -10 OFFCURVE",
"66 13 CURVE",
"140 672 LINE",
"143 700 OFFCURVE",
"149 703 OFFCURVE",
"164 707 CURVE",
"199 714 OFFCURVE",
"204 713 OFFCURVE",
"202 690 CURVE"
);
}
);
};
components = (
{
name = I;
transform = "{1, 0, 0, 1, 33, 0}";
}
);
layerId = "70F97C4B-94FA-40A4-8E29-E667CA674F9A";
name = Regular;
paths = (
{
closed = 1;
nodes = (
"172 260 OFFCURVE",
"149 260 OFFCURVE",
"123 262 CURVE",
"135 324 LINE",
"156 322 OFFCURVE",
"175 321 OFFCURVE",
"189 321 CURVE",
"336 324 OFFCURVE",
"395 393 OFFCURVE",
"393 490 CURVE",
"391 570 OFFCURVE",
"335 618 OFFCURVE",
"247 617 CURVE",
"181 617 OFFCURVE",
"136 612 OFFCURVE",
"78 600 CURVE SMOOTH",
"59 596 OFFCURVE",
"53 604 OFFCURVE",
"51 625 CURVE",
"49 643 OFFCURVE",
"53 654 OFFCURVE",
"72 658 CURVE SMOOTH",
"130 670 OFFCURVE",
"172 675 OFFCURVE",
"244 675 CURVE",
"383 675 OFFCURVE",
"456 595 OFFCURVE",
"456 487 CURVE",
"456 363 OFFCURVE",
"373 263 OFFCURVE",
"188 260 CURVE"
);
}
);
width = 463;
}
);
unicode = 0050;
},
{
glyphname = Q;
lastChange = "2015-09-22 08:53:38 +0000";
layers = (
{
background = {
paths = (
{
closed = 1;
nodes = (
"165 171 LINE",
"211 195 OFFCURVE",
"250 211 OFFCURVE",
"301 211 CURVE",
"398 211 OFFCURVE",
"467 104 OFFCURVE",
"516 31 CURVE",
"469 -7 LINE",
"411 82 OFFCURVE",
"365 150 OFFCURVE",
"298 150 CURVE",
"259 150 OFFCURVE",
"220 133 OFFCURVE",
"186 114 CURVE"
);
}
);
};
components = (
{
name = O;
transform = "{1, 0, 0, 1, 0, 0}";
}
);
layerId = "70F97C4B-94FA-40A4-8E29-E667CA674F9A";
name = Regular;
paths = (
{
closed = 1;
nodes = (
"187 115 OFFCURVE",
"210 126 CURVE SMOOTH",
"239 140 OFFCURVE",
"268 150 OFFCURVE",
"298 150 CURVE",
"359 150 OFFCURVE",
"402 93 OFFCURVE",
"455 15 CURVE SMOOTH",
"468 -4 OFFCURVE",
"476 -1 OFFCURVE",
"494 13 CURVE",
"513 29 OFFCURVE",
"515 37 OFFCURVE",
"505 52 CURVE SMOOTH",
"458 122 OFFCURVE",
"390 211 OFFCURVE",
"301 211 CURVE",
"259 211 OFFCURVE",
"224 200 OFFCURVE",
"189 183 CURVE SMOOTH",
"164 171 OFFCURVE",
"168 164 OFFCURVE",
"175 143 CURVE",
"183 122 OFFCURVE"
);
}
);
width = 523;
}
);
unicode = 0051;
},
{
glyphname = R;
lastChange = "2015-09-22 08:53:38 +0000";
layers = (
{
anchors = (
{
name = bottom;
position = "{250, 0}";
},
{
name = top;
position = "{250, 670}";
}
);
background = {
components = (
{
name = I;
transform = "{1, 0, 0, 1, 33, 0}";
}
);
paths = (
{
closed = 1;
nodes = (
"172 260 OFFCURVE",
"149 260 OFFCURVE",
"123 262 CURVE",
"135 324 LINE",
"156 322 OFFCURVE",
"175 321 OFFCURVE",
"189 321 CURVE",
"336 324 OFFCURVE",
"395 393 OFFCURVE",
"393 490 CURVE",
"391 570 OFFCURVE",
"335 618 OFFCURVE",
"247 617 CURVE",
"181 617 OFFCURVE",
"136 612 OFFCURVE",
"78 600 CURVE SMOOTH",
"59 596 OFFCURVE",
"53 604 OFFCURVE",
"51 625 CURVE",
"49 643 OFFCURVE",
"53 654 OFFCURVE",
"72 658 CURVE SMOOTH",
"130 670 OFFCURVE",
"172 675 OFFCURVE",
"244 675 CURVE",
"383 675 OFFCURVE",
"456 595 OFFCURVE",
"456 487 CURVE",
"456 363 OFFCURVE",
"373 263 OFFCURVE",
"188 260 CURVE"
);
}
);
};
components = (
{
name = I;
transform = "{1, 0, 0, 1, 33, 0}";
}
);
layerId = "70F97C4B-94FA-40A4-8E29-E667CA674F9A";
name = Regular;
paths = (
{
closed = 1;
nodes = (
"172 282 OFFCURVE",
"149 282 OFFCURVE",
"123 284 CURVE",
"135 344 LINE",
"156 342 OFFCURVE",
"173 341 OFFCURVE",
"189 341 CURVE",
"336 344 OFFCURVE",
"395 413 OFFCURVE",
"393 500 CURVE",
"391 575 OFFCURVE",
"335 618 OFFCURVE",
"247 617 CURVE",
"181 617 OFFCURVE",
"136 612 OFFCURVE",
"78 600 CURVE SMOOTH",
"59 596 OFFCURVE",
"53 604 OFFCURVE",
"51 625 CURVE",
"49 643 OFFCURVE",
"53 654 OFFCURVE",
"72 658 CURVE SMOOTH",
"130 670 OFFCURVE",
"172 675 OFFCURVE",
"244 675 CURVE",
"383 675 OFFCURVE",
"456 600 OFFCURVE",
"456 497 CURVE",
"456 383 OFFCURVE",
"373 285 OFFCURVE",
"188 282 CURVE"
);
},
{
closed = 1;
nodes = (
"291 328 LINE",
"444 33 LINE",
"455 13 OFFCURVE",
"456 10 OFFCURVE",
"430 -3 CURVE",
"404 -11 OFFCURVE",
"398 -12 OFFCURVE",
"386 10 CURVE",
"234 302 LINE"
);
}
);
width = 511;
}
);
unicode = 0052;
},
{
glyphname = S;
lastChange = "2015-09-22 12:34:33 +0000";
layers = (
{
anchors = (
{
name = bottom;
position = "{177, 0}";
},
{
name = top;
position = "{247, 670}";
}
);
background = {
paths = (
{
closed = 1;
nodes = (
"282 674 OFFCURVE",
"329 660 OFFCURVE",
"370 628 CURVE SMOOTH",
"386 616 OFFCURVE",
"384 608 OFFCURVE",
"370 589 CURVE",
"357 570 OFFCURVE",
"349 567 OFFCURVE",
"335 577 CURVE SMOOTH",
"302 598 OFFCURVE",
"274 613 OFFCURVE",
"230 613 CURVE SMOOTH",
"168 613 OFFCURVE",
"123 582 OFFCURVE",
"123 516 CURVE",
"123 445 OFFCURVE",
"170 415 OFFCURVE",
"221 374 CURVE SMOOTH",
"286 321 OFFCURVE",
"378 273 OFFCURVE",
"378 156 CURVE",
"378 61 OFFCURVE",
"311 -8 OFFCURVE",
"206 -8 CURVE",
"115 -8 OFFCURVE",
"56 28 OFFCURVE",
"1 93 CURVE SMOOTH",
"-10 106 OFFCURVE",
"-7 114 OFFCURVE",
"11 131 CURVE",
"29 148 OFFCURVE",
"37 149 OFFCURVE",
"48 137 CURVE SMOOTH",
"99 82 OFFCURVE",
"137 55 OFFCURVE",
"206 55 CURVE",
"270 55 OFFCURVE",
"314 93 OFFCURVE",
"314 161 CURVE",
"314 236 OFFCURVE",
"237 282 OFFCURVE",
"176 329 CURVE SMOOTH",
"120 373 OFFCURVE",
"58 420 OFFCURVE",
"58 518 CURVE",
"58 618 OFFCURVE",
"137 674 OFFCURVE",
"229 674 CURVE SMOOTH"
);
}
);
};
layerId = "70F97C4B-94FA-40A4-8E29-E667CA674F9A";
name = Regular;
paths = (
{
closed = 1;
nodes = (
"137 674 OFFCURVE",
"61 618 OFFCURVE",
"61 518 CURVE",
"61 422 OFFCURVE",
"136 371 OFFCURVE",
"198 317 CURVE SMOOTH",
"242 278 OFFCURVE",
"310 228 OFFCURVE",
"310 160 CURVE",
"310 88 OFFCURVE",
"260 54 OFFCURVE",
"196 54 CURVE",
"137 54 OFFCURVE",
"98 81 OFFCURVE",
"47 136 CURVE SMOOTH",
"36 148 OFFCURVE",
"28 147 OFFCURVE",
"11 131 CURVE",
"-7 114 OFFCURVE",
"-10 106 OFFCURVE",
"1 93 CURVE SMOOTH",
"56 30 OFFCURVE",
"115 -8 OFFCURVE",
"196 -8 CURVE",
"301 -8 OFFCURVE",
"372 57 OFFCURVE",
"372 162 CURVE",
"372 254 OFFCURVE",
"289 319 OFFCURVE",
"236 365 CURVE SMOOTH",
"183 411 OFFCURVE",
"123 451 OFFCURVE",
"123 516 CURVE",
"123 582 OFFCURVE",
"168 614 OFFCURVE",
"229 614 CURVE SMOOTH",
"274 614 OFFCURVE",
"302 600 OFFCURVE",
"334 579 CURVE SMOOTH",
"349 569 OFFCURVE",
"357 572 OFFCURVE",
"370 589 CURVE",
"384 608 OFFCURVE",
"386 616 OFFCURVE",
"370 628 CURVE SMOOTH",
"329 660 OFFCURVE",
"282 674 OFFCURVE",
"229 674 CURVE SMOOTH"
);
}
);
width = 411;
}
);
unicode = 0053;
},
{
glyphname = T;
lastChange = "2015-09-22 12:36:06 +0000";
layers = (
{
anchors = (
{
name = bottom;
position = "{168, 0}";
},
{
name = top;
position = "{246, 670}";
}
);
background = {
paths = (
{
closed = 1;
nodes = (
"209 30 LINE",
"207 2 OFFCURVE",
"198 0 OFFCURVE",
"183 -4 CURVE",
"149 -12 OFFCURVE",
"142 -10 OFFCURVE",
"145 13 CURVE",
"219 672 LINE",
"222 700 OFFCURVE",
"228 703 OFFCURVE",
"243 707 CURVE",
"278 714 OFFCURVE",
"285 713 OFFCURVE",
"283 690 CURVE"
);
},
{
closed = 1;
nodes = (
"27 653 OFFCURVE",
"25 661 OFFCURVE",
"30 684 CURVE",
"37 707 OFFCURVE",
"43 711 OFFCURVE",
"72 711 CURVE",
"436 711 LINE",
"468 711 OFFCURVE",
"470 703 OFFCURVE",
"465 680 CURVE",
"458 657 OFFCURVE",
"452 653 OFFCURVE",
"423 653 CURVE",
"59 653 LINE"
);
}
);
};
layerId = "70F97C4B-94FA-40A4-8E29-E667CA674F9A";
name = Regular;
paths = (
{
closed = 1;
nodes = (
"276 672 OFFCURVE",
"271 673 OFFCURVE",
"237 666 CURVE",
"222 662 OFFCURVE",
"216 659 OFFCURVE",
"213 631 CURVE",
"144 13 LINE",
"141 -10 OFFCURVE",
"148 -12 OFFCURVE",
"180 -4 CURVE",
"195 0 OFFCURVE",
"204 2 OFFCURVE",
"206 30 CURVE",
"274 649 LINE"
);
},
{
closed = 1;
nodes = (
"412 613 LINE",
"441 613 OFFCURVE",
"447 617 OFFCURVE",
"454 640 CURVE",
"459 663 OFFCURVE",
"457 671 OFFCURVE",
"425 671 CURVE",
"61 671 LINE",
"32 671 OFFCURVE",
"26 667 OFFCURVE",
"19 644 CURVE",
"14 621 OFFCURVE",
"16 613 OFFCURVE",
"48 613 CURVE"
);
}
);
width = 416;
}
);
unicode = 0054;
},
{
glyphname = U;
lastChange = "2015-09-22 08:53:38 +0000";
layers = (
{
anchors = (
{
name = bottom;
position = "{219, 0}";
},
{
name = top;
position = "{285, 670}";
}
);
background = {
paths = (
{
closed = 1;
nodes = (
"81 -8 OFFCURVE",
"37 98 OFFCURVE",
"35 234 CURVE",
"35 429 OFFCURVE",
"119 674 OFFCURVE",
"319 674 CURVE",
"438 672 OFFCURVE",
"486 569 OFFCURVE",
"488 430 CURVE",
"488 235 OFFCURVE",
"404 -10 OFFCURVE",
"204 -10 CURVE"
);
},
{
closed = 1;
nodes = (
"157 613 OFFCURVE",
"98 367 OFFCURVE",
"98 253 CURVE",
"98 138 OFFCURVE",
"129 51 OFFCURVE",
"212 51 CURVE",
"366 51 OFFCURVE",
"425 307 OFFCURVE",
"425 411 CURVE",
"425 521 OFFCURVE",
"394 613 OFFCURVE",
"311 613 CURVE"
);
}
);
};
layerId = "70F97C4B-94FA-40A4-8E29-E667CA674F9A";
name = Regular;
paths = (
{
closed = 1;
nodes = (
"375 292 OFFCURVE",
"360 51 OFFCURVE",
"216 51 CURVE",
"133 51 OFFCURVE",
"108 138 OFFCURVE",
"108 253 CURVE",
"108 386 OFFCURVE",
"127 518 OFFCURVE",
"141 651 CURVE",
"143 674 OFFCURVE",
"138 675 OFFCURVE",
"104 668 CURVE",
"89 664 OFFCURVE",
"83 661 OFFCURVE",
"80 633 CURVE",
"65 500 OFFCURVE",
"47 367 OFFCURVE",
"47 234 CURVE",
"49 108 OFFCURVE",
"85 -8 OFFCURVE",
"208 -10 CURVE",
"411 -10 OFFCURVE",
"432 242 OFFCURVE",
"452 430 CURVE",
"459 504 OFFCURVE",
"464 577 OFFCURVE",
"468 651 CURVE",
"470 674 OFFCURVE",
"462 675 OFFCURVE",
"428 668 CURVE",
"413 664 OFFCURVE",
"408 661 OFFCURVE",
"407 633 CURVE",
"401 539 OFFCURVE",
"399 479 OFFCURVE",
"391 420 CURVE"
);
}
);
width = 480;
}
);
unicode = 0055;
},
{
glyphname = V;
lastChange = "2015-09-22 08:53:38 +0000";
layers = (
{
background = {
paths = (
{
closed = 1;
nodes = (
"391 438 OFFCURVE",
"397 437 OFFCURVE",
"392 416 CURVE SMOOTH",
"358 299 OFFCURVE",
"338 229 OFFCURVE",
"307 151 CURVE SMOOTH",
"294 119 OFFCURVE",
"278 83 OFFCURVE",
"260 54 CURVE SMOOTH",
"238 19 OFFCURVE",
"210 -8 OFFCURVE",
"177 -8 CURVE",
"137 -8 OFFCURVE",
"118 59 OFFCURVE",
"105 142 CURVE SMOOTH",
"91 234 OFFCURVE",
"81 344 OFFCURVE",
"79 414 CURVE SMOOTH",
"77 437 OFFCURVE",
"81 438 OFFCURVE",
"107 445 CURVE",
"132 451 OFFCURVE",
"139 452 OFFCURVE",
"139 430 CURVE SMOOTH",
"142 342 OFFCURVE",
"151 203 OFFCURVE",
"167 119 CURVE SMOOTH",
"173 86 OFFCURVE",
"179 57 OFFCURVE",
"189 57 CURVE",
"202 57 OFFCURVE",
"218 91 OFFCURVE",
"230 118 CURVE SMOOTH",
"267 200 OFFCURVE",
"309 323 OFFCURVE",
"334 430 CURVE SMOOTH",
"337 447 OFFCURVE",
"349 447 OFFCURVE",
"368 443 CURVE"
);
},
{
closed = 1;
nodes = (
"476 665 OFFCURVE",
"482 664 OFFCURVE",
"477 643 CURVE SMOOTH",
"443 526 OFFCURVE",
"333 229 OFFCURVE",
"302 151 CURVE SMOOTH",
"289 119 OFFCURVE",
"273 83 OFFCURVE",
"255 54 CURVE SMOOTH",
"233 19 OFFCURVE",
"205 -8 OFFCURVE",
"172 -8 CURVE",
"132 -8 OFFCURVE",
"113 59 OFFCURVE",
"100 142 CURVE SMOOTH",
"86 234 OFFCURVE",
"60 569 OFFCURVE",
"55 639 CURVE SMOOTH",
"53 662 OFFCURVE",
"57 663 OFFCURVE",
"83 670 CURVE",
"108 676 OFFCURVE",
"113 677 OFFCURVE",
"115 655 CURVE SMOOTH",
"123 567 OFFCURVE",
"146 203 OFFCURVE",
"162 119 CURVE SMOOTH",
"168 86 OFFCURVE",
"174 57 OFFCURVE",
"184 57 CURVE",
"197 57 OFFCURVE",
"213 91 OFFCURVE",
"225 118 CURVE SMOOTH",
"262 200 OFFCURVE",
"394 550 OFFCURVE",
"419 657 CURVE SMOOTH",
"422 674 OFFCURVE",
"434 674 OFFCURVE",
"453 670 CURVE"
);
}
);
};
layerId = "70F97C4B-94FA-40A4-8E29-E667CA674F9A";
name = Regular;
paths = (
{
closed = 1;
nodes = (
"476 665 OFFCURVE",
"484 664 OFFCURVE",
"477 643 CURVE SMOOTH",
"436 526 OFFCURVE",
"329 229 OFFCURVE",
"298 151 CURVE SMOOTH",
"285 119 OFFCURVE",
"269 82 OFFCURVE",
"251 53 CURVE SMOOTH",
"229 18 OFFCURVE",
"205 -8 OFFCURVE",
"172 -8 CURVE",
"132 -8 OFFCURVE",
"119 59 OFFCURVE",
"106 142 CURVE SMOOTH",
"85 274 OFFCURVE",
"64 569 OFFCURVE",
"59 639 CURVE SMOOTH",
"57 662 OFFCURVE",
"61 663 OFFCURVE",
"83 670 CURVE",
"108 676 OFFCURVE",
"113 677 OFFCURVE",
"115 655 CURVE SMOOTH",
"121 567 OFFCURVE",
"132 365 OFFCURVE",
"165 119 CURVE SMOOTH",
"169 86 OFFCURVE",
"175 57 OFFCURVE",
"184 57 CURVE",
"197 57 OFFCURVE",
"213 91 OFFCURVE",
"225 118 CURVE SMOOTH",
"262 200 OFFCURVE",
"383 550 OFFCURVE",
"419 657 CURVE SMOOTH",
"425 674 OFFCURVE",
"434 674 OFFCURVE",
"453 670 CURVE"
);
}
);
width = 469;
}
);
unicode = 0056;
},
{
glyphname = W;
lastChange = "2015-09-22 08:53:38 +0000";
layers = (
{
anchors = (
{
name = top;
position = "{406, 640}";
}
);
background = {
paths = (
{
closed = 1;
nodes = (
"720 674 OFFCURVE",
"710 674 OFFCURVE",
"705 657 CURVE SMOOTH",
"674 550 OFFCURVE",
"577 200 OFFCURVE",
"540 118 CURVE SMOOTH",
"528 91 OFFCURVE",
"513 57 OFFCURVE",
"500 57 CURVE SMOOTH",
"489 57 OFFCURVE",
"482 92 OFFCURVE",
"474 162 CURVE SMOOTH",
"455 328 OFFCURVE",
"439 478 OFFCURVE",
"432 567 CURVE",
"367 575 LINE",
"330 465 OFFCURVE",
"239 199 OFFCURVE",
"202 118 CURVE SMOOTH",
"190 91 OFFCURVE",
"173 57 OFFCURVE",
"160 57 CURVE SMOOTH",
"151 57 OFFCURVE",
"144 86 OFFCURVE",
"141 119 CURVE SMOOTH",
"118 365 OFFCURVE",
"113 567 OFFCURVE",
"111 655 CURVE SMOOTH",
"110 677 OFFCURVE",
"104 676 OFFCURVE",
"79 670 CURVE",
"57 663 OFFCURVE",
"55 662 OFFCURVE",
"55 639 CURVE SMOOTH",
"56 569 OFFCURVE",
"67 274 OFFCURVE",
"82 142 CURVE SMOOTH",
"92 58 OFFCURVE",
"108 -8 OFFCURVE",
"148 -8 CURVE SMOOTH",
"181 -8 OFFCURVE",
"205 18 OFFCURVE",
"227 53 CURVE SMOOTH",
"245 82 OFFCURVE",
"261 119 OFFCURVE",
"274 151 CURVE SMOOTH",
"296 207 OFFCURVE",
"339 334 OFFCURVE",
"387 467 CURVE",
"396 350 OFFCURVE",
"412 220 OFFCURVE",
"424 132 CURVE SMOOTH",
"435 49 OFFCURVE",
"450 -8 OFFCURVE",
"490 -8 CURVE SMOOTH",
"523 -8 OFFCURVE",
"547 18 OFFCURVE",
"567 53 CURVE SMOOTH",
"624 156 OFFCURVE",
"711 468 OFFCURVE",
"763 643 CURVE SMOOTH",
"769 664 OFFCURVE",
"762 665 OFFCURVE",
"739 670 CURVE SMOOTH"
);
}
);
};
layerId = "70F97C4B-94FA-40A4-8E29-E667CA674F9A";
name = Regular;
paths = (
{
closed = 1;
nodes = (
"720 674 OFFCURVE",
"710 674 OFFCURVE",
"705 657 CURVE SMOOTH",
"674 550 OFFCURVE",
"577 200 OFFCURVE",
"540 118 CURVE SMOOTH",
"528 91 OFFCURVE",
"513 57 OFFCURVE",
"500 57 CURVE SMOOTH",
"493 57 OFFCURVE",
"488 69 OFFCURVE",
"485 89 CURVE SMOOTH",
"469 183 OFFCURVE",
"442 463 OFFCURVE",
"433 550 CURVE SMOOTH",
"432 564 OFFCURVE",
"426 568 OFFCURVE",
"399 571 CURVE",
"376 574 OFFCURVE",
"367 573 OFFCURVE",
"362 559 CURVE SMOOTH",
"321 443 OFFCURVE",
"237 195 OFFCURVE",
"202 118 CURVE SMOOTH",
"190 91 OFFCURVE",
"173 57 OFFCURVE",
"160 57 CURVE SMOOTH",
"151 57 OFFCURVE",
"144 86 OFFCURVE",
"141 119 CURVE SMOOTH",
"118 365 OFFCURVE",
"113 567 OFFCURVE",
"111 655 CURVE SMOOTH",
"110 677 OFFCURVE",
"104 676 OFFCURVE",
"79 670 CURVE",
"57 663 OFFCURVE",
"55 662 OFFCURVE",
"55 639 CURVE SMOOTH",
"56 569 OFFCURVE",
"67 274 OFFCURVE",
"82 142 CURVE SMOOTH",
"92 58 OFFCURVE",
"108 -8 OFFCURVE",
"148 -8 CURVE SMOOTH",
"181 -8 OFFCURVE",
"205 18 OFFCURVE",
"227 53 CURVE SMOOTH",
"245 82 OFFCURVE",
"261 119 OFFCURVE",
"274 151 CURVE SMOOTH",
"296 207 OFFCURVE",
"339 334 OFFCURVE",
"387 467 CURVE",
"396 350 OFFCURVE",
"412 220 OFFCURVE",
"424 132 CURVE SMOOTH",
"435 49 OFFCURVE",
"450 -8 OFFCURVE",
"490 -8 CURVE SMOOTH",
"523 -8 OFFCURVE",
"547 18 OFFCURVE",
"567 53 CURVE SMOOTH",
"624 156 OFFCURVE",
"711 468 OFFCURVE",
"763 643 CURVE SMOOTH",
"769 664 OFFCURVE",
"762 665 OFFCURVE",
"739 670 CURVE SMOOTH"
);
}
);
width = 755;
}
);
unicode = 0057;
},
{
glyphname = X;
lastChange = "2015-09-22 08:53:38 +0000";
layers = (
{
background = {
paths = (
{
closed = 1;
nodes = (
"-7 12 OFFCURVE",
"1 5 OFFCURVE",
"19 -2 CURVE",
"39 -10 OFFCURVE",
"48 -7 OFFCURVE",
"57 9 CURVE SMOOTH",
"201 263 OFFCURVE",
"334 434 OFFCURVE",
"492 625 CURVE SMOOTH",
"507 643 OFFCURVE",
"503 646 OFFCURVE",
"487 660 CURVE",
"471 672 OFFCURVE",
"462 680 OFFCURVE",
"445 659 CURVE SMOOTH",
"289 464 OFFCURVE",
"150 286 OFFCURVE",
"5 33 CURVE SMOOTH"
);
},
{
closed = 1;
nodes = (
"112 677 OFFCURVE",
"104 678 OFFCURVE",
"85 670 CURVE",
"63 660 OFFCURVE",
"61 653 OFFCURVE",
"68 638 CURVE",
"377 11 LINE",
"384 -5 OFFCURVE",
"392 -8 OFFCURVE",
"413 2 CURVE",
"434 12 OFFCURVE",
"435 20 OFFCURVE",
"428 34 CURVE",
"119 663 LINE"
);
}
);
};
layerId = "70F97C4B-94FA-40A4-8E29-E667CA674F9A";
name = Regular;
paths = (
{
closed = 1;
nodes = (
"-9 12 OFFCURVE",
"1 5 OFFCURVE",
"19 -2 CURVE",
"39 -10 OFFCURVE",
"48 -7 OFFCURVE",
"57 9 CURVE SMOOTH",
"122 123 OFFCURVE",
"185 223 OFFCURVE",
"248 313 CURVE",
"265 332 LINE",
"340 436 OFFCURVE",
"416 528 OFFCURVE",
"499 629 CURVE SMOOTH",
"514 647 OFFCURVE",
"510 650 OFFCURVE",
"494 664 CURVE",
"478 676 OFFCURVE",
"467 684 OFFCURVE",
"450 663 CURVE SMOOTH",
"376 570 OFFCURVE",
"305 484 OFFCURVE",
"236 389 CURVE",
"219 370 LINE",
"146 269 OFFCURVE",
"76 160 OFFCURVE",
"3 33 CURVE SMOOTH"
);
},
{
closed = 1;
nodes = (
"114 679 OFFCURVE",
"106 680 OFFCURVE",
"87 672 CURVE",
"65 662 OFFCURVE",
"61 653 OFFCURVE",
"68 638 CURVE",
"377 11 LINE",
"384 -5 OFFCURVE",
"392 -8 OFFCURVE",
"413 2 CURVE",
"436 14 OFFCURVE",
"437 22 OFFCURVE",
"430 36 CURVE",
"121 665 LINE"
);
}
);
width = 503;
}
);
unicode = 0058;
},
{
glyphname = Y;
lastChange = "2015-09-22 08:53:38 +0000";
layers = (
{
anchors = (
{
name = bottom;
position = "{72, 0}";
},
{
name = top;
position = "{235, 670}";
}
);
background = {
paths = (
{
closed = 1;
nodes = (
"133 -14 LINE",
"159 38 OFFCURVE",
"363 506 OFFCURVE",
"423 643 CURVE SMOOTH",
"432 664 OFFCURVE",
"422 665 OFFCURVE",
"399 670 CURVE",
"380 674 OFFCURVE",
"372 674 OFFCURVE",
"365 657 CURVE SMOOTH",
"323 550 OFFCURVE",
"118 92 OFFCURVE",
"81 10 CURVE"
);
},
{
closed = 1;
nodes = (
"105 676 LINE",
"48 657 LINE",
"217 220 LINE",
"250 294 LINE"
);
}
);
};
layerId = "70F97C4B-94FA-40A4-8E29-E667CA674F9A";
name = Regular;
paths = (
{
closed = 1;
nodes = (
"105 -8 CURVE",
"126 -16 OFFCURVE",
"136 -8 OFFCURVE",
"141 3 CURVE SMOOTH",
"191 113 OFFCURVE",
"370 519 OFFCURVE",
"423 643 CURVE SMOOTH",
"432 664 OFFCURVE",
"422 665 OFFCURVE",
"399 670 CURVE",
"380 674 OFFCURVE",
"372 674 OFFCURVE",
"365 657 CURVE SMOOTH",
"326 557 OFFCURVE",
"140 145 OFFCURVE",
"87 24 CURVE SMOOTH",
"80 8 OFFCURVE",
"88 0 OFFCURVE"
);
},
{
closed = 1;
nodes = (
"112 657 LINE",
"107 670 OFFCURVE",
"100 674 OFFCURVE",
"77 667 CURVE",
"56 660 OFFCURVE",
"50 652 OFFCURVE",
"56 637 CURVE",
"217 220 LINE",
"250 289 LINE"
);
}
);
width = 426;
}
);
unicode = 0059;
},
{
glyphname = Z;
lastChange = "2015-09-22 08:53:38 +0000";
layers = (
{
anchors = (
{
name = bottom;
position = "{198, 0}";
},
{
name = top;
position = "{239, 670}";
}
);
background = {
paths = (
{
closed = 1;
nodes = (
"347 3 LINE",
"376 4 OFFCURVE",
"382 7 OFFCURVE",
"389 30 CURVE",
"394 53 OFFCURVE",
"390 62 OFFCURVE",
"360 61 CURVE",
"36 52 LINE",
"5 51 OFFCURVE",
"4 48 OFFCURVE",
"-3 25 CURVE",
"-8 -1 OFFCURVE",
"-6 -6 OFFCURVE",
"26 -6 CURVE"
);
},
{
closed = 1;
nodes = (
"387 613 LINE",
"416 614 OFFCURVE",
"422 617 OFFCURVE",
"429 640 CURVE",
"434 663 OFFCURVE",
"430 672 OFFCURVE",
"400 671 CURVE",
"96 662 LINE",
"65 661 OFFCURVE",
"64 658 OFFCURVE",
"57 635 CURVE",
"52 609 OFFCURVE",
"54 604 OFFCURVE",
"86 604 CURVE"
);
},
{
closed = 1;
nodes = (
"432 650 OFFCURVE",
"426 655 OFFCURVE",
"393 661 CURVE",
"359 640 LINE",
"0 31 LINE",
"-14 11 OFFCURVE",
"-9 6 OFFCURVE",
"26 0 CURVE",
"61 21 LINE",
"422 631 LINE"
);
}
);
};
layerId = "70F97C4B-94FA-40A4-8E29-E667CA674F9A";
name = Regular;
paths = (
{
closed = 1;
nodes = (
"80 53 LINE",
"360 61 LINE SMOOTH",
"390 62 OFFCURVE",
"394 53 OFFCURVE",
"389 30 CURVE",
"382 7 OFFCURVE",
"376 4 OFFCURVE",
"347 3 CURVE SMOOTH",
"44 -6 LINE",
"25 -7 OFFCURVE",
"3 19 OFFCURVE",
"5 39 CURVE",
"342 612 LINE",
"79 604 LINE",
"58 604 OFFCURVE",
"52 609 OFFCURVE",
"57 635 CURVE",
"62 658 OFFCURVE",
"69 662 OFFCURVE",
"87 662 CURVE SMOOTH",
"385 670 LINE",
"404 671 OFFCURVE",
"418 643 OFFCURVE",
"416 620 CURVE"
);
}
);
width = 431;
}
);
unicode = 005A;
},
{
glyphname = bracketleft;
lastChange = "2015-10-06 11:15:53 +0000";
layers = (
{
background = {
paths = (
{
closed = 1;
nodes = (
"126 -130 LINE",
"209 640 LINE SMOOTH",
"211 663 OFFCURVE",
"204 664 OFFCURVE",
"169 657 CURVE",
"154 653 OFFCURVE",
"148 650 OFFCURVE",
"145 622 CURVE SMOOTH",
"62 -145 LINE SMOOTH",
"59 -165 OFFCURVE",
"82 -191 OFFCURVE",
"101 -190 CURVE",
"207 -186 LINE",
"236 -185 OFFCURVE",
"242 -181 OFFCURVE",
"249 -158 CURVE",
"254 -131 OFFCURVE",
"251 -125 OFFCURVE",
"233 -126 CURVE"
);
},
{
closed = 1;
nodes = (
"399 839 LINE SMOOTH",
"367 838 OFFCURVE",
"362 824 OFFCURVE",
"358 796 CURVE",
"251 -140 LINE SMOOTH",
"249 -160 OFFCURVE",
"271 -186 OFFCURVE",
"290 -185 CURVE SMOOTH",
"396 -181 LINE SMOOTH",
"425 -180 OFFCURVE",
"431 -176 OFFCURVE",
"438 -153 CURVE",
"443 -126 OFFCURVE",
"440 -120 OFFCURVE",
"422 -121 CURVE SMOOTH",
"315 -125 LINE",
"418 782 LINE",
"700 790 LINE SMOOTH",
"729 791 OFFCURVE",
"735 794 OFFCURVE",
"742 817 CURVE",
"747 840 OFFCURVE",
"743 849 OFFCURVE",
"713 848 CURVE SMOOTH"
);
},
{
closed = 1;
nodes = (
"210 834 LINE SMOOTH",
"178 833 OFFCURVE",
"173 819 OFFCURVE",
"169 791 CURVE",
"62 -145 LINE SMOOTH",
"60 -165 OFFCURVE",
"82 -191 OFFCURVE",
"101 -190 CURVE SMOOTH",
"207 -186 LINE SMOOTH",
"236 -185 OFFCURVE",
"242 -181 OFFCURVE",
"249 -158 CURVE",
"254 -131 OFFCURVE",
"251 -125 OFFCURVE",
"233 -126 CURVE SMOOTH",
"126 -130 LINE",
"229 777 LINE",
"511 785 LINE SMOOTH",
"540 786 OFFCURVE",
"546 789 OFFCURVE",
"553 812 CURVE",
"558 835 OFFCURVE",
"554 844 OFFCURVE",
"524 843 CURVE SMOOTH"
);
}
);
};
layerId = "70F97C4B-94FA-40A4-8E29-E667CA674F9A";
name = Regular;
paths = (
{
closed = 1;
nodes = (
"347 783 OFFCURVE",
"355 785 OFFCURVE",
"360 808 CURVE",
"365 835 OFFCURVE",
"362 838 OFFCURVE",
"344 837 CURVE",
"217 834 LINE SMOOTH",
"185 833 OFFCURVE",
"180 819 OFFCURVE",
"176 791 CURVE",
"65 -145 LINE SMOOTH",
"63 -165 OFFCURVE",
"85 -191 OFFCURVE",
"104 -190 CURVE SMOOTH",
"207 -186 LINE SMOOTH",
"236 -185 OFFCURVE",
"244 -181 OFFCURVE",
"249 -158 CURVE",
"254 -134 OFFCURVE",
"251 -128 OFFCURVE",
"233 -129 CURVE SMOOTH",
"126 -133 LINE",
"233 780 LINE",
"318 782 LINE"
);
}
);
width = 281;
}
);
unicode = 005B;
},
{
glyphname = bracketright;
lastChange = "2015-10-06 11:15:53 +0000";
layers = (
{
layerId = "70F97C4B-94FA-40A4-8E29-E667CA674F9A";
name = Regular;
paths = (
{
closed = 1;
nodes = (
"-66 -130 OFFCURVE",
"-70 -132 OFFCURVE",
"-75 -156 CURVE",
"-80 -183 OFFCURVE",
"-77 -186 OFFCURVE",
"-59 -185 CURVE",
"68 -182 LINE SMOOTH",
"100 -181 OFFCURVE",
"105 -167 OFFCURVE",
"109 -139 CURVE",
"220 797 LINE SMOOTH",
"222 817 OFFCURVE",
"200 843 OFFCURVE",
"181 842 CURVE SMOOTH",
"78 838 LINE SMOOTH",
"49 837 OFFCURVE",
"41 833 OFFCURVE",
"36 810 CURVE",
"31 787 OFFCURVE",
"34 781 OFFCURVE",
"52 782 CURVE SMOOTH",
"159 786 LINE",
"52 -127 LINE",
"-37 -129 LINE"
);
}
);
width = 240;
}
);
unicode = 005D;
},
{
glyphname = asciicircum;
lastChange = "2015-10-06 11:15:53 +0000";
layers = (
{
background = {
paths = (
{
closed = 1;
nodes = (
"354 639 OFFCURVE",
"362 637 OFFCURVE",
"370 628 CURVE",
"455 545 LINE",
"469 532 OFFCURVE",
"466 526 OFFCURVE",
"456 515 CURVE",
"444 501 OFFCURVE",
"437 500 OFFCURVE",
"425 510 CURVE",
"356 574 LINE",
"287 510 LINE",
"275 500 OFFCURVE",
"268 501 OFFCURVE",
"256 515 CURVE",
"246 526 OFFCURVE",
"243 532 OFFCURVE",
"257 545 CURVE",
"345 631 LINE"
);
}
);
};
layerId = "70F97C4B-94FA-40A4-8E29-E667CA674F9A";
name = Regular;
paths = (
{
closed = 1;
nodes = (
"222 560 OFFCURVE",
"235 559 OFFCURVE",
"245 548 CURVE",
"397 354 LINE",
"408 341 OFFCURVE",
"404 334 OFFCURVE",
"389 321 CURVE",
"377 310 OFFCURVE",
"365 304 OFFCURVE",
"355 316 CURVE",
"225 481 LINE",
"77 316 LINE",
"67 304 OFFCURVE",
"55 310 OFFCURVE",
"43 321 CURVE",
"28 334 OFFCURVE",
"26 340 OFFCURVE",
"37 353 CURVE",
"211 548 LINE"
);
}
);
width = 412;
}
);
unicode = 005E;
},
{
glyphname = grave;
lastChange = "2015-09-15 19:09:08 +0000";
layers = (
{
anchors = (
{
name = _top;
position = "{101, 447}";
}
);
layerId = "70F97C4B-94FA-40A4-8E29-E667CA674F9A";
name = Regular;
paths = (
{
closed = 1;
nodes = (
"198 548 OFFCURVE",
"190 550 CURVE SMOOTH",
"122 563 OFFCURVE",
"83 582 OFFCURVE",
"46 621 CURVE SMOOTH",
"35 632 OFFCURVE",
"29 630 OFFCURVE",
"17 612 CURVE",
"2 589 OFFCURVE",
"0 584 OFFCURVE",
"11 573 CURVE SMOOTH",
"47 537 OFFCURVE",
"107 506 OFFCURVE",
"166 503 CURVE SMOOTH",
"185 502 OFFCURVE",
"187 510 OFFCURVE",
"195 525 CURVE",
"205 546 OFFCURVE"
);
}
);
width = 200;
}
);
unicode = 0060;
},
{
glyphname = grave.cap;
lastChange = "2015-09-17 14:55:59 +0000";
layers = (
{
anchors = (
{
name = _top;
position = "{90, 670}";
}
);
layerId = "70F97C4B-94FA-40A4-8E29-E667CA674F9A";
name = Regular;
paths = (
{
closed = 1;
nodes = (
"193 769 OFFCURVE",
"185 770 CURVE SMOOTH",
"117 779 OFFCURVE",
"79 795 OFFCURVE",
"42 824 CURVE SMOOTH",
"30 834 OFFCURVE",
"25 833 OFFCURVE",
"13 815 CURVE",
"-2 792 OFFCURVE",
"-6 785 OFFCURVE",
"7 776 CURVE SMOOTH",
"43 750 OFFCURVE",
"112 726 OFFCURVE",
"162 726 CURVE SMOOTH",
"181 726 OFFCURVE",
"183 733 OFFCURVE",
"191 748 CURVE",
"200 766 OFFCURVE"
);
}
);
width = 196;
}
);
},
{
glyphname = a;
lastChange = "2015-10-06 06:56:49 +0000";
layers = (
{
anchors = (
{
name = bottom;
position = "{156, 0}";
},
{
name = top;
position = "{232, 447}";
}
);
background = {
paths = (
{
closed = 1;
nodes = (
"250 35 OFFCURVE",
"250 67 CURVE",
"220 21 OFFCURVE",
"187 -9 OFFCURVE",
"134 -9 CURVE",
"69 -9 OFFCURVE",
"31 57 OFFCURVE",
"31 142 CURVE",
"31 303 OFFCURVE",
"93 450 OFFCURVE",
"212 450 CURVE",
"266 450 OFFCURVE",
"299 409 OFFCURVE",
"343 366 CURVE",
"316 329 LINE",
"283 361 OFFCURVE",
"261 395 OFFCURVE",
"216 395 CURVE",
"114 395 OFFCURVE",
"91 224 OFFCURVE",
"91 146 CURVE",
"91 102 OFFCURVE",
"105 50 OFFCURVE",
"148 50 CURVE",
"205 50 OFFCURVE",
"251 128 OFFCURVE",
"266 240 CURVE",
"285 374 OFFCURVE",
"278 336 OFFCURVE",
"289 421 CURVE",
"292 449 OFFCURVE",
"298 451 OFFCURVE",
"313 455 CURVE",
"349 462 OFFCURVE",
"356 460 OFFCURVE",
"353 437 CURVE",
"328 271 OFFCURVE",
"304 102 OFFCURVE",
"304 40 CURVE",
"336 60 OFFCURVE",
"348 83 OFFCURVE",
"358 83 CURVE",
"371 83 OFFCURVE",
"387 58 OFFCURVE",
"387 42 CURVE",
"387 27 OFFCURVE",
"338 -7 OFFCURVE",
"298 -7 CURVE",
"262 -7 OFFCURVE"
);
},
{
closed = 0;
nodes = (
"216 393 LINE",
"114 394 OFFCURVE",
"90 235 OFFCURVE",
"89 167 CURVE",
"89 103 OFFCURVE",
"103 50 OFFCURVE",
"152 50 CURVE"
);
}
);
};
layerId = "70F97C4B-94FA-40A4-8E29-E667CA674F9A";
name = Regular;
paths = (
{
closed = 1;
nodes = (
"205 50 OFFCURVE",
"251 128 OFFCURVE",
"266 240 CURVE",
"285 374 OFFCURVE",
"278 336 OFFCURVE",
"289 421 CURVE",
"292 449 OFFCURVE",
"298 451 OFFCURVE",
"313 455 CURVE",
"349 462 OFFCURVE",
"356 460 OFFCURVE",
"353 437 CURVE",
"328 271 OFFCURVE",
"304 102 OFFCURVE",
"304 40 CURVE",
"336 60 OFFCURVE",
"348 83 OFFCURVE",
"358 83 CURVE",
"371 83 OFFCURVE",
"387 58 OFFCURVE",
"387 42 CURVE",
"387 27 OFFCURVE",
"338 -7 OFFCURVE",
"298 -7 CURVE",
"262 -7 OFFCURVE",
"250 35 OFFCURVE",
"250 67 CURVE",
"220 21 OFFCURVE",
"187 -9 OFFCURVE",
"134 -9 CURVE",
"71 -8 OFFCURVE",
"29 55 OFFCURVE",
"29 165 CURVE",
"31 312 OFFCURVE",
"93 451 OFFCURVE",
"212 450 CURVE",
"266 450 OFFCURVE",
"298 410 OFFCURVE",
"342 367 CURVE",
"316 329 LINE",
"283 361 OFFCURVE",
"261 393 OFFCURVE",
"216 393 CURVE",
"114 394 OFFCURVE",
"90 235 OFFCURVE",
"89 167 CURVE",
"89 103 OFFCURVE",
"103 50 OFFCURVE",
"148 50 CURVE"
);
}
);
width = 402;
}
);
unicode = 0061;
},
{
glyphname = b;
lastChange = "2015-10-06 06:58:03 +0000";
layers = (
{
background = {
paths = (
{
closed = 1;
nodes = (
"349 390 OFFCURVE",
"311 451 OFFCURVE",
"243 451 CURVE",
"190 451 OFFCURVE",
"158 426 OFFCURVE",
"128 383 CURVE",
"137 458 OFFCURVE",
"151 559 OFFCURVE",
"169 690 CURVE",
"171 713 OFFCURVE",
"164 715 OFFCURVE",
"132 707 CURVE",
"118 703 OFFCURVE",
"112 701 OFFCURVE",
"109 673 CURVE",
"99 602 OFFCURVE",
"84 490 OFFCURVE",
"72 381 CURVE",
"51 205 OFFCURVE",
"30 29 OFFCURVE",
"31 13 CURVE",
"28 -10 OFFCURVE",
"29 -12 OFFCURVE",
"65 -4 CURVE",
"80 0 OFFCURVE",
"86 2 OFFCURVE",
"88 30 CURVE",
"110 208 LINE",
"124 307 OFFCURVE",
"168 391 OFFCURVE",
"236 392 CURVE",
"273 392 OFFCURVE",
"290 355 OFFCURVE",
"290 295 CURVE",
"290 217 OFFCURVE",
"266 49 OFFCURVE",
"164 49 CURVE",
"129 49 OFFCURVE",
"108 62 OFFCURVE",
"64 94 CURVE",
"39 55 LINE",
"81 21 OFFCURVE",
"115 -8 OFFCURVE",
"169 -8 CURVE",
"288 -8 OFFCURVE",
"349 138 OFFCURVE",
"349 299 CURVE"
);
}
);
};
layerId = "70F97C4B-94FA-40A4-8E29-E667CA674F9A";
name = Regular;
paths = (
{
closed = 1;
nodes = (
"349 390 OFFCURVE",
"311 451 OFFCURVE",
"243 451 CURVE",
"190 451 OFFCURVE",
"158 426 OFFCURVE",
"128 383 CURVE",
"137 458 OFFCURVE",
"151 559 OFFCURVE",
"169 690 CURVE",
"171 713 OFFCURVE",
"164 715 OFFCURVE",
"132 707 CURVE",
"118 703 OFFCURVE",
"112 701 OFFCURVE",
"109 673 CURVE",
"99 602 OFFCURVE",
"84 490 OFFCURVE",
"72 381 CURVE",
"51 205 OFFCURVE",
"30 20 OFFCURVE",
"30 4 CURVE",
"30 -6 OFFCURVE",
"33 -11 OFFCURVE",
"65 -4 CURVE",
"78 -1 OFFCURVE",
"83 3 OFFCURVE",
"85 31 CURVE",
"89 40 LINE",
"110 208 LINE",
"124 307 OFFCURVE",
"168 391 OFFCURVE",
"236 392 CURVE",
"273 392 OFFCURVE",
"290 355 OFFCURVE",
"290 295 CURVE",
"290 217 OFFCURVE",
"266 49 OFFCURVE",
"164 49 CURVE",
"129 49 OFFCURVE",
"94 85 OFFCURVE",
"64 114 CURVE",
"39 75 LINE",
"70 42 OFFCURVE",
"115 -8 OFFCURVE",
"169 -8 CURVE",
"288 -8 OFFCURVE",
"349 138 OFFCURVE",
"349 299 CURVE"
);
}
);
width = 378;
}
);
unicode = 0062;
},
{
glyphname = c;
lastChange = "2015-10-06 06:58:54 +0000";
layers = (
{
anchors = (
{
name = top;
position = "{202, 447}";
}
);
background = {
paths = (
{
closed = 1;
nodes = (
"274 103 CURVE",
"261 110 LINE",
"249 116 OFFCURVE",
"241 115 OFFCURVE",
"231 99 CURVE SMOOTH",
"213 71 OFFCURVE",
"195 47 OFFCURVE",
"153 47 CURVE",
"102 47 OFFCURVE",
"83 94 OFFCURVE",
"83 158 CURVE",
"83 230 OFFCURVE",
"108 392 OFFCURVE",
"206 392 CURVE",
"228 392 OFFCURVE",
"242 382 OFFCURVE",
"254 357 CURVE SMOOTH",
"261 343 OFFCURVE",
"266 339 OFFCURVE",
"282 346 CURVE",
"297 352 LINE",
"312 358 OFFCURVE",
"315 366 OFFCURVE",
"307 384 CURVE SMOOTH",
"288 426 OFFCURVE",
"254 450 OFFCURVE",
"211 451 CURVE",
"84 451 OFFCURVE",
"24 308 OFFCURVE",
"24 152 CURVE",
"25 63 OFFCURVE",
"61 -9 OFFCURVE",
"148 -10 CURVE",
"217 -10 OFFCURVE",
"256 26 OFFCURVE",
"283 73 CURVE SMOOTH",
"291 87 OFFCURVE",
"288 94 OFFCURVE"
);
}
);
};
layerId = "70F97C4B-94FA-40A4-8E29-E667CA674F9A";
name = Regular;
paths = (
{
closed = 1;
nodes = (
"280 103 CURVE",
"268 110 LINE",
"256 116 OFFCURVE",
"247 115 OFFCURVE",
"238 99 CURVE SMOOTH",
"225 75 OFFCURVE",
"200 47 OFFCURVE",
"163 47 CURVE",
"107 47 OFFCURVE",
"88 94 OFFCURVE",
"88 158 CURVE",
"88 230 OFFCURVE",
"108 392 OFFCURVE",
"206 392 CURVE",
"228 392 OFFCURVE",
"242 382 OFFCURVE",
"254 357 CURVE SMOOTH",
"261 343 OFFCURVE",
"266 339 OFFCURVE",
"282 346 CURVE",
"297 352 LINE",
"312 358 OFFCURVE",
"315 366 OFFCURVE",
"307 384 CURVE SMOOTH",
"288 426 OFFCURVE",
"254 450 OFFCURVE",
"211 451 CURVE",
"84 451 OFFCURVE",
"29 308 OFFCURVE",
"29 152 CURVE",
"30 63 OFFCURVE",
"67 -9 OFFCURVE",
"157 -10 CURVE",
"221 -10 OFFCURVE",
"265 25 OFFCURVE",
"289 73 CURVE SMOOTH",
"296 87 OFFCURVE",
"294 94 OFFCURVE"
);
}
);
width = 322;
}
);
unicode = 0063;
},
{
glyphname = d;
lastChange = "2015-10-06 07:05:07 +0000";
layers = (
{
anchors = (
{
name = bottom;
position = "{145, 0}";
}
);
background = {
paths = (
{
closed = 1;
nodes = (
"247 -11 OFFCURVE",
"246 -3 OFFCURVE",
"253 76 CURVE",
"229 25 OFFCURVE",
"187 -10 OFFCURVE",
"134 -10 CURVE",
"71 -9 OFFCURVE",
"29 57 OFFCURVE",
"29 142 CURVE",
"31 303 OFFCURVE",
"92 450 OFFCURVE",
"211 449 CURVE",
"265 449 OFFCURVE",
"299 420 OFFCURVE",
"342 386 CURVE",
"316 347 LINE",
"272 379 OFFCURVE",
"251 392 OFFCURVE",
"216 392 CURVE",
"114 393 OFFCURVE",
"90 214 OFFCURVE",
"89 146 CURVE",
"89 102 OFFCURVE",
"103 49 OFFCURVE",
"152 49 CURVE",
"208 49 OFFCURVE",
"256 140 OFFCURVE",
"268 242 CURVE",
"285 379 OFFCURVE",
"312 589 OFFCURVE",
"322 673 CURVE",
"325 701 OFFCURVE",
"331 703 OFFCURVE",
"345 707 CURVE",
"381 715 OFFCURVE",
"388 713 OFFCURVE",
"386 690 CURVE",
"340 360 OFFCURVE",
"324 247 OFFCURVE",
"316 157 CURVE SMOOTH",
"310 89 OFFCURVE",
"309 39 OFFCURVE",
"308 13 CURVE SMOOTH",
"307 -1 OFFCURVE",
"290 -4 OFFCURVE",
"284 -5 CURVE"
);
}
);
};
layerId = "70F97C4B-94FA-40A4-8E29-E667CA674F9A";
name = Regular;
paths = (
{
closed = 1;
nodes = (
"247 -11 OFFCURVE",
"246 -3 OFFCURVE",
"253 76 CURVE",
"229 25 OFFCURVE",
"187 -10 OFFCURVE",
"134 -10 CURVE",
"71 -9 OFFCURVE",
"29 54 OFFCURVE",
"29 164 CURVE",
"31 311 OFFCURVE",
"92 450 OFFCURVE",
"211 449 CURVE",
"265 449 OFFCURVE",
"299 420 OFFCURVE",
"342 386 CURVE",
"316 347 LINE",
"272 379 OFFCURVE",
"251 392 OFFCURVE",
"216 392 CURVE",
"114 393 OFFCURVE",
"90 234 OFFCURVE",
"89 166 CURVE",
"89 102 OFFCURVE",
"103 49 OFFCURVE",
"152 49 CURVE",
"208 49 OFFCURVE",
"256 140 OFFCURVE",
"268 242 CURVE",
"285 379 OFFCURVE",
"312 589 OFFCURVE",
"322 673 CURVE",
"325 701 OFFCURVE",
"331 703 OFFCURVE",
"345 707 CURVE",
"381 715 OFFCURVE",
"388 713 OFFCURVE",
"386 690 CURVE",
"338 360 OFFCURVE",
"324 247 OFFCURVE",
"316 157 CURVE SMOOTH",
"310 89 OFFCURVE",
"308 39 OFFCURVE",
"308 19 CURVE SMOOTH",
"308 -1 OFFCURVE",
"301 -1 OFFCURVE",
"284 -5 CURVE"
);
}
);
width = 376;
}
);
unicode = 0064;
},
{
glyphname = e;
lastChange = "2015-10-06 07:03:03 +0000";
layers = (
{
anchors = (
{
name = bottom;
position = "{129, 0}";
},
{
name = top;
position = "{206, 447}";
}
);
background = {
paths = (
{
closed = 1;
nodes = (
"296 451 OFFCURVE",
"216 451 CURVE",
"89 451 OFFCURVE",
"29 308 OFFCURVE",
"29 152 CURVE",
"30 63 OFFCURVE",
"66 -9 OFFCURVE",
"153 -10 CURVE",
"222 -10 OFFCURVE",
"261 28 OFFCURVE",
"288 75 CURVE SMOOTH",
"296 89 OFFCURVE",
"292 96 OFFCURVE",
"279 103 CURVE",
"266 110 LINE",
"255 116 OFFCURVE",
"245 115 OFFCURVE",
"236 99 CURVE SMOOTH",
"220 70 OFFCURVE",
"196 47 OFFCURVE",
"158 47 CURVE",
"107 47 OFFCURVE",
"88 94 OFFCURVE",
"88 158 CURVE",
"88 230 OFFCURVE",
"113 393 OFFCURVE",
"211 393 CURVE",
"235 393 OFFCURVE",
"257 381 OFFCURVE",
"257 340 CURVE",
"257 292 OFFCURVE",
"219 242 OFFCURVE",
"64 233 CURVE",
"68 175 LINE",
"222 183 OFFCURVE",
"318 245 OFFCURVE",
"318 347 CURVE",
"318 392 OFFCURVE"
);
}
);
};
layerId = "70F97C4B-94FA-40A4-8E29-E667CA674F9A";
name = Regular;
paths = (
{
closed = 1;
nodes = (
"222 -10 OFFCURVE",
"261 26 OFFCURVE",
"288 73 CURVE SMOOTH",
"296 87 OFFCURVE",
"293 94 OFFCURVE",
"279 103 CURVE",
"266 110 LINE",
"254 116 OFFCURVE",
"246 115 OFFCURVE",
"236 99 CURVE SMOOTH",
"218 71 OFFCURVE",
"200 47 OFFCURVE",
"158 47 CURVE",
"107 47 OFFCURVE",
"88 94 OFFCURVE",
"88 158 CURVE",
"88 230 OFFCURVE",
"113 393 OFFCURVE",
"211 393 CURVE",
"235 393 OFFCURVE",
"257 381 OFFCURVE",
"257 340 CURVE",
"257 292 OFFCURVE",
"219 242 OFFCURVE",
"64 233 CURVE",
"68 175 LINE",
"222 183 OFFCURVE",
"318 245 OFFCURVE",
"318 347 CURVE",
"318 392 OFFCURVE",
"296 451 OFFCURVE",
"216 451 CURVE",
"89 451 OFFCURVE",
"29 308 OFFCURVE",
"29 152 CURVE",
"30 63 OFFCURVE",
"66 -9 OFFCURVE",
"153 -10 CURVE"
);
}
);
width = 330;
}
);
unicode = 0065;
},
{
glyphname = f;
lastChange = "2015-10-06 13:14:58 +0000";
layers = (
{
background = {
paths = (
{
closed = 1;
nodes = (
"-186 80 OFFCURVE",
"-179 175 OFFCURVE",
"-166 274 CURVE SMOOTH",
"-141 467 OFFCURVE",
"-131 592 OFFCURVE",
"-51 588 CURVE",
"-29 586 OFFCURVE",
"-15 568 OFFCURVE",
"-3 557 CURVE SMOOTH",
"6 548 OFFCURVE",
"14 548 OFFCURVE",
"30 565 CURVE",
"40 577 OFFCURVE",
"47 584 OFFCURVE",
"37 596 CURVE SMOOTH",
"25 611 OFFCURVE",
"-6 644 OFFCURVE",
"-48 644 CURVE",
"-187 644 OFFCURVE",
"-193 481 OFFCURVE",
"-223 254 CURVE SMOOTH",
"-234 172 OFFCURVE",
"-241 93 OFFCURVE",
"-249 17 CURVE",
"-252 -6 OFFCURVE",
"-245 -9 OFFCURVE",
"-214 -2 CURVE",
"-199 2 OFFCURVE",
"-192 4 OFFCURVE",
"-189 32 CURVE"
);
},
{
closed = 1;
nodes = (
"-89 393 LINE",
"-60 393 OFFCURVE",
"-52 397 OFFCURVE",
"-47 416 CURVE",
"-42 439 OFFCURVE",
"-44 447 OFFCURVE",
"-76 447 CURVE",
"-230 447 LINE",
"-259 447 OFFCURVE",
"-265 443 OFFCURVE",
"-272 420 CURVE",
"-278 401 OFFCURVE",
"-275 393 OFFCURVE",
"-243 393 CURVE"
);
},
{
closed = 1;
nodes = (
"173 527 OFFCURVE",
"192 588 OFFCURVE",
"244 588 CURVE",
"272 586 OFFCURVE",
"286 568 OFFCURVE",
"297 557 CURVE SMOOTH",
"306 548 OFFCURVE",
"314 548 OFFCURVE",
"330 565 CURVE",
"340 577 OFFCURVE",
"347 584 OFFCURVE",
"337 596 CURVE SMOOTH",
"325 611 OFFCURVE",
"294 644 OFFCURVE",
"252 644 CURVE",
"150 644 OFFCURVE",
"121 556 OFFCURVE",
"99 420 CURVE",
"99 418 OFFCURVE",
"99 416 OFFCURVE",
"99 414 CURVE SMOOTH",
"89 343 OFFCURVE",
"52 44 OFFCURVE",
"49 14 CURVE",
"46 -9 OFFCURVE",
"49 -11 OFFCURVE",
"85 -4 CURVE",
"100 0 OFFCURVE",
"106 2 OFFCURVE",
"109 30 CURVE",
"118 111 OFFCURVE",
"152 385 OFFCURVE",
"156 419 CURVE"
);
},
{
closed = 1;
nodes = (
"211 393 LINE",
"240 393 OFFCURVE",
"248 397 OFFCURVE",
"253 416 CURVE",
"258 439 OFFCURVE",
"256 447 OFFCURVE",
"224 447 CURVE",
"70 447 LINE",
"41 447 OFFCURVE",
"35 443 OFFCURVE",
"28 420 CURVE",
"22 401 OFFCURVE",
"25 393 OFFCURVE",
"57 393 CURVE"
);
}
);
};
layerId = "70F97C4B-94FA-40A4-8E29-E667CA674F9A";
name = Regular;
paths = (
{
closed = 1;
nodes = (
"157 424 OFFCURVE",
"165 488 OFFCURVE",
"166 493 CURVE SMOOTH",
"183 592 OFFCURVE",
"202 648 OFFCURVE",
"252 648 CURVE",
"280 646 OFFCURVE",
"294 628 OFFCURVE",
"305 617 CURVE SMOOTH",
"314 608 OFFCURVE",
"322 608 OFFCURVE",
"338 625 CURVE",
"348 637 OFFCURVE",
"355 644 OFFCURVE",
"345 656 CURVE SMOOTH",
"333 671 OFFCURVE",
"302 704 OFFCURVE",
"260 704 CURVE",
"162 704 OFFCURVE",
"132 623 OFFCURVE",
"110 497 CURVE SMOOTH",
"109 492 OFFCURVE",
"100 426 OFFCURVE",
"99 420 CURVE",
"99 418 OFFCURVE",
"99 416 OFFCURVE",
"99 414 CURVE SMOOTH",
"89 343 OFFCURVE",
"52 44 OFFCURVE",
"49 14 CURVE",
"46 -9 OFFCURVE",
"49 -11 OFFCURVE",
"85 -4 CURVE",
"100 0 OFFCURVE",
"106 2 OFFCURVE",
"109 30 CURVE",
"118 111 OFFCURVE",
"152 385 OFFCURVE",
"156 419 CURVE"
);
},
{
closed = 1;
nodes = (
"211 393 LINE",
"240 393 OFFCURVE",
"248 397 OFFCURVE",
"253 416 CURVE",
"258 439 OFFCURVE",
"256 447 OFFCURVE",
"224 447 CURVE",
"70 447 LINE",
"41 447 OFFCURVE",
"35 443 OFFCURVE",
"28 420 CURVE",
"22 401 OFFCURVE",
"25 393 OFFCURVE",
"57 393 CURVE"
);
}
);
width = 235;
}
);
unicode = 0066;
},
{
glyphname = g;
lastChange = "2015-10-06 07:04:47 +0000";
layers = (
{
anchors = (
{
name = top;
position = "{229, 447}";
}
);
background = {
paths = (
{
closed = 1;
nodes = (
"220 18 OFFCURVE",
"187 -9 OFFCURVE",
"134 -9 CURVE",
"71 -8 OFFCURVE",
"28 54 OFFCURVE",
"28 164 CURVE",
"30 311 OFFCURVE",
"91 450 OFFCURVE",
"210 449 CURVE",
"260 449 OFFCURVE",
"292 425 OFFCURVE",
"328 398 CURVE",
"318 336 LINE",
"285 371 OFFCURVE",
"255 392 OFFCURVE",
"215 392 CURVE",
"113 393 OFFCURVE",
"89 234 OFFCURVE",
"88 166 CURVE",
"88 102 OFFCURVE",
"102 49 OFFCURVE",
"151 49 CURVE",
"206 50 OFFCURVE",
"249 131 OFFCURVE",
"263 240 CURVE",
"282 374 OFFCURVE",
"275 336 OFFCURVE",
"286 421 CURVE",
"289 449 OFFCURVE",
"295 451 OFFCURVE",
"310 455 CURVE",
"346 462 OFFCURVE",
"353 460 OFFCURVE",
"350 437 CURVE",
"349 423 OFFCURVE",
"327 288 OFFCURVE",
"315 158 CURVE",
"296 -93 OFFCURVE",
"270 -199 OFFCURVE",
"137 -200 CURVE",
"90 -199 OFFCURVE",
"53 -181 OFFCURVE",
"13 -149 CURVE SMOOTH",
"-5 -135 OFFCURVE",
"-3 -125 OFFCURVE",
"12 -106 CURVE",
"27 -88 OFFCURVE",
"34 -89 OFFCURVE",
"48 -101 CURVE SMOOTH",
"80 -129 OFFCURVE",
"101 -142 OFFCURVE",
"143 -142 CURVE",
"219 -142 OFFCURVE",
"237 -82 OFFCURVE",
"252 64 CURVE"
);
}
);
};
layerId = "70F97C4B-94FA-40A4-8E29-E667CA674F9A";
name = Regular;
paths = (
{
closed = 1;
nodes = (
"261 449 OFFCURVE",
"293 415 OFFCURVE",
"333 375 CURVE",
"316 328 LINE",
"283 360 OFFCURVE",
"261 392 OFFCURVE",
"216 392 CURVE",
"114 393 OFFCURVE",
"90 234 OFFCURVE",
"89 166 CURVE",
"89 102 OFFCURVE",
"103 49 OFFCURVE",
"152 49 CURVE",
"207 50 OFFCURVE",
"250 131 OFFCURVE",
"264 240 CURVE",
"283 374 OFFCURVE",
"276 336 OFFCURVE",
"287 421 CURVE",
"290 449 OFFCURVE",
"296 451 OFFCURVE",
"311 455 CURVE",
"347 462 OFFCURVE",
"354 460 OFFCURVE",
"351 437 CURVE",
"350 423 OFFCURVE",
"328 288 OFFCURVE",
"316 158 CURVE",
"297 -93 OFFCURVE",
"271 -199 OFFCURVE",
"138 -200 CURVE",
"91 -199 OFFCURVE",
"54 -181 OFFCURVE",
"14 -149 CURVE SMOOTH",
"-4 -135 OFFCURVE",
"-2 -125 OFFCURVE",
"13 -106 CURVE",
"28 -88 OFFCURVE",
"35 -89 OFFCURVE",
"49 -101 CURVE SMOOTH",
"81 -129 OFFCURVE",
"102 -142 OFFCURVE",
"144 -142 CURVE",
"220 -142 OFFCURVE",
"238 -82 OFFCURVE",
"253 64 CURVE",
"221 18 OFFCURVE",
"188 -9 OFFCURVE",
"135 -9 CURVE",
"72 -8 OFFCURVE",
"29 54 OFFCURVE",
"29 164 CURVE",
"31 311 OFFCURVE",
"92 450 OFFCURVE",
"211 449 CURVE"
);
}
);
width = 378;
}
);
unicode = 0067;
},
{
glyphname = h;
lastChange = "2015-10-06 07:07:37 +0000";
layers = (
{
anchors = (
{
name = bottom;
position = "{173, 0}";
},
{
name = top;
position = "{152, 690}";
}
);
background = {
paths = (
{
closed = 1;
nodes = (
"349 422 OFFCURVE",
"304 452 OFFCURVE",
"248 452 CURVE",
"204 452 OFFCURVE",
"165 432 OFFCURVE",
"131 380 CURVE",
"140 418 LINE",
"170 690 LINE",
"172 713 OFFCURVE",
"165 714 OFFCURVE",
"130 707 CURVE",
"115 703 OFFCURVE",
"114 700 OFFCURVE",
"111 672 CURVE",
"90 495 OFFCURVE",
"34 39 OFFCURVE",
"35 13 CURVE",
"32 -10 OFFCURVE",
"39 -11 OFFCURVE",
"70 -4 CURVE",
"85 0 OFFCURVE",
"91 2 OFFCURVE",
"93 30 CURVE",
"115 208 LINE",
"128 311 OFFCURVE",
"175 393 OFFCURVE",
"239 393 CURVE",
"270 393 OFFCURVE",
"288 372 OFFCURVE",
"288 323 CURVE",
"289 257 OFFCURVE",
"261 55 OFFCURVE",
"256 14 CURVE",
"253 -9 OFFCURVE",
"261 -11 OFFCURVE",
"293 -4 CURVE",
"308 0 OFFCURVE",
"316 2 OFFCURVE",
"319 30 CURVE",
"333 152 OFFCURVE",
"349 246 OFFCURVE",
"349 339 CURVE"
);
}
);
};
layerId = "70F97C4B-94FA-40A4-8E29-E667CA674F9A";
name = Regular;
paths = (
{
closed = 1;
nodes = (
"28 -9 OFFCURVE",
"36 -11 OFFCURVE",
"67 -4 CURVE",
"82 0 OFFCURVE",
"90 2 OFFCURVE",
"93 30 CURVE",
"115 208 LINE",
"127 301 OFFCURVE",
"187 393 OFFCURVE",
"241 393 CURVE",
"272 393 OFFCURVE",
"286 372 OFFCURVE",
"286 323 CURVE",
"287 257 OFFCURVE",
"259 55 OFFCURVE",
"254 14 CURVE",
"251 -9 OFFCURVE",
"259 -11 OFFCURVE",
"291 -4 CURVE",
"306 0 OFFCURVE",
"314 2 OFFCURVE",
"317 30 CURVE",
"331 152 OFFCURVE",
"347 246 OFFCURVE",
"347 339 CURVE",
"347 422 OFFCURVE",
"302 451 OFFCURVE",
"255 451 CURVE",
"208 451 OFFCURVE",
"166 427 OFFCURVE",
"131 375 CURVE",
"140 450 OFFCURVE",
"155 559 OFFCURVE",
"173 690 CURVE",
"175 713 OFFCURVE",
"168 715 OFFCURVE",
"136 707 CURVE",
"122 703 OFFCURVE",
"116 701 OFFCURVE",
"113 673 CURVE",
"103 602 OFFCURVE",
"88 484 OFFCURVE",
"76 375 CURVE",
"56 201 OFFCURVE",
"33 30 OFFCURVE",
"31 14 CURVE"
);
}
);
width = 392;
}
);
unicode = 0068;
},
{
glyphname = i;
lastChange = "2015-09-22 08:53:38 +0000";
layers = (
{
background = {
paths = (
{
closed = 1;
nodes = (
"581 454 OFFCURVE",
"574 456 OFFCURVE",
"538 449 CURVE",
"523 445 OFFCURVE",
"517 443 OFFCURVE",
"514 415 CURVE",
"506 358 OFFCURVE",
"466 60 OFFCURVE",
"466 29 CURVE",
"466 5 OFFCURVE",
"478 -7 OFFCURVE",
"499 -7 CURVE",
"539 -7 OFFCURVE",
"608 27 OFFCURVE",
"608 42 CURVE",
"608 58 OFFCURVE",
"592 83 OFFCURVE",
"579 83 CURVE",
"569 83 OFFCURVE",
"557 60 OFFCURVE",
"525 40 CURVE",
"538 121 OFFCURVE",
"575 397 OFFCURVE",
"578 431 CURVE"
);
},
{
closed = 1;
nodes = (
"585 512 OFFCURVE",
"608 529 OFFCURVE",
"608 560 CURVE SMOOTH",
"608 583 OFFCURVE",
"587 602 OFFCURVE",
"566 602 CURVE SMOOTH",
"541 602 OFFCURVE",
"518 585 OFFCURVE",
"518 555 CURVE SMOOTH",
"518 530 OFFCURVE",
"539 512 OFFCURVE",
"561 512 CURVE SMOOTH"
);
},
{
closed = 1;
nodes = (
"533 112 OFFCURVE",
"596 655 OFFCURVE",
"599 689 CURVE",
"602 712 OFFCURVE",
"595 715 OFFCURVE",
"564 708 CURVE",
"549 704 OFFCURVE",
"543 702 OFFCURVE",
"540 674 CURVE",
"533 617 OFFCURVE",
"466 45 OFFCURVE",
"464 14 CURVE",
"463 -7 OFFCURVE",
"465 -11 OFFCURVE",
"501 -4 CURVE",
"516 0 OFFCURVE",
"520 3 OFFCURVE",
"523 31 CURVE"
);
},
{
closed = 1;
nodes = (
"333 111 OFFCURVE",
"371 397 OFFCURVE",
"374 431 CURVE",
"377 454 OFFCURVE",
"367 456 OFFCURVE",
"338 449 CURVE",
"323 445 OFFCURVE",
"317 443 OFFCURVE",
"314 415 CURVE",
"306 358 OFFCURVE",
"267 45 OFFCURVE",
"264 14 CURVE",
"261 -9 OFFCURVE",
"265 -11 OFFCURVE",
"301 -4 CURVE",
"316 0 OFFCURVE",
"320 2 OFFCURVE",
"323 30 CURVE"
);
},
{
closed = 1;
nodes = (
"385 522 OFFCURVE",
"408 539 OFFCURVE",
"408 570 CURVE SMOOTH",
"408 593 OFFCURVE",
"387 612 OFFCURVE",
"366 612 CURVE SMOOTH",
"341 612 OFFCURVE",
"318 595 OFFCURVE",
"318 565 CURVE SMOOTH",
"318 540 OFFCURVE",
"339 522 OFFCURVE",
"361 522 CURVE SMOOTH"
);
},
{
closed = 1;
nodes = (
"202 22 OFFCURVE",
"196 30 OFFCURVE",
"191 46 CURVE",
"185 61 OFFCURVE",
"181 69 OFFCURVE",
"163 60 CURVE SMOOTH",
"150 54 OFFCURVE",
"136 48 OFFCURVE",
"123 48 CURVE SMOOTH",
"99 48 OFFCURVE",
"92 59 OFFCURVE",
"95 95 CURVE SMOOTH",
"110 259 OFFCURVE",
"130 401 OFFCURVE",
"133 430 CURVE",
"136 453 OFFCURVE",
"129 456 OFFCURVE",
"98 449 CURVE",
"83 445 OFFCURVE",
"76 443 OFFCURVE",
"73 415 CURVE",
"67 369 OFFCURVE",
"51 248 OFFCURVE",
"36 92 CURVE SMOOTH",
"29 23 OFFCURVE",
"53 -8 OFFCURVE",
"103 -8 CURVE",
"135 -8 OFFCURVE",
"162 2 OFFCURVE",
"186 14 CURVE SMOOTH"
);
},
{
closed = 1;
nodes = (
"105 613 OFFCURVE",
"84 586 OFFCURVE",
"84 548 CURVE",
"84 526 OFFCURVE",
"95 512 OFFCURVE",
"114 512 CURVE",
"142 512 OFFCURVE",
"163 541 OFFCURVE",
"163 579 CURVE",
"163 600 OFFCURVE",
"152 613 OFFCURVE",
"133 613 CURVE"
);
}
);
};
components = (
{
name = dotlessi;
transform = "{1, 0, 0, 1, 0, 0}";
},
{
name = dotaccent;
transform = "{1, 0, 0, 1, 84, 0}";
}
);
layerId = "70F97C4B-94FA-40A4-8E29-E667CA674F9A";
name = Regular;
width = 162;
}
);
unicode = 0069;
},
{
glyphname = j;
lastChange = "2015-10-06 13:14:58 +0000";
layers = (
{
background = {
paths = (
{
closed = 1;
nodes = (
"-309 21 OFFCURVE",
"-346 -9 OFFCURVE",
"-399 -9 CURVE",
"-464 -9 OFFCURVE",
"-502 57 OFFCURVE",
"-502 142 CURVE",
"-502 303 OFFCURVE",
"-440 450 OFFCURVE",
"-321 450 CURVE",
"-267 450 OFFCURVE",
"-234 409 OFFCURVE",
"-190 366 CURVE",
"-217 329 LINE",
"-250 361 OFFCURVE",
"-272 395 OFFCURVE",
"-317 395 CURVE",
"-419 395 OFFCURVE",
"-442 224 OFFCURVE",
"-442 146 CURVE",
"-442 102 OFFCURVE",
"-428 50 OFFCURVE",
"-385 50 CURVE",
"-328 50 OFFCURVE",
"-282 128 OFFCURVE",
"-267 240 CURVE",
"-248 374 OFFCURVE",
"-255 336 OFFCURVE",
"-244 421 CURVE",
"-241 449 OFFCURVE",
"-235 451 OFFCURVE",
"-220 455 CURVE",
"-184 462 OFFCURVE",
"-177 460 OFFCURVE",
"-180 437 CURVE",
"-181 423 OFFCURVE",
"-203 288 OFFCURVE",
"-215 158 CURVE",
"-234 -93 OFFCURVE",
"-260 -199 OFFCURVE",
"-393 -200 CURVE",
"-440 -199 OFFCURVE",
"-477 -181 OFFCURVE",
"-517 -149 CURVE SMOOTH",
"-535 -135 OFFCURVE",
"-533 -125 OFFCURVE",
"-518 -106 CURVE",
"-503 -88 OFFCURVE",
"-496 -89 OFFCURVE",
"-482 -101 CURVE SMOOTH",
"-450 -129 OFFCURVE",
"-429 -142 OFFCURVE",
"-387 -142 CURVE",
"-311 -142 OFFCURVE",
"-291 -70 OFFCURVE",
"-276 76 CURVE"
);
},
{
closed = 1;
nodes = (
"-336 -142 OFFCURVE",
"-320 -115 OFFCURVE",
"-298 -55 CURVE SMOOTH",
"-244 92 OFFCURVE",
"-240 400 OFFCURVE",
"-240 421 CURVE",
"-240 449 OFFCURVE",
"-232 451 OFFCURVE",
"-220 455 CURVE",
"-184 462 OFFCURVE",
"-180 460 OFFCURVE",
"-180 437 CURVE",
"-183 343 OFFCURVE",
"-194 62 OFFCURVE",
"-244 -73 CURVE SMOOTH",
"-272 -148 OFFCURVE",
"-296 -199 OFFCURVE",
"-385 -200 CURVE",
"-412 -199 OFFCURVE",
"-440 -188 OFFCURVE",
"-469 -169 CURVE SMOOTH",
"-475 -165 OFFCURVE",
"-480 -161 OFFCURVE",
"-486 -157 CURVE",
"-467 -133 LINE",
"-450 -111 LINE",
"-444 -115 OFFCURVE",
"-439 -119 OFFCURVE",
"-434 -123 CURVE SMOOTH",
"-415 -136 OFFCURVE",
"-399 -142 OFFCURVE",
"-376 -142 CURVE"
);
},
{
closed = 1;
nodes = (
"60 381 OFFCURVE",
"44 89 OFFCURVE",
"4 -56 CURVE SMOOTH",
"-12 -118 OFFCURVE",
"-34 -143 OFFCURVE",
"-75 -141 CURVE",
"-97 -139 OFFCURVE",
"-114 -133 OFFCURVE",
"-132 -120 CURVE SMOOTH",
"-145 -110 OFFCURVE",
"-152 -111 OFFCURVE",
"-165 -128 CURVE",
"-178 -145 OFFCURVE",
"-184 -152 OFFCURVE",
"-167 -164 CURVE SMOOTH",
"-141 -186 OFFCURVE",
"-112 -195 OFFCURVE",
"-85 -198 CURVE",
"4 -199 OFFCURVE",
"41 -154 OFFCURVE",
"60 -76 CURVE SMOOTH",
"95 57 OFFCURVE",
"115 341 OFFCURVE",
"122 435 CURVE",
"123 458 OFFCURVE",
"116 461 OFFCURVE",
"85 455 CURVE",
"70 452 OFFCURVE",
"62 447 OFFCURVE",
"62 433 CURVE"
);
},
{
closed = 1;
nodes = (
"135 522 OFFCURVE",
"158 539 OFFCURVE",
"158 570 CURVE SMOOTH",
"158 593 OFFCURVE",
"137 612 OFFCURVE",
"116 612 CURVE SMOOTH",
"91 612 OFFCURVE",
"68 595 OFFCURVE",
"68 565 CURVE SMOOTH",
"68 540 OFFCURVE",
"89 522 OFFCURVE",
"111 522 CURVE SMOOTH"
);
}
);
};
components = (
{
name = dotlessj;
transform = "{1, 0, 0, 1, 0, 0}";
},
{
name = dotaccent;
transform = "{1, 0, 0, 1, 80, 0}";
}
);
layerId = "70F97C4B-94FA-40A4-8E29-E667CA674F9A";
name = Regular;
width = 163;
}
);
unicode = 006A;
},
{
glyphname = k;
lastChange = "2015-10-06 07:13:26 +0000";
layers = (
{
anchors = (
{
name = bottom;
position = "{166, 5}";
}
);
background = {
paths = (
{
closed = 1;
nodes = (
"328 70 OFFCURVE",
"315 49 OFFCURVE",
"290 49 CURVE",
"261 49 OFFCURVE",
"231 131 OFFCURVE",
"215 174 CURVE",
"282 199 OFFCURVE",
"350 263 OFFCURVE",
"350 346 CURVE SMOOTH",
"350 411 OFFCURVE",
"309 451 OFFCURVE",
"251 451 CURVE SMOOTH",
"201 451 OFFCURVE",
"157 426 OFFCURVE",
"127 383 CURVE",
"132 418 LINE",
"162 690 LINE SMOOTH",
"165 713 OFFCURVE",
"163 714 OFFCURVE",
"128 707 CURVE",
"114 703 OFFCURVE",
"108 700 OFFCURVE",
"105 672 CURVE SMOOTH",
"84 495 OFFCURVE",
"32 39 OFFCURVE",
"33 13 CURVE",
"30 -10 OFFCURVE",
"37 -12 OFFCURVE",
"66 -4 CURVE",
"81 0 OFFCURVE",
"89 2 OFFCURVE",
"91 30 CURVE",
"108 208 LINE SMOOTH",
"118 315 OFFCURVE",
"169 391 OFFCURVE",
"237 392 CURVE SMOOTH",
"274 392 OFFCURVE",
"290 371 OFFCURVE",
"290 341 CURVE",
"290 286 OFFCURVE",
"237 235 OFFCURVE",
"159 211 CURVE SMOOTH",
"145 207 OFFCURVE",
"143 199 OFFCURVE",
"147 189 CURVE SMOOTH",
"189 87 OFFCURVE",
"217 -9 OFFCURVE",
"280 -9 CURVE SMOOTH",
"322 -9 OFFCURVE",
"362 15 OFFCURVE",
"362 30 CURVE SMOOTH",
"362 42 OFFCURVE",
"351 70 OFFCURVE",
"338 70 CURVE SMOOTH"
);
}
);
};
components = (
{
name = l;
transform = "{1, 0, 0, 1, 1, 0}";
}
);
layerId = "70F97C4B-94FA-40A4-8E29-E667CA674F9A";
name = Regular;
paths = (
{
closed = 1;
nodes = (
"85 262 LINE",
"127 383 LINE",
"157 426 OFFCURVE",
"201 451 OFFCURVE",
"251 451 CURVE SMOOTH",
"309 451 OFFCURVE",
"350 411 OFFCURVE",
"350 346 CURVE SMOOTH",
"350 263 OFFCURVE",
"282 199 OFFCURVE",
"215 174 CURVE",
"231 131 OFFCURVE",
"261 49 OFFCURVE",
"290 49 CURVE",
"315 49 OFFCURVE",
"328 70 OFFCURVE",
"338 70 CURVE SMOOTH",
"351 70 OFFCURVE",
"362 42 OFFCURVE",
"362 30 CURVE SMOOTH",
"362 15 OFFCURVE",
"322 -9 OFFCURVE",
"280 -9 CURVE SMOOTH",
"217 -9 OFFCURVE",
"189 87 OFFCURVE",
"147 189 CURVE SMOOTH",
"143 199 OFFCURVE",
"145 207 OFFCURVE",
"159 211 CURVE SMOOTH",
"237 235 OFFCURVE",
"290 286 OFFCURVE",
"290 341 CURVE",
"290 371 OFFCURVE",
"274 392 OFFCURVE",
"237 392 CURVE SMOOTH",
"169 391 OFFCURVE",
"118 315 OFFCURVE",
"108 208 CURVE"
);
}
);
width = 377;
}
);
unicode = 006B;
},
{
glyphname = l;
lastChange = "2015-10-06 07:15:04 +0000";
layers = (
{
anchors = (
{
name = bottom;
position = "{67, 0}";
}
);
background = {
paths = (
{
closed = 1;
nodes = (
"36 -11 OFFCURVE",
"35 -3 OFFCURVE",
"42 76 CURVE",
"48 172 OFFCURVE",
"90 518 OFFCURVE",
"111 673 CURVE",
"114 701 OFFCURVE",
"120 703 OFFCURVE",
"134 707 CURVE",
"166 715 OFFCURVE",
"173 713 OFFCURVE",
"171 690 CURVE",
"125 360 OFFCURVE",
"115 247 OFFCURVE",
"107 157 CURVE SMOOTH",
"101 89 OFFCURVE",
"100 39 OFFCURVE",
"99 13 CURVE SMOOTH",
"98 -1 OFFCURVE",
"81 -4 OFFCURVE",
"73 -5 CURVE"
);
}
);
};
layerId = "70F97C4B-94FA-40A4-8E29-E667CA674F9A";
name = Regular;
paths = (
{
closed = 1;
nodes = (
"114 700 OFFCURVE",
"120 703 OFFCURVE",
"134 707 CURVE",
"166 715 OFFCURVE",
"174 713 OFFCURVE",
"171 690 CURVE",
"125 360 OFFCURVE",
"115 247 OFFCURVE",
"107 157 CURVE",
"101 89 OFFCURVE",
"99 39 OFFCURVE",
"98 19 CURVE SMOOTH",
"97 -1 OFFCURVE",
"90 -1 OFFCURVE",
"73 -5 CURVE",
"42 -10 OFFCURVE",
"38 -5 OFFCURVE",
"38 21 CURVE",
"38 67 OFFCURVE",
"76 419 OFFCURVE",
"111 673 CURVE"
);
}
);
width = 174;
}
);
unicode = 006C;
},
{
glyphname = m;
lastChange = "2015-10-06 07:15:56 +0000";
layers = (
{
anchors = (
{
name = bottom;
position = "{263, 0}";
}
);
background = {
paths = (
{
closed = 1;
nodes = (
"128 449 OFFCURVE",
"130 458 OFFCURVE",
"93 449 CURVE",
"87 448 OFFCURVE",
"69 445 OFFCURVE",
"69 431 CURVE SMOOTH",
"68 271 OFFCURVE",
"29 33 OFFCURVE",
"30 13 CURVE",
"27 -10 OFFCURVE",
"34 -11 OFFCURVE",
"65 -4 CURVE",
"80 0 OFFCURVE",
"88 2 OFFCURVE",
"90 30 CURVE",
"112 208 LINE",
"126 321 OFFCURVE",
"177 394 OFFCURVE",
"231 394 CURVE",
"262 394 OFFCURVE",
"276 370 OFFCURVE",
"277 321 CURVE SMOOTH",
"278 255 OFFCURVE",
"250 55 OFFCURVE",
"244 14 CURVE",
"241 -9 OFFCURVE",
"247 -12 OFFCURVE",
"279 -5 CURVE",
"294 -1 OFFCURVE",
"302 4 OFFCURVE",
"305 29 CURVE",
"314 90 OFFCURVE",
"319 154 OFFCURVE",
"326 206 CURVE",
"339 316 OFFCURVE",
"384 394 OFFCURVE",
"438 394 CURVE",
"469 394 OFFCURVE",
"484 370 OFFCURVE",
"485 321 CURVE SMOOTH",
"486 265 OFFCURVE",
"458 54 OFFCURVE",
"453 13 CURVE",
"450 -10 OFFCURVE",
"458 -12 OFFCURVE",
"490 -5 CURVE",
"505 -1 OFFCURVE",
"512 1 OFFCURVE",
"515 29 CURVE",
"529 151 OFFCURVE",
"544 243 OFFCURVE",
"544 336 CURVE SMOOTH",
"544 419 OFFCURVE",
"504 451 OFFCURVE",
"448 451 CURVE",
"410 451 OFFCURVE",
"368 430 OFFCURVE",
"331 372 CURVE",
"321 431 OFFCURVE",
"289 451 OFFCURVE",
"241 451 CURVE",
"203 451 OFFCURVE",
"161 432 OFFCURVE",
"126 380 CURVE"
);
}
);
};
layerId = "70F97C4B-94FA-40A4-8E29-E667CA674F9A";
name = Regular;
paths = (
{
closed = 1;
nodes = (
"338 296 OFFCURVE",
"384 393 OFFCURVE",
"438 393 CURVE",
"469 393 OFFCURVE",
"483 372 OFFCURVE",
"483 323 CURVE",
"484 257 OFFCURVE",
"456 55 OFFCURVE",
"451 14 CURVE",
"448 -9 OFFCURVE",
"456 -11 OFFCURVE",
"488 -4 CURVE",
"503 0 OFFCURVE",
"511 2 OFFCURVE",
"514 30 CURVE",
"528 152 OFFCURVE",
"544 246 OFFCURVE",
"544 339 CURVE",
"544 422 OFFCURVE",
"499 451 OFFCURVE",
"452 451 CURVE",
"405 451 OFFCURVE",
"362 422 OFFCURVE",
"331 372 CURVE",
"318 426 OFFCURVE",
"289 451 OFFCURVE",
"246 451 CURVE",
"206 451 OFFCURVE",
"164 424 OFFCURVE",
"131 376 CURVE",
"135 432 LINE",
"136 455 OFFCURVE",
"132 457 OFFCURVE",
"95 450 CURVE",
"76 446 OFFCURVE",
"71 444 OFFCURVE",
"71 416 CURVE",
"71 316 OFFCURVE",
"49 152 OFFCURVE",
"30 13 CURVE",
"27 -10 OFFCURVE",
"34 -11 OFFCURVE",
"65 -4 CURVE",
"80 0 OFFCURVE",
"86 2 OFFCURVE",
"90 30 CURVE",
"112 208 LINE",
"124 301 OFFCURVE",
"184 394 OFFCURVE",
"231 394 CURVE",
"262 394 OFFCURVE",
"276 370 OFFCURVE",
"277 321 CURVE SMOOTH",
"278 255 OFFCURVE",
"250 55 OFFCURVE",
"244 14 CURVE",
"241 -9 OFFCURVE",
"247 -12 OFFCURVE",
"279 -5 CURVE",
"294 -1 OFFCURVE",
"302 4 OFFCURVE",
"305 29 CURVE",
"314 90 OFFCURVE",
"319 154 OFFCURVE",
"326 206 CURVE"
);
}
);
width = 589;
}
);
unicode = 006D;
},
{
glyphname = n;
lastChange = "2015-10-06 06:49:08 +0000";
layers = (
{
anchors = (
{
name = bottom;
position = "{158, 0}";
},
{
name = top;
position = "{228, 447}";
}
);
background = {
paths = (
{
closed = 1;
nodes = (
"68 271 OFFCURVE",
"29 33 OFFCURVE",
"30 13 CURVE",
"27 -10 OFFCURVE",
"34 -11 OFFCURVE",
"65 -4 CURVE",
"80 0 OFFCURVE",
"88 2 OFFCURVE",
"90 30 CURVE",
"112 208 LINE",
"125 321 OFFCURVE",
"170 393 OFFCURVE",
"234 393 CURVE",
"265 393 OFFCURVE",
"283 372 OFFCURVE",
"283 323 CURVE",
"284 257 OFFCURVE",
"256 55 OFFCURVE",
"251 14 CURVE",
"248 -9 OFFCURVE",
"256 -11 OFFCURVE",
"288 -4 CURVE",
"303 0 OFFCURVE",
"311 2 OFFCURVE",
"314 30 CURVE",
"328 152 OFFCURVE",
"344 246 OFFCURVE",
"344 339 CURVE",
"344 422 OFFCURVE",
"299 452 OFFCURVE",
"243 452 CURVE",
"199 452 OFFCURVE",
"160 432 OFFCURVE",
"126 380 CURVE",
"128 449 OFFCURVE",
"130 458 OFFCURVE",
"93 449 CURVE",
"87 448 OFFCURVE",
"69 445 OFFCURVE",
"69 431 CURVE SMOOTH"
);
},
{
closed = 1;
nodes = (
"71 262 OFFCURVE",
"19 -40 OFFCURVE",
"1 -179 CURVE",
"-1 -202 OFFCURVE",
"6 -204 OFFCURVE",
"42 -196 CURVE",
"56 -192 OFFCURVE",
"62 -190 OFFCURVE",
"65 -162 CURVE",
"75 -78 OFFCURVE",
"94 62 OFFCURVE",
"111 199 CURVE",
"121 281 OFFCURVE",
"179 392 OFFCURVE",
"236 392 CURVE",
"274 392 OFFCURVE",
"291 349 OFFCURVE",
"291 295 CURVE",
"291 217 OFFCURVE",
"265 49 OFFCURVE",
"163 49 CURVE",
"128 49 OFFCURVE",
"107 62 OFFCURVE",
"63 94 CURVE",
"38 55 LINE",
"80 21 OFFCURVE",
"114 -8 OFFCURVE",
"168 -8 CURVE",
"287 -8 OFFCURVE",
"350 138 OFFCURVE",
"350 299 CURVE",
"350 394 OFFCURVE",
"311 451 OFFCURVE",
"245 451 CURVE",
"192 451 OFFCURVE",
"162 423 OFFCURVE",
"131 376 CURVE",
"135 432 LINE",
"136 455 OFFCURVE",
"132 457 OFFCURVE",
"95 450 CURVE",
"76 446 OFFCURVE",
"71 444 OFFCURVE",
"71 416 CURVE"
);
}
);
};
layerId = "70F97C4B-94FA-40A4-8E29-E667CA674F9A";
name = Regular;
paths = (
{
closed = 1;
nodes = (
"27 -10 OFFCURVE",
"34 -11 OFFCURVE",
"65 -4 CURVE",
"80 0 OFFCURVE",
"86 2 OFFCURVE",
"90 30 CURVE",
"112 208 LINE",
"124 301 OFFCURVE",
"184 393 OFFCURVE",
"238 393 CURVE",
"269 393 OFFCURVE",
"283 372 OFFCURVE",
"283 323 CURVE",
"284 257 OFFCURVE",
"256 55 OFFCURVE",
"251 14 CURVE",
"248 -9 OFFCURVE",
"256 -11 OFFCURVE",
"288 -4 CURVE",
"303 0 OFFCURVE",
"311 2 OFFCURVE",
"314 30 CURVE",
"328 152 OFFCURVE",
"344 246 OFFCURVE",
"344 339 CURVE",
"344 422 OFFCURVE",
"299 451 OFFCURVE",
"252 451 CURVE",
"205 451 OFFCURVE",
"164 424 OFFCURVE",
"131 376 CURVE",
"135 432 LINE",
"136 455 OFFCURVE",
"132 457 OFFCURVE",
"95 450 CURVE",
"76 446 OFFCURVE",
"71 444 OFFCURVE",
"71 416 CURVE",
"71 316 OFFCURVE",
"49 152 OFFCURVE",
"30 13 CURVE"
);
}
);
width = 389;
}
);
unicode = 006E;
},
{
glyphname = o;
lastChange = "2015-09-22 10:30:56 +0000";
layers = (
{
anchors = (
{
name = bottom;
position = "{143, 0}";
},
{
name = top;
position = "{220, 447}";
}
);
background = {
paths = (
{
closed = 1;
nodes = (
"230 451 LINE",
"298 451 OFFCURVE",
"338 385 OFFCURVE",
"333 290 CURVE",
"333 129 OFFCURVE",
"268 -3 OFFCURVE",
"149 -3 CURVE",
"137 -3 LINE",
"69 -3 OFFCURVE",
"29 63 OFFCURVE",
"34 158 CURVE",
"34 319 OFFCURVE",
"99 451 OFFCURVE",
"218 451 CURVE"
);
},
{
closed = 1;
nodes = (
"120 392 OFFCURVE",
"94 228 OFFCURVE",
"94 160 CURVE",
"94 96 OFFCURVE",
"108 54 OFFCURVE",
"145 54 CURVE",
"247 54 OFFCURVE",
"273 218 OFFCURVE",
"273 286 CURVE",
"273 350 OFFCURVE",
"259 392 OFFCURVE",
"222 392 CURVE"
);
},
{
closed = 1;
nodes = (
"276 350 OFFCURVE",
"259 392 OFFCURVE",
"218 392 CURVE",
"120 392 OFFCURVE",
"91 232 OFFCURVE",
"91 160 CURVE",
"91 96 OFFCURVE",
"108 48 OFFCURVE",
"149 48 CURVE",
"247 48 OFFCURVE",
"276 215 OFFCURVE",
"276 286 CURVE"
);
},
{
closed = 1;
nodes = (
"70 -9 OFFCURVE",
"31 67 OFFCURVE",
"31 147 CURVE",
"31 311 OFFCURVE",
"97 451 OFFCURVE",
"224 451 CURVE",
"297 451 OFFCURVE",
"336 381 OFFCURVE",
"336 301 CURVE",
"336 137 OFFCURVE",
"270 -9 OFFCURVE",
"143 -9 CURVE"
);
},
{
closed = 1;
nodes = (
"271 351 OFFCURVE",
"252 392 OFFCURVE",
"211 392 CURVE",
"113 392 OFFCURVE",
"88 230 OFFCURVE",
"88 158 CURVE",
"88 94 OFFCURVE",
"107 47 OFFCURVE",
"148 47 CURVE",
"246 47 OFFCURVE",
"271 216 OFFCURVE",
"271 287 CURVE"
);
},
{
closed = 1;
nodes = (
"70 -9 OFFCURVE",
"30 63 OFFCURVE",
"29 144 CURVE",
"29 308 OFFCURVE",
"89 451 OFFCURVE",
"216 451 CURVE",
"289 451 OFFCURVE",
"331 383 OFFCURVE",
"331 296 CURVE",
"331 139 OFFCURVE",
"270 -10 OFFCURVE",
"143 -10 CURVE"
);
},
{
closed = 1;
nodes = (
"89 451 OFFCURVE",
"29 308 OFFCURVE",
"29 144 CURVE",
"30 63 OFFCURVE",
"70 -9 OFFCURVE",
"143 -10 CURVE",
"270 -10 OFFCURVE",
"330 133 OFFCURVE",
"330 297 CURVE",
"329 378 OFFCURVE",
"289 450 OFFCURVE",
"216 451 CURVE"
);
},
{
closed = 1;
nodes = (
"107 47 OFFCURVE",
"88 94 OFFCURVE",
"88 158 CURVE",
"88 230 OFFCURVE",
"113 392 OFFCURVE",
"211 392 CURVE",
"252 392 OFFCURVE",
"271 347 OFFCURVE",
"271 283 CURVE",
"271 211 OFFCURVE",
"246 47 OFFCURVE",
"148 47 CURVE"
);
}
);
};
layerId = "70F97C4B-94FA-40A4-8E29-E667CA674F9A";
name = Regular;
paths = (
{
closed = 1;
nodes = (
"89 451 OFFCURVE",
"29 308 OFFCURVE",
"29 144 CURVE",
"30 63 OFFCURVE",
"70 -9 OFFCURVE",
"143 -10 CURVE",
"270 -10 OFFCURVE",
"330 133 OFFCURVE",
"330 297 CURVE",
"329 378 OFFCURVE",
"289 450 OFFCURVE",
"216 451 CURVE"
);
},
{
closed = 1;
nodes = (
"107 47 OFFCURVE",
"88 94 OFFCURVE",
"88 158 CURVE",
"88 230 OFFCURVE",
"113 392 OFFCURVE",
"211 392 CURVE",
"252 392 OFFCURVE",
"271 347 OFFCURVE",
"271 283 CURVE",
"271 211 OFFCURVE",
"246 47 OFFCURVE",
"148 47 CURVE"
);
}
);
width = 359;
}
);
unicode = 006F;
},
{
glyphname = p;
lastChange = "2015-10-06 07:16:23 +0000";
layers = (
{
background = {
paths = (
{
closed = 1;
nodes = (
"563 422 OFFCURVE",
"593 450 OFFCURVE",
"646 450 CURVE",
"709 449 OFFCURVE",
"752 393 OFFCURVE",
"751 298 CURVE",
"749 137 OFFCURVE",
"688 -10 OFFCURVE",
"569 -9 CURVE",
"515 -9 OFFCURVE",
"481 20 OFFCURVE",
"438 54 CURVE",
"464 93 LINE",
"508 61 OFFCURVE",
"529 48 OFFCURVE",
"564 48 CURVE",
"666 47 OFFCURVE",
"690 226 OFFCURVE",
"691 294 CURVE",
"691 348 OFFCURVE",
"675 391 OFFCURVE",
"626 391 CURVE",
"570 391 OFFCURVE",
"524 300 OFFCURVE",
"512 198 CURVE",
"495 61 OFFCURVE",
"468 -149 OFFCURVE",
"458 -233 CURVE",
"455 -261 OFFCURVE",
"449 -263 OFFCURVE",
"435 -267 CURVE",
"399 -275 OFFCURVE",
"392 -273 OFFCURVE",
"394 -250 CURVE",
"412 -111 OFFCURVE",
"442 90 OFFCURVE",
"461 234 CURVE SMOOTH",
"472 313 OFFCURVE",
"479 375 OFFCURVE",
"479 401 CURVE",
"446 382 OFFCURVE",
"435 358 OFFCURVE",
"425 358 CURVE",
"412 358 OFFCURVE",
"395 383 OFFCURVE",
"396 399 CURVE",
"396 414 OFFCURVE",
"454 450 OFFCURVE",
"494 449 CURVE",
"530 449 OFFCURVE",
"533 407 OFFCURVE",
"532 375 CURVE"
);
},
{
closed = 1;
nodes = (
"80 265 OFFCURVE",
"23 -36 OFFCURVE",
"2 -175 CURVE",
"0 -198 OFFCURVE",
"7 -200 OFFCURVE",
"43 -193 CURVE",
"57 -189 OFFCURVE",
"63 -187 OFFCURVE",
"67 -159 CURVE",
"78 -75 OFFCURVE",
"100 64 OFFCURVE",
"119 201 CURVE",
"132 283 OFFCURVE",
"190 393 OFFCURVE",
"247 392 CURVE",
"285 391 OFFCURVE",
"301 348 OFFCURVE",
"300 294 CURVE",
"298 226 OFFCURVE",
"270 47 OFFCURVE",
"168 50 CURVE",
"133 51 OFFCURVE",
"113 64 OFFCURVE",
"69 97 CURVE",
"43 58 LINE",
"85 24 OFFCURVE",
"118 -6 OFFCURVE",
"172 -7 CURVE",
"291 -10 OFFCURVE",
"355 136 OFFCURVE",
"360 297 CURVE",
"362 392 OFFCURVE",
"323 448 OFFCURVE",
"257 451 CURVE",
"204 452 OFFCURVE",
"174 424 OFFCURVE",
"142 378 CURVE",
"147 434 LINE",
"151 456 OFFCURVE",
"144 459 OFFCURVE",
"107 452 CURVE",
"88 449 OFFCURVE",
"83 447 OFFCURVE",
"83 419 CURVE"
);
}
);
};
layerId = "70F97C4B-94FA-40A4-8E29-E667CA674F9A";
name = Regular;
paths = (
{
closed = 1;
nodes = (
"72 262 OFFCURVE",
"20 -40 OFFCURVE",
"2 -179 CURVE",
"0 -202 OFFCURVE",
"7 -204 OFFCURVE",
"43 -196 CURVE",
"57 -192 OFFCURVE",
"63 -190 OFFCURVE",
"66 -162 CURVE",
"76 -78 OFFCURVE",
"95 62 OFFCURVE",
"112 199 CURVE",
"122 281 OFFCURVE",
"180 392 OFFCURVE",
"237 392 CURVE",
"275 392 OFFCURVE",
"292 349 OFFCURVE",
"292 295 CURVE",
"292 217 OFFCURVE",
"266 49 OFFCURVE",
"164 49 CURVE",
"129 49 OFFCURVE",
"108 62 OFFCURVE",
"64 94 CURVE",
"39 55 LINE",
"81 21 OFFCURVE",
"115 -8 OFFCURVE",
"169 -8 CURVE",
"288 -8 OFFCURVE",
"351 138 OFFCURVE",
"351 299 CURVE",
"351 394 OFFCURVE",
"312 451 OFFCURVE",
"246 451 CURVE",
"193 451 OFFCURVE",
"163 423 OFFCURVE",
"132 376 CURVE",
"136 432 LINE",
"137 455 OFFCURVE",
"133 457 OFFCURVE",
"96 450 CURVE",
"77 446 OFFCURVE",
"72 444 OFFCURVE",
"72 416 CURVE"
);
}
);
width = 379;
}
);
unicode = 0070;
},
{
glyphname = q;
lastChange = "2015-10-06 07:19:22 +0000";
layers = (
{
background = {
paths = (
{
closed = 1;
nodes = (
"72 -8 OFFCURVE",
"29 54 OFFCURVE",
"29 164 CURVE",
"31 311 OFFCURVE",
"92 450 OFFCURVE",
"211 449 CURVE",
"261 449 OFFCURVE",
"293 425 OFFCURVE",
"329 398 CURVE",
"319 336 LINE",
"286 371 OFFCURVE",
"256 392 OFFCURVE",
"216 392 CURVE",
"114 393 OFFCURVE",
"90 234 OFFCURVE",
"89 166 CURVE",
"89 102 OFFCURVE",
"103 49 OFFCURVE",
"152 49 CURVE",
"207 50 OFFCURVE",
"254 125 OFFCURVE",
"268 234 CURVE",
"290 412 LINE",
"292 440 OFFCURVE",
"298 442 OFFCURVE",
"313 446 CURVE",
"342 454 OFFCURVE",
"351 452 OFFCURVE",
"348 429 CURVE",
"348 420 OFFCURVE",
"336 327 OFFCURVE",
"322 213 CURVE SMOOTH",
"306 87 OFFCURVE",
"288 -65 OFFCURVE",
"278 -158 CURVE",
"275 -186 OFFCURVE",
"269 -189 OFFCURVE",
"254 -193 CURVE",
"219 -200 OFFCURVE",
"217 -199 OFFCURVE",
"219 -176 CURVE",
"243 24 LINE",
"250 59 LINE",
"218 13 OFFCURVE",
"188 -9 OFFCURVE",
"135 -9 CURVE"
);
}
);
};
layerId = "70F97C4B-94FA-40A4-8E29-E667CA674F9A";
name = Regular;
paths = (
{
closed = 1;
nodes = (
"288 -74 OFFCURVE",
"279 -168 CURVE",
"277 -186 OFFCURVE",
"269 -189 OFFCURVE",
"254 -193 CURVE",
"227 -199 OFFCURVE",
"216 -199 OFFCURVE",
"218 -176 CURVE",
"243 24 LINE",
"250 59 LINE",
"218 13 OFFCURVE",
"188 -9 OFFCURVE",
"135 -9 CURVE",
"72 -8 OFFCURVE",
"29 54 OFFCURVE",
"29 164 CURVE",
"31 311 OFFCURVE",
"92 450 OFFCURVE",
"211 449 CURVE",
"261 449 OFFCURVE",
"293 415 OFFCURVE",
"333 375 CURVE",
"316 328 LINE",
"283 360 OFFCURVE",
"261 392 OFFCURVE",
"216 392 CURVE",
"114 393 OFFCURVE",
"90 234 OFFCURVE",
"89 166 CURVE",
"89 102 OFFCURVE",
"103 49 OFFCURVE",
"152 49 CURVE",
"207 50 OFFCURVE",
"254 125 OFFCURVE",
"268 234 CURVE",
"287 368 OFFCURVE",
"281 336 OFFCURVE",
"292 421 CURVE",
"295 449 OFFCURVE",
"301 451 OFFCURVE",
"316 455 CURVE",
"350 462 OFFCURVE",
"357 460 OFFCURVE",
"354 437 CURVE",
"301 72 OFFCURVE"
);
}
);
width = 381;
}
);
unicode = 0071;
},
{
glyphname = r;
lastChange = "2015-10-06 07:20:49 +0000";
layers = (
{
anchors = (
{
name = bottom;
position = "{51, 0}";
},
{
name = top;
position = "{183, 447}";
}
);
background = {
paths = (
{
closed = 1;
nodes = (
"68 271 OFFCURVE",
"29 33 OFFCURVE",
"30 13 CURVE",
"27 -10 OFFCURVE",
"34 -11 OFFCURVE",
"65 -4 CURVE",
"80 0 OFFCURVE",
"88 2 OFFCURVE",
"90 30 CURVE",
"112 208 LINE",
"126 327 OFFCURVE",
"176 390 OFFCURVE",
"232 390 CURVE SMOOTH",
"260 390 OFFCURVE",
"269 384 OFFCURVE",
"274 418 CURVE",
"277 447 OFFCURVE",
"274 452 OFFCURVE",
"252 452 CURVE",
"195 452 OFFCURVE",
"160 432 OFFCURVE",
"126 380 CURVE",
"128 449 OFFCURVE",
"130 458 OFFCURVE",
"93 449 CURVE",
"87 448 OFFCURVE",
"69 445 OFFCURVE",
"69 431 CURVE SMOOTH"
);
}
);
};
layerId = "70F97C4B-94FA-40A4-8E29-E667CA674F9A";
name = Regular;
paths = (
{
closed = 1;
nodes = (
"181 380 OFFCURVE",
"245 387 CURVE SMOOTH",
"265 389 OFFCURVE",
"271 393 OFFCURVE",
"274 418 CURVE",
"277 447 OFFCURVE",
"274 452 OFFCURVE",
"252 452 CURVE",
"205 452 OFFCURVE",
"164 424 OFFCURVE",
"131 376 CURVE",
"135 432 LINE",
"136 455 OFFCURVE",
"132 457 OFFCURVE",
"95 450 CURVE",
"76 446 OFFCURVE",
"71 444 OFFCURVE",
"71 416 CURVE",
"71 316 OFFCURVE",
"49 152 OFFCURVE",
"30 13 CURVE",
"27 -10 OFFCURVE",
"34 -11 OFFCURVE",
"65 -4 CURVE",
"80 0 OFFCURVE",
"86 2 OFFCURVE",
"90 30 CURVE",
"112 208 LINE",
"128 336 OFFCURVE"
);
}
);
width = 265;
}
);
unicode = 0072;
},
{
glyphname = s;
lastChange = "2015-10-06 07:22:01 +0000";
layers = (
{
anchors = (
{
name = bottom;
position = "{132, 0}";
},
{
name = top;
position = "{189, 447}";
}
);
background = {
paths = (
{
closed = 1;
nodes = (
"300 409 OFFCURVE",
"279 424 CURVE SMOOTH",
"254 441 OFFCURVE",
"224 455 OFFCURVE",
"188 455 CURVE SMOOTH",
"109 455 OFFCURVE",
"56 412 OFFCURVE",
"56 338 CURVE",
"56 284 OFFCURVE",
"89 246 OFFCURVE",
"131 220 CURVE SMOOTH",
"170 195 OFFCURVE",
"221 165 OFFCURVE",
"221 119 CURVE",
"221 76 OFFCURVE",
"187 52 OFFCURVE",
"145 52 CURVE",
"108 52 OFFCURVE",
"80 71 OFFCURVE",
"55 99 CURVE SMOOTH",
"42 113 OFFCURVE",
"36 111 OFFCURVE",
"19 94 CURVE",
"6 82 OFFCURVE",
"2 73 OFFCURVE",
"12 60 CURVE SMOOTH",
"57 3 OFFCURVE",
"116 -8 OFFCURVE",
"146 -8 CURVE",
"214 -8 OFFCURVE",
"281 39 OFFCURVE",
"281 117 CURVE",
"281 182 OFFCURVE",
"230 223 OFFCURVE",
"186 252 CURVE SMOOTH",
"149 277 OFFCURVE",
"114 297 OFFCURVE",
"114 339 CURVE",
"114 383 OFFCURVE",
"146 397 OFFCURVE",
"183 397 CURVE SMOOTH",
"203 397 OFFCURVE",
"221 391 OFFCURVE",
"242 377 CURVE SMOOTH",
"262 364 OFFCURVE",
"267 370 OFFCURVE",
"280 386 CURVE",
"295 403 OFFCURVE"
);
},
{
closed = 1;
nodes = (
"293 372 LINE",
"275 421 OFFCURVE",
"233 454 OFFCURVE",
"176 454 CURVE SMOOTH",
"111 454 OFFCURVE",
"56 415 OFFCURVE",
"56 347 CURVE",
"56 291 OFFCURVE",
"90 255 OFFCURVE",
"132 221 CURVE SMOOTH",
"174 187 OFFCURVE",
"220 160 OFFCURVE",
"220 115 CURVE",
"220 80 OFFCURVE",
"192 50 OFFCURVE",
"146 50 CURVE",
"103 50 OFFCURVE",
"68 84 OFFCURVE",
"49 122 CURVE",
"2 90 LINE",
"27 33 OFFCURVE",
"80 -8 OFFCURVE",
"144 -8 CURVE",
"218 -8 OFFCURVE",
"278 39 OFFCURVE",
"278 117 CURVE",
"278 179 OFFCURVE",
"238 210 OFFCURVE",
"183 252 CURVE SMOOTH",
"138 286 OFFCURVE",
"114 311 OFFCURVE",
"114 346 CURVE",
"114 385 OFFCURVE",
"147 398 OFFCURVE",
"176 398 CURVE SMOOTH",
"209 398 OFFCURVE",
"229 378 OFFCURVE",
"241 348 CURVE"
);
}
);
};
layerId = "70F97C4B-94FA-40A4-8E29-E667CA674F9A";
name = Regular;
paths = (
{
closed = 1;
nodes = (
"267 360 CURVE",
"287 371 OFFCURVE",
"295 376 OFFCURVE",
"287 391 CURVE SMOOTH",
"266 430 OFFCURVE",
"229 454 OFFCURVE",
"174 454 CURVE SMOOTH",
"109 454 OFFCURVE",
"55 415 OFFCURVE",
"55 347 CURVE",
"55 289 OFFCURVE",
"88 256 OFFCURVE",
"131 222 CURVE SMOOTH",
"173 188 OFFCURVE",
"220 160 OFFCURVE",
"220 115 CURVE",
"220 80 OFFCURVE",
"192 50 OFFCURVE",
"146 50 CURVE",
"110 50 OFFCURVE",
"79 74 OFFCURVE",
"59 104 CURVE SMOOTH",
"49 119 OFFCURVE",
"43 118 OFFCURVE",
"26 106 CURVE",
"8 94 OFFCURVE",
"2 85 OFFCURVE",
"10 72 CURVE SMOOTH",
"39 27 OFFCURVE",
"87 -8 OFFCURVE",
"144 -8 CURVE",
"218 -8 OFFCURVE",
"279 39 OFFCURVE",
"279 117 CURVE",
"279 179 OFFCURVE",
"238 213 OFFCURVE",
"183 255 CURVE SMOOTH",
"138 289 OFFCURVE",
"114 311 OFFCURVE",
"114 346 CURVE",
"114 385 OFFCURVE",
"143 398 OFFCURVE",
"172 398 CURVE SMOOTH",
"198 398 OFFCURVE",
"218 387 OFFCURVE",
"233 367 CURVE SMOOTH",
"244 352 OFFCURVE",
"251 353 OFFCURVE"
);
}
);
width = 316;
}
);
unicode = 0073;
},
{
glyphname = t;
lastChange = "2015-10-06 07:24:53 +0000";
layers = (
{
anchors = (
{
name = bottom;
position = "{129, 0}";
}
);
background = {
paths = (
{
closed = 1;
nodes = (
"117 263 OFFCURVE",
"169 582 OFFCURVE",
"176 622 CURVE",
"179 645 OFFCURVE",
"176 647 OFFCURVE",
"140 640 CURVE",
"125 636 OFFCURVE",
"119 634 OFFCURVE",
"116 606 CURVE",
"103 525 OFFCURVE",
"58 267 OFFCURVE",
"58 132 CURVE",
"59 53 OFFCURVE",
"75 -9 OFFCURVE",
"142 -10 CURVE",
"185 -10 OFFCURVE",
"217 7 OFFCURVE",
"246 40 CURVE",
"205 79 LINE",
"189 60 OFFCURVE",
"177 47 OFFCURVE",
"149 47 CURVE",
"123 47 OFFCURVE",
"117 84 OFFCURVE",
"117 138 CURVE"
);
},
{
closed = 1;
nodes = (
"61 443 LINE",
"32 443 OFFCURVE",
"24 439 OFFCURVE",
"19 420 CURVE",
"14 397 OFFCURVE",
"16 389 OFFCURVE",
"48 389 CURVE",
"202 389 LINE",
"231 389 OFFCURVE",
"237 393 OFFCURVE",
"244 416 CURVE",
"250 435 OFFCURVE",
"247 443 OFFCURVE",
"215 443 CURVE"
);
},
{
closed = 1;
nodes = (
"117 233 OFFCURVE",
"179 582 OFFCURVE",
"186 622 CURVE",
"189 645 OFFCURVE",
"186 647 OFFCURVE",
"150 640 CURVE",
"135 636 OFFCURVE",
"129 634 OFFCURVE",
"126 606 CURVE",
"113 525 OFFCURVE",
"58 237 OFFCURVE",
"58 102 CURVE",
"59 43 OFFCURVE",
"75 -9 OFFCURVE",
"142 -10 CURVE",
"185 -10 OFFCURVE",
"217 7 OFFCURVE",
"246 40 CURVE",
"211 83 LINE",
"195 64 OFFCURVE",
"177 47 OFFCURVE",
"149 47 CURVE",
"123 47 OFFCURVE",
"117 74 OFFCURVE",
"117 108 CURVE"
);
},
{
closed = 1;
nodes = (
"55 443 LINE",
"26 443 OFFCURVE",
"18 439 OFFCURVE",
"13 420 CURVE",
"8 397 OFFCURVE",
"10 389 OFFCURVE",
"42 389 CURVE",
"212 389 LINE",
"241 389 OFFCURVE",
"247 393 OFFCURVE",
"254 416 CURVE",
"260 435 OFFCURVE",
"257 443 OFFCURVE",
"225 443 CURVE"
);
}
);
};
layerId = "70F97C4B-94FA-40A4-8E29-E667CA674F9A";
name = Regular;
paths = (
{
closed = 1;
nodes = (
"117 233 OFFCURVE",
"179 582 OFFCURVE",
"186 622 CURVE",
"189 645 OFFCURVE",
"186 647 OFFCURVE",
"150 640 CURVE",
"135 636 OFFCURVE",
"129 634 OFFCURVE",
"126 606 CURVE",
"113 525 OFFCURVE",
"58 237 OFFCURVE",
"58 102 CURVE",
"59 43 OFFCURVE",
"75 -9 OFFCURVE",
"142 -10 CURVE",
"177 -10 OFFCURVE",
"205 4 OFFCURVE",
"230 24 CURVE SMOOTH",
"248 39 OFFCURVE",
"242 45 OFFCURVE",
"229 61 CURVE",
"215 78 OFFCURVE",
"210 80 OFFCURVE",
"195 67 CURVE SMOOTH",
"183 57 OFFCURVE",
"168 47 OFFCURVE",
"149 47 CURVE",
"123 47 OFFCURVE",
"117 74 OFFCURVE",
"117 108 CURVE"
);
},
{
closed = 1;
nodes = (
"55 443 LINE",
"26 443 OFFCURVE",
"18 442 OFFCURVE",
"13 420 CURVE",
"7 394 OFFCURVE",
"10 389 OFFCURVE",
"42 389 CURVE",
"212 389 LINE",
"241 389 OFFCURVE",
"247 393 OFFCURVE",
"254 416 CURVE",
"260 437 OFFCURVE",
"256 443 OFFCURVE",
"232 443 CURVE"
);
}
);
width = 262;
}
);
unicode = 0074;
},
{
glyphname = u;
lastChange = "2015-10-06 07:27:25 +0000";
layers = (
{
anchors = (
{
name = bottom;
position = "{147, 0}";
},
{
name = top;
position = "{216, 447}";
}
);
background = {
paths = (
{
closed = 1;
nodes = (
"507 50 OFFCURVE",
"492 72 OFFCURVE",
"491 121 CURVE",
"491 207 OFFCURVE",
"530 397 OFFCURVE",
"533 431 CURVE",
"536 454 OFFCURVE",
"529 456 OFFCURVE",
"493 449 CURVE",
"478 445 OFFCURVE",
"472 443 OFFCURVE",
"469 415 CURVE",
"461 358 OFFCURVE",
"430 175 OFFCURVE",
"430 110 CURVE",
"430 27 OFFCURVE",
"472 -9 OFFCURVE",
"528 -9 CURVE",
"581 -9 OFFCURVE",
"614 21 OFFCURVE",
"644 67 CURVE",
"644 35 OFFCURVE",
"646 -7 OFFCURVE",
"682 -7 CURVE",
"722 -7 OFFCURVE",
"781 27 OFFCURVE",
"781 42 CURVE",
"781 58 OFFCURVE",
"765 83 OFFCURVE",
"752 83 CURVE",
"742 83 OFFCURVE",
"730 60 OFFCURVE",
"698 40 CURVE",
"698 102 OFFCURVE",
"726 265 OFFCURVE",
"751 431 CURVE",
"754 454 OFFCURVE",
"747 456 OFFCURVE",
"711 449 CURVE",
"696 445 OFFCURVE",
"690 443 OFFCURVE",
"687 415 CURVE",
"679 352 OFFCURVE",
"671 262 OFFCURVE",
"650 184 CURVE SMOOTH",
"630 109 OFFCURVE",
"594 50 OFFCURVE",
"538 50 CURVE"
);
},
{
closed = 1;
nodes = (
"355 409 OFFCURVE",
"354 429 CURVE",
"357 452 OFFCURVE",
"350 453 OFFCURVE",
"319 446 CURVE",
"304 442 OFFCURVE",
"296 440 OFFCURVE",
"294 412 CURVE",
"272 234 LINE",
"259 121 OFFCURVE",
"214 49 OFFCURVE",
"150 49 CURVE",
"119 49 OFFCURVE",
"101 70 OFFCURVE",
"101 119 CURVE",
"100 185 OFFCURVE",
"128 387 OFFCURVE",
"133 428 CURVE",
"136 451 OFFCURVE",
"128 453 OFFCURVE",
"96 446 CURVE",
"81 442 OFFCURVE",
"73 440 OFFCURVE",
"70 412 CURVE",
"56 290 OFFCURVE",
"40 196 OFFCURVE",
"40 103 CURVE",
"40 20 OFFCURVE",
"85 -10 OFFCURVE",
"141 -10 CURVE",
"185 -10 OFFCURVE",
"224 10 OFFCURVE",
"258 62 CURVE",
"256 -7 OFFCURVE",
"254 -16 OFFCURVE",
"291 -7 CURVE",
"297 -6 OFFCURVE",
"315 -3 OFFCURVE",
"315 11 CURVE SMOOTH",
"316 171 OFFCURVE"
);
}
);
};
layerId = "70F97C4B-94FA-40A4-8E29-E667CA674F9A";
name = Regular;
paths = (
{
closed = 1;
nodes = (
"253 -3 OFFCURVE",
"254 -11 OFFCURVE",
"291 -5 CURVE",
"297 -4 OFFCURVE",
"314 -1 OFFCURVE",
"315 13 CURVE SMOOTH",
"316 39 OFFCURVE",
"317 90 OFFCURVE",
"323 158 CURVE",
"335 288 OFFCURVE",
"355 415 OFFCURVE",
"354 429 CURVE",
"357 452 OFFCURVE",
"350 453 OFFCURVE",
"319 446 CURVE",
"304 442 OFFCURVE",
"296 440 OFFCURVE",
"294 412 CURVE",
"272 234 LINE",
"259 121 OFFCURVE",
"214 49 OFFCURVE",
"150 49 CURVE",
"119 49 OFFCURVE",
"100 70 OFFCURVE",
"100 119 CURVE",
"99 185 OFFCURVE",
"126 387 OFFCURVE",
"131 428 CURVE",
"134 451 OFFCURVE",
"126 453 OFFCURVE",
"96 446 CURVE",
"81 442 OFFCURVE",
"73 440 OFFCURVE",
"70 412 CURVE",
"56 290 OFFCURVE",
"40 196 OFFCURVE",
"40 103 CURVE",
"40 24 OFFCURVE",
"85 -10 OFFCURVE",
"141 -10 CURVE",
"192 -10 OFFCURVE",
"234 24 OFFCURVE",
"260 76 CURVE"
);
}
);
width = 379;
}
);
unicode = 0075;
},
{
glyphname = v;
lastChange = "2015-09-16 13:44:36 +0000";
layers = (
{
background = {
paths = (
{
closed = 1;
nodes = (
"-105 450 OFFCURVE",
"-109 446 OFFCURVE",
"-120 422 CURVE",
"-137 389 OFFCURVE",
"-195 249 OFFCURVE",
"-240 150 CURVE SMOOTH",
"-249 131 OFFCURVE",
"-259 101 OFFCURVE",
"-266 85 CURVE",
"-269 102 OFFCURVE",
"-267 132 OFFCURVE",
"-271 151 CURVE SMOOTH",
"-288 241 OFFCURVE",
"-315 368 OFFCURVE",
"-326 427 CURVE SMOOTH",
"-330 446 OFFCURVE",
"-336 454 OFFCURVE",
"-360 447 CURVE",
"-380 442 OFFCURVE",
"-387 435 OFFCURVE",
"-383 415 CURVE SMOOTH",
"-364 315 OFFCURVE",
"-311 31 OFFCURVE",
"-305 4 CURVE",
"-301 -16 OFFCURVE",
"-257 -9 OFFCURVE",
"-248 9 CURVE",
"-145 225 OFFCURVE",
"-160 203 OFFCURVE",
"-63 410 CURVE SMOOTH",
"-53 432 OFFCURVE",
"-62 439 OFFCURVE",
"-89 447 CURVE"
);
},
{
closed = 1;
nodes = (
"-63 249 OFFCURVE",
"-100 149 OFFCURVE",
"-156 77 CURVE SMOOTH",
"-193 28 OFFCURVE",
"-241 -8 OFFCURVE",
"-289 -8 CURVE",
"-339 -8 OFFCURVE",
"-379 23 OFFCURVE",
"-379 148 CURVE SMOOTH",
"-379 248 OFFCURVE",
"-352 369 OFFCURVE",
"-342 415 CURVE",
"-336 443 OFFCURVE",
"-332 445 OFFCURVE",
"-317 449 CURVE",
"-286 456 OFFCURVE",
"-279 453 OFFCURVE",
"-282 430 CURVE",
"-287 401 OFFCURVE",
"-320 259 OFFCURVE",
"-320 152 CURVE SMOOTH",
"-320 59 OFFCURVE",
"-299 52 OFFCURVE",
"-282 52 CURVE SMOOTH",
"-220 52 OFFCURVE",
"-120 214 OFFCURVE",
"-120 312 CURVE",
"-120 350 OFFCURVE",
"-130 376 OFFCURVE",
"-149 414 CURVE SMOOTH",
"-160 436 OFFCURVE",
"-152 440 OFFCURVE",
"-133 449 CURVE",
"-113 458 OFFCURVE",
"-107 458 OFFCURVE",
"-96 438 CURVE SMOOTH",
"-72 393 OFFCURVE",
"-63 352 OFFCURVE",
"-63 307 CURVE"
);
},
{
closed = 1;
nodes = (
"722 307 OFFCURVE",
"679 187 OFFCURVE",
"643 104 CURVE SMOOTH",
"612 34 OFFCURVE",
"584 -13 OFFCURVE",
"525 -15 CURVE",
"448 -14 OFFCURVE",
"449 321 OFFCURVE",
"437 439 CURVE",
"497 455 LINE",
"514 352 OFFCURVE",
"504 46 OFFCURVE",
"546 45 CURVE",
"615 174 OFFCURVE",
"657 301 OFFCURVE",
"687 447 CURVE",
"747 434 LINE"
);
},
{
closed = 1;
nodes = (
"725 307 OFFCURVE",
"685 187 OFFCURVE",
"649 104 CURVE SMOOTH",
"618 34 OFFCURVE",
"584 -8 OFFCURVE",
"536 -8 CURVE",
"448 -7 OFFCURVE",
"444 321 OFFCURVE",
"437 439 CURVE",
"497 455 LINE",
"497 352 OFFCURVE",
"515 73 OFFCURVE",
"548 51 CURVE",
"600 103 OFFCURVE",
"667 301 OFFCURVE",
"697 447 CURVE",
"755 434 LINE"
);
},
{
closed = 1;
nodes = (
"321 307 OFFCURVE",
"299 234 OFFCURVE",
"266 151 CURVE SMOOTH",
"253 119 OFFCURVE",
"237 83 OFFCURVE",
"219 54 CURVE SMOOTH",
"197 19 OFFCURVE",
"169 -8 OFFCURVE",
"136 -8 CURVE",
"96 -8 OFFCURVE",
"74 57 OFFCURVE",
"61 140 CURVE SMOOTH",
"44 243 OFFCURVE",
"40 373 OFFCURVE",
"36 439 CURVE",
"97 455 LINE",
"98 379 OFFCURVE",
"108 212 OFFCURVE",
"126 119 CURVE SMOOTH",
"132 86 OFFCURVE",
"138 57 OFFCURVE",
"148 57 CURVE",
"161 57 OFFCURVE",
"177 91 OFFCURVE",
"189 118 CURVE SMOOTH",
"228 205 OFFCURVE",
"274 337 OFFCURVE",
"297 447 CURVE",
"355 434 LINE"
);
}
);
};
layerId = "70F97C4B-94FA-40A4-8E29-E667CA674F9A";
name = Regular;
paths = (
{
closed = 1;
nodes = (
"350 438 OFFCURVE",
"356 437 OFFCURVE",
"351 416 CURVE SMOOTH",
"317 299 OFFCURVE",
"297 229 OFFCURVE",
"266 151 CURVE SMOOTH",
"253 119 OFFCURVE",
"237 83 OFFCURVE",
"219 54 CURVE SMOOTH",
"197 19 OFFCURVE",
"169 -8 OFFCURVE",
"136 -8 CURVE",
"96 -8 OFFCURVE",
"77 59 OFFCURVE",
"64 142 CURVE SMOOTH",
"50 234 OFFCURVE",
"40 344 OFFCURVE",
"38 414 CURVE SMOOTH",
"36 437 OFFCURVE",
"40 438 OFFCURVE",
"66 445 CURVE",
"91 451 OFFCURVE",
"98 452 OFFCURVE",
"98 430 CURVE SMOOTH",
"101 342 OFFCURVE",
"110 203 OFFCURVE",
"126 119 CURVE SMOOTH",
"132 86 OFFCURVE",
"138 57 OFFCURVE",
"148 57 CURVE",
"161 57 OFFCURVE",
"177 91 OFFCURVE",
"189 118 CURVE SMOOTH",
"226 200 OFFCURVE",
"268 323 OFFCURVE",
"293 430 CURVE SMOOTH",
"296 447 OFFCURVE",
"308 447 OFFCURVE",
"327 443 CURVE"
);
}
);
width = 349;
}
);
unicode = 0076;
},
{
glyphname = w;
lastChange = "2015-10-06 07:37:03 +0000";
layers = (
{
anchors = (
{
name = top;
position = "{283, 447}";
}
);
background = {
paths = (
{
closed = 1;
nodes = (
"332 438 OFFCURVE",
"338 437 OFFCURVE",
"333 416 CURVE SMOOTH",
"299 299 OFFCURVE",
"279 229 OFFCURVE",
"248 151 CURVE SMOOTH",
"235 119 OFFCURVE",
"219 83 OFFCURVE",
"201 54 CURVE SMOOTH",
"179 19 OFFCURVE",
"151 -8 OFFCURVE",
"118 -8 CURVE",
"78 -8 OFFCURVE",
"59 59 OFFCURVE",
"46 142 CURVE SMOOTH",
"32 234 OFFCURVE",
"22 344 OFFCURVE",
"20 414 CURVE SMOOTH",
"18 437 OFFCURVE",
"22 438 OFFCURVE",
"48 445 CURVE",
"73 451 OFFCURVE",
"80 452 OFFCURVE",
"80 430 CURVE SMOOTH",
"83 342 OFFCURVE",
"92 203 OFFCURVE",
"108 119 CURVE SMOOTH",
"114 86 OFFCURVE",
"120 57 OFFCURVE",
"130 57 CURVE",
"143 57 OFFCURVE",
"159 91 OFFCURVE",
"171 118 CURVE SMOOTH",
"208 200 OFFCURVE",
"250 323 OFFCURVE",
"275 430 CURVE SMOOTH",
"278 447 OFFCURVE",
"290 447 OFFCURVE",
"309 443 CURVE"
);
}
);
};
layerId = "70F97C4B-94FA-40A4-8E29-E667CA674F9A";
name = Regular;
paths = (
{
closed = 1;
nodes = (
"495 447 OFFCURVE",
"483 447 OFFCURVE",
"480 430 CURVE",
"457 323 OFFCURVE",
"435 200 OFFCURVE",
"402 118 CURVE SMOOTH",
"391 91 OFFCURVE",
"373 57 OFFCURVE",
"360 57 CURVE SMOOTH",
"350 57 OFFCURVE",
"343 86 OFFCURVE",
"338 119 CURVE SMOOTH",
"325 198 OFFCURVE",
"321 260 OFFCURVE",
"315 348 CURVE",
"313 369 OFFCURVE",
"317 382 OFFCURVE",
"288 374 CURVE",
"267 369 OFFCURVE",
"263 361 OFFCURVE",
"257 343 CURVE",
"239 288 OFFCURVE",
"212 201 OFFCURVE",
"185 138 CURVE SMOOTH",
"164 90 OFFCURVE",
"142 57 OFFCURVE",
"130 57 CURVE SMOOTH",
"105 57 OFFCURVE",
"98 325 OFFCURVE",
"100 430 CURVE",
"100 452 OFFCURVE",
"93 451 OFFCURVE",
"68 445 CURVE SMOOTH",
"42 438 OFFCURVE",
"40 432 OFFCURVE",
"40 414 CURVE",
"41 344 OFFCURVE",
"41 234 OFFCURVE",
"52 142 CURVE SMOOTH",
"62 59 OFFCURVE",
"78 -8 OFFCURVE",
"118 -8 CURVE SMOOTH",
"151 -8 OFFCURVE",
"179 19 OFFCURVE",
"201 54 CURVE SMOOTH",
"231 102 OFFCURVE",
"250 161 OFFCURVE",
"274 242 CURVE",
"277 204 OFFCURVE",
"280 165 OFFCURVE",
"283 142 CURVE SMOOTH",
"294 59 OFFCURVE",
"308 -8 OFFCURVE",
"348 -8 CURVE SMOOTH",
"381 -8 OFFCURVE",
"408 20 OFFCURVE",
"430 55 CURVE SMOOTH",
"448 84 OFFCURVE",
"463 122 OFFCURVE",
"474 155 CURVE SMOOTH",
"500 232 OFFCURVE",
"513 299 OFFCURVE",
"538 416 CURVE",
"542 434 OFFCURVE",
"537 438 OFFCURVE",
"514 443 CURVE SMOOTH"
);
}
);
width = 540;
}
);
unicode = 0077;
},
{
glyphname = x;
lastChange = "2015-10-06 07:38:31 +0000";
layers = (
{
background = {
paths = (
{
closed = 1;
nodes = (
"44 -13 LINE",
"113 142 OFFCURVE",
"240 321 OFFCURVE",
"361 423 CURVE",
"316 459 LINE",
"193 354 OFFCURVE",
"57 156 OFFCURVE",
"-10 8 CURVE"
);
},
{
closed = 1;
nodes = (
"44 432 LINE",
"264 -10 LINE",
"315 14 LINE",
"96 455 LINE"
);
}
);
};
layerId = "70F97C4B-94FA-40A4-8E29-E667CA674F9A";
name = Regular;
paths = (
{
closed = 1;
nodes = (
"16 -2 CURVE",
"36 -10 OFFCURVE",
"44 -13 OFFCURVE",
"54 9 CURVE SMOOTH",
"84 76 OFFCURVE",
"125 147 OFFCURVE",
"172 212 CURVE",
"185 224 LINE",
"235 292 OFFCURVE",
"290 351 OFFCURVE",
"344 399 CURVE SMOOTH",
"362 415 OFFCURVE",
"355 420 OFFCURVE",
"339 434 CURVE",
"323 446 OFFCURVE",
"317 452 OFFCURVE",
"297 433 CURVE SMOOTH",
"251 389 OFFCURVE",
"202 333 OFFCURVE",
"156 272 CURVE",
"141 258 LINE",
"86 183 OFFCURVE",
"36 105 OFFCURVE",
"2 33 CURVE SMOOTH",
"-8 12 OFFCURVE",
"-2 5 OFFCURVE"
);
},
{
closed = 1;
nodes = (
"98 451 OFFCURVE",
"90 452 OFFCURVE",
"71 444 CURVE",
"49 434 OFFCURVE",
"47 427 OFFCURVE",
"54 412 CURVE",
"254 11 LINE",
"261 -5 OFFCURVE",
"269 -8 OFFCURVE",
"290 2 CURVE",
"311 12 OFFCURVE",
"312 20 OFFCURVE",
"305 34 CURVE",
"105 437 LINE"
);
}
);
width = 348;
}
);
unicode = 0078;
},
{
glyphname = y;
lastChange = "2015-10-06 07:40:16 +0000";
layers = (
{
anchors = (
{
name = bottom;
position = "{137, -200}";
},
{
name = top;
position = "{215, 447}";
}
);
background = {
paths = (
{
closed = 1;
nodes = (
"233 24 OFFCURVE",
"191 -10 OFFCURVE",
"140 -10 CURVE",
"84 -10 OFFCURVE",
"39 24 OFFCURVE",
"39 103 CURVE",
"39 196 OFFCURVE",
"55 290 OFFCURVE",
"69 412 CURVE",
"72 440 OFFCURVE",
"80 442 OFFCURVE",
"95 446 CURVE",
"125 453 OFFCURVE",
"133 451 OFFCURVE",
"130 428 CURVE",
"125 387 OFFCURVE",
"98 185 OFFCURVE",
"99 119 CURVE",
"99 70 OFFCURVE",
"118 49 OFFCURVE",
"149 49 CURVE",
"213 49 OFFCURVE",
"258 121 OFFCURVE",
"271 234 CURVE",
"293 412 LINE",
"295 440 OFFCURVE",
"303 442 OFFCURVE",
"318 446 CURVE",
"349 453 OFFCURVE",
"356 452 OFFCURVE",
"353 429 CURVE",
"354 415 OFFCURVE",
"332 288 OFFCURVE",
"322 158 CURVE",
"302 -93 OFFCURVE",
"299 -199 OFFCURVE",
"156 -200 CURVE",
"90 -199 OFFCURVE",
"51 -167 OFFCURVE",
"-3 -121 CURVE",
"35 -74 LINE",
"71 -109 OFFCURVE",
"108 -141 OFFCURVE",
"158 -141 CURVE",
"244 -141 OFFCURVE",
"241 -70 OFFCURVE",
"259 76 CURVE"
);
}
);
};
layerId = "70F97C4B-94FA-40A4-8E29-E667CA674F9A";
name = Regular;
paths = (
{
closed = 1;
nodes = (
"233 24 OFFCURVE",
"191 -10 OFFCURVE",
"140 -10 CURVE",
"84 -10 OFFCURVE",
"39 24 OFFCURVE",
"39 103 CURVE",
"39 196 OFFCURVE",
"55 290 OFFCURVE",
"69 412 CURVE",
"72 440 OFFCURVE",
"80 442 OFFCURVE",
"95 446 CURVE",
"125 453 OFFCURVE",
"133 451 OFFCURVE",
"130 428 CURVE",
"125 387 OFFCURVE",
"98 185 OFFCURVE",
"99 119 CURVE",
"99 70 OFFCURVE",
"118 49 OFFCURVE",
"149 49 CURVE",
"213 49 OFFCURVE",
"258 121 OFFCURVE",
"271 234 CURVE",
"293 412 LINE",
"295 440 OFFCURVE",
"303 442 OFFCURVE",
"318 446 CURVE",
"349 453 OFFCURVE",
"356 452 OFFCURVE",
"353 429 CURVE",
"354 415 OFFCURVE",
"332 288 OFFCURVE",
"322 158 CURVE",
"302 -93 OFFCURVE",
"275 -199 OFFCURVE",
"142 -200 CURVE",
"95 -199 OFFCURVE",
"58 -181 OFFCURVE",
"18 -149 CURVE SMOOTH",
"0 -135 OFFCURVE",
"2 -125 OFFCURVE",
"17 -106 CURVE",
"32 -88 OFFCURVE",
"39 -89 OFFCURVE",
"53 -101 CURVE SMOOTH",
"85 -129 OFFCURVE",
"106 -142 OFFCURVE",
"148 -142 CURVE",
"224 -142 OFFCURVE",
"244 -70 OFFCURVE",
"259 76 CURVE"
);
}
);
width = 380;
}
);
unicode = 0079;
},
{
glyphname = z;
lastChange = "2015-09-19 05:44:48 +0000";
layers = (
{
anchors = (
{
name = bottom;
position = "{135, 0}";
},
{
name = top;
position = "{200, 447}";
}
);
background = {
paths = (
{
closed = 1;
nodes = (
"504 447 LINE",
"475 447 OFFCURVE",
"467 443 OFFCURVE",
"462 424 CURVE",
"457 401 OFFCURVE",
"459 393 OFFCURVE",
"491 393 CURVE",
"721 393 LINE",
"750 393 OFFCURVE",
"756 397 OFFCURVE",
"763 420 CURVE",
"769 439 OFFCURVE",
"766 447 OFFCURVE",
"734 447 CURVE"
);
},
{
closed = 1;
nodes = (
"444 54 LINE",
"415 54 OFFCURVE",
"407 50 OFFCURVE",
"402 31 CURVE",
"397 8 OFFCURVE",
"399 0 OFFCURVE",
"431 0 CURVE",
"661 0 LINE",
"690 0 OFFCURVE",
"696 4 OFFCURVE",
"703 27 CURVE",
"709 46 OFFCURVE",
"706 54 OFFCURVE",
"674 54 CURVE"
);
},
{
closed = 1;
nodes = (
"432 78 OFFCURVE",
"434 73 OFFCURVE",
"441 60 CURVE",
"461 29 OFFCURVE",
"466 28 OFFCURVE",
"480 47 CURVE",
"500 70 OFFCURVE",
"694 319 OFFCURVE",
"728 365 CURVE",
"746 386 OFFCURVE",
"744 392 OFFCURVE",
"735 405 CURVE",
"719 431 OFFCURVE",
"712 437 OFFCURVE",
"697 418 CURVE",
"676 393 OFFCURVE",
"500 165 OFFCURVE",
"450 99 CURVE"
);
},
{
closed = 1;
nodes = (
"104 447 LINE",
"75 447 OFFCURVE",
"67 443 OFFCURVE",
"62 424 CURVE",
"57 401 OFFCURVE",
"59 393 OFFCURVE",
"91 393 CURVE",
"311 393 LINE",
"340 393 OFFCURVE",
"346 397 OFFCURVE",
"353 420 CURVE",
"359 439 OFFCURVE",
"356 447 OFFCURVE",
"324 447 CURVE"
);
},
{
closed = 1;
nodes = (
"44 54 LINE",
"15 54 OFFCURVE",
"7 50 OFFCURVE",
"2 31 CURVE",
"-3 8 OFFCURVE",
"-1 0 OFFCURVE",
"31 0 CURVE",
"261 0 LINE",
"290 0 OFFCURVE",
"296 4 OFFCURVE",
"303 27 CURVE",
"309 46 OFFCURVE",
"306 54 OFFCURVE",
"274 54 CURVE"
);
},
{
closed = 1;
nodes = (
"11 52 OFFCURVE",
"13 47 OFFCURVE",
"20 34 CURVE",
"40 3 OFFCURVE",
"45 2 OFFCURVE",
"59 21 CURVE",
"79 44 OFFCURVE",
"295 333 OFFCURVE",
"329 379 CURVE",
"347 400 OFFCURVE",
"345 406 OFFCURVE",
"336 419 CURVE",
"320 445 OFFCURVE",
"313 451 OFFCURVE",
"298 432 CURVE",
"277 407 OFFCURVE",
"79 139 OFFCURVE",
"29 73 CURVE"
);
}
);
};
layerId = "70F97C4B-94FA-40A4-8E29-E667CA674F9A";
name = Regular;
paths = (
{
closed = 1;
nodes = (
"94 447 LINE SMOOTH",
"65 447 OFFCURVE",
"57 443 OFFCURVE",
"52 424 CURVE",
"47 401 OFFCURVE",
"49 393 OFFCURVE",
"81 393 CURVE SMOOTH",
"241 393 LINE",
"188 310 OFFCURVE",
"62 125 OFFCURVE",
"25 72 CURVE",
"14 57 OFFCURVE",
"6 44 OFFCURVE",
"2 31 CURVE",
"-3 8 OFFCURVE",
"-1 0 OFFCURVE",
"31 0 CURVE SMOOTH",
"241 0 LINE SMOOTH",
"270 0 OFFCURVE",
"276 4 OFFCURVE",
"283 27 CURVE SMOOTH",
"289 46 OFFCURVE",
"286 54 OFFCURVE",
"254 54 CURVE SMOOTH",
"82 54 LINE",
"140 136 OFFCURVE",
"273 341 OFFCURVE",
"297 379 CURVE",
"304 391 OFFCURVE",
"315 407 OFFCURVE",
"318 420 CURVE SMOOTH",
"322 439 OFFCURVE",
"321 447 OFFCURVE",
"289 447 CURVE SMOOTH"
);
}
);
width = 330;
}
);
unicode = 007A;
},
{
glyphname = bar;
lastChange = "2015-10-06 11:15:53 +0000";
layers = (
{
background = {
paths = (
{
closed = 1;
nodes = (
"294 783 OFFCURVE",
"302 785 OFFCURVE",
"307 808 CURVE",
"312 835 OFFCURVE",
"309 838 OFFCURVE",
"291 837 CURVE",
"164 834 LINE SMOOTH",
"132 833 OFFCURVE",
"127 819 OFFCURVE",
"123 791 CURVE",
"12 -145 LINE SMOOTH",
"10 -165 OFFCURVE",
"32 -191 OFFCURVE",
"51 -190 CURVE SMOOTH",
"154 -186 LINE SMOOTH",
"183 -185 OFFCURVE",
"191 -181 OFFCURVE",
"196 -158 CURVE",
"201 -134 OFFCURVE",
"198 -128 OFFCURVE",
"180 -129 CURVE SMOOTH",
"73 -133 LINE",
"180 780 LINE",
"265 782 LINE"
);
}
);
};
layerId = "70F97C4B-94FA-40A4-8E29-E667CA674F9A";
name = Regular;
paths = (
{
closed = 1;
nodes = (
"77 -102 LINE",
"75 -130 OFFCURVE",
"66 -132 OFFCURVE",
"51 -136 CURVE",
"19 -144 OFFCURVE",
"12 -142 OFFCURVE",
"15 -119 CURVE",
"115 730 LINE",
"118 758 OFFCURVE",
"124 761 OFFCURVE",
"139 765 CURVE",
"173 772 OFFCURVE",
"178 771 OFFCURVE",
"176 748 CURVE"
);
}
);
width = 199;
}
);
unicode = 007C;
},
{
glyphname = asciitilde;
lastChange = "2015-10-06 11:15:53 +0000";
layers = (
{
layerId = "70F97C4B-94FA-40A4-8E29-E667CA674F9A";
name = Regular;
paths = (
{
closed = 1;
nodes = (
"159 262 OFFCURVE",
"189 217 OFFCURVE",
"241 217 CURVE",
"289 217 OFFCURVE",
"326 243 OFFCURVE",
"356 276 CURVE SMOOTH",
"370 291 OFFCURVE",
"366 298 OFFCURVE",
"353 317 CURVE",
"339 337 OFFCURVE",
"334 340 OFFCURVE",
"322 326 CURVE SMOOTH",
"301 301 OFFCURVE",
"274 276 OFFCURVE",
"245 276 CURVE",
"218 276 OFFCURVE",
"199 291 OFFCURVE",
"180 303 CURVE SMOOTH",
"165 313 OFFCURVE",
"148 321 OFFCURVE",
"126 321 CURVE",
"92 321 OFFCURVE",
"63 309 OFFCURVE",
"33 275 CURVE SMOOTH",
"19 259 OFFCURVE",
"24 253 OFFCURVE",
"42 238 CURVE",
"56 225 OFFCURVE",
"64 221 OFFCURVE",
"77 235 CURVE SMOOTH",
"93 251 OFFCURVE",
"105 262 OFFCURVE",
"125 262 CURVE"
);
}
);
width = 385;
}
);
unicode = 007E;
},
{
glyphname = cent;
lastChange = "2015-10-06 11:15:53 +0000";
layers = (
{
background = {
paths = (
{
closed = 1;
nodes = (
"306 183 CURVE",
"294 190 LINE",
"282 196 OFFCURVE",
"273 195 OFFCURVE",
"264 179 CURVE SMOOTH",
"251 155 OFFCURVE",
"226 127 OFFCURVE",
"189 127 CURVE",
"133 127 OFFCURVE",
"114 174 OFFCURVE",
"114 238 CURVE",
"114 310 OFFCURVE",
"134 432 OFFCURVE",
"232 432 CURVE",
"254 432 OFFCURVE",
"268 422 OFFCURVE",
"280 397 CURVE SMOOTH",
"287 383 OFFCURVE",
"292 379 OFFCURVE",
"308 386 CURVE",
"323 392 LINE",
"338 398 OFFCURVE",
"341 406 OFFCURVE",
"333 424 CURVE SMOOTH",
"314 466 OFFCURVE",
"280 490 OFFCURVE",
"237 491 CURVE",
"116 491 OFFCURVE",
"55 388 OFFCURVE",
"55 232 CURVE",
"56 143 OFFCURVE",
"93 71 OFFCURVE",
"183 70 CURVE",
"247 70 OFFCURVE",
"291 105 OFFCURVE",
"315 153 CURVE SMOOTH",
"322 167 OFFCURVE",
"320 174 OFFCURVE"
);
}
);
};
layerId = "70F97C4B-94FA-40A4-8E29-E667CA674F9A";
name = Regular;
paths = (
{
closed = 1;
nodes = (
"332 187 OFFCURVE",
"330 194 OFFCURVE",
"316 203 CURVE",
"304 210 LINE",
"292 216 OFFCURVE",
"283 215 OFFCURVE",
"274 199 CURVE SMOOTH",
"261 175 OFFCURVE",
"236 147 OFFCURVE",
"189 147 CURVE",
"133 147 OFFCURVE",
"104 194 OFFCURVE",
"104 274 CURVE",
"104 330 OFFCURVE",
"124 452 OFFCURVE",
"226 452 CURVE",
"254 452 OFFCURVE",
"275 443 OFFCURVE",
"290 417 CURVE SMOOTH",
"298 403 OFFCURVE",
"302 399 OFFCURVE",
"318 406 CURVE",
"333 412 LINE",
"348 418 OFFCURVE",
"351 426 OFFCURVE",
"343 444 CURVE SMOOTH",
"324 486 OFFCURVE",
"280 510 OFFCURVE",
"237 511 CURVE",
"113 511 OFFCURVE",
"45 408 OFFCURVE",
"45 263 CURVE",
"46 163 OFFCURVE",
"103 91 OFFCURVE",
"183 90 CURVE",
"247 90 OFFCURVE",
"301 125 OFFCURVE",
"325 173 CURVE SMOOTH"
);
},
{
closed = 1;
nodes = (
"156 146 LINE",
"147 65 OFFCURVE",
"142 6 OFFCURVE",
"142 -11 CURVE",
"142 -37 OFFCURVE",
"146 -42 OFFCURVE",
"177 -37 CURVE",
"194 -33 OFFCURVE",
"201 -33 OFFCURVE",
"202 -13 CURVE SMOOTH",
"203 7 OFFCURVE",
"205 57 OFFCURVE",
"211 125 CURVE",
"212 132 OFFCURVE",
"212 139 OFFCURVE",
"213 146 CURVE"
);
},
{
closed = 1;
nodes = (
"239 455 LINE",
"245 503 OFFCURVE",
"250 558 OFFCURVE",
"256 621 CURVE",
"259 644 OFFCURVE",
"251 646 OFFCURVE",
"219 637 CURVE",
"205 633 OFFCURVE",
"199 629 OFFCURVE",
"197 602 CURVE",
"192 554 OFFCURVE",
"188 503 OFFCURVE",
"182 452 CURVE"
);
}
);
width = 382;
}
);
unicode = 00A2;
},
{
glyphname = brokenbar;
lastChange = "2015-10-06 11:15:53 +0000";
layers = (
{
background = {
paths = (
{
closed = 1;
nodes = (
"77 -102 LINE",
"75 -130 OFFCURVE",
"66 -132 OFFCURVE",
"51 -136 CURVE",
"19 -144 OFFCURVE",
"12 -142 OFFCURVE",
"15 -119 CURVE",
"115 730 LINE",
"118 758 OFFCURVE",
"124 761 OFFCURVE",
"139 765 CURVE",
"173 772 OFFCURVE",
"178 771 OFFCURVE",
"176 748 CURVE"
);
}
);
};
layerId = "70F97C4B-94FA-40A4-8E29-E667CA674F9A";
name = Regular;
paths = (
{
closed = 1;
nodes = (
"135 397 LINE",
"133 369 OFFCURVE",
"124 367 OFFCURVE",
"109 363 CURVE",
"77 355 OFFCURVE",
"70 357 OFFCURVE",
"73 380 CURVE",
"115 730 LINE",
"118 758 OFFCURVE",
"124 761 OFFCURVE",
"139 765 CURVE",
"173 772 OFFCURVE",
"178 771 OFFCURVE",
"176 748 CURVE"
);
},
{
closed = 1;
nodes = (
"77 -102 LINE",
"75 -130 OFFCURVE",
"66 -132 OFFCURVE",
"51 -136 CURVE",
"19 -144 OFFCURVE",
"12 -142 OFFCURVE",
"15 -119 CURVE",
"56 231 LINE",
"59 259 OFFCURVE",
"65 262 OFFCURVE",
"80 266 CURVE",
"114 273 OFFCURVE",
"119 272 OFFCURVE",
"117 249 CURVE"
);
}
);
width = 198;
}
);
unicode = 00A6;
},
{
glyphname = dieresis;
lastChange = "2015-09-18 11:05:07 +0000";
layers = (
{
anchors = (
{
name = _top;
position = "{97, 447}";
},
{
name = top;
position = "{127, 566}";
}
);
layerId = "70F97C4B-94FA-40A4-8E29-E667CA674F9A";
name = Regular;
paths = (
{
closed = 1;
nodes = (
"19 599 OFFCURVE",
"0 574 OFFCURVE",
"0 540 CURVE",
"0 520 OFFCURVE",
"10 507 OFFCURVE",
"27 507 CURVE",
"53 507 OFFCURVE",
"72 533 OFFCURVE",
"72 568 CURVE",
"72 587 OFFCURVE",
"62 599 OFFCURVE",
"45 599 CURVE"
);
},
{
closed = 1;
nodes = (
"161 599 OFFCURVE",
"142 574 OFFCURVE",
"142 540 CURVE",
"142 520 OFFCURVE",
"152 507 OFFCURVE",
"169 507 CURVE",
"195 507 OFFCURVE",
"214 533 OFFCURVE",
"214 568 CURVE",
"214 587 OFFCURVE",
"204 599 OFFCURVE",
"187 599 CURVE"
);
}
);
width = 214;
}
);
unicode = 00A8;
},
{
glyphname = dieresis.cap;
lastChange = "2015-09-17 14:55:39 +0000";
layers = (
{
anchors = (
{
name = _top;
position = "{97, 670}";
}
);
layerId = "70F97C4B-94FA-40A4-8E29-E667CA674F9A";
name = Regular;
paths = (
{
closed = 1;
nodes = (
"19 822 OFFCURVE",
"0 797 OFFCURVE",
"0 763 CURVE",
"0 743 OFFCURVE",
"10 730 OFFCURVE",
"27 730 CURVE",
"53 730 OFFCURVE",
"72 756 OFFCURVE",
"72 791 CURVE",
"72 810 OFFCURVE",
"62 822 OFFCURVE",
"45 822 CURVE"
);
},
{
closed = 1;
nodes = (
"161 822 OFFCURVE",
"142 797 OFFCURVE",
"142 763 CURVE",
"142 743 OFFCURVE",
"152 730 OFFCURVE",
"169 730 CURVE",
"195 730 OFFCURVE",
"214 756 OFFCURVE",
"214 791 CURVE",
"214 810 OFFCURVE",
"204 822 OFFCURVE",
"187 822 CURVE"
);
}
);
width = 214;
}
);
},
{
glyphname = macron;
lastChange = "2015-10-06 11:24:56 +0000";
layers = (
{
anchors = (
{
name = _top;
position = "{121, 447}";
}
);
layerId = "70F97C4B-94FA-40A4-8E29-E667CA674F9A";
name = Regular;
paths = (
{
closed = 1;
nodes = (
"195 527 LINE",
"224 527 OFFCURVE",
"230 531 OFFCURVE",
"237 552 CURVE",
"242 573 OFFCURVE",
"245 581 OFFCURVE",
"213 581 CURVE",
"44 581 LINE",
"15 581 OFFCURVE",
"9 577 OFFCURVE",
"2 556 CURVE",
"-3 535 OFFCURVE",
"-1 527 OFFCURVE",
"31 527 CURVE"
);
}
);
width = 239;
}
);
unicode = 00AF;
},
{
glyphname = macron.cap;
lastChange = "2015-09-17 14:55:06 +0000";
layers = (
{
anchors = (
{
name = _top;
position = "{121, 670}";
}
);
layerId = "70F97C4B-94FA-40A4-8E29-E667CA674F9A";
name = Regular;
paths = (
{
closed = 1;
nodes = (
"195 750 LINE",
"224 750 OFFCURVE",
"230 754 OFFCURVE",
"237 775 CURVE",
"242 796 OFFCURVE",
"245 804 OFFCURVE",
"213 804 CURVE",
"44 804 LINE",
"15 804 OFFCURVE",
"9 800 OFFCURVE",
"2 779 CURVE",
"-3 758 OFFCURVE",
"-1 750 OFFCURVE",
"31 750 CURVE"
);
}
);
width = 240;
}
);
},
{
glyphname = acute;
lastChange = "2015-09-15 14:51:32 +0000";
layers = (
{
anchors = (
{
name = _top;
position = "{91, 447}";
}
);
layerId = "70F97C4B-94FA-40A4-8E29-E667CA674F9A";
name = Regular;
paths = (
{
closed = 1;
nodes = (
"5 525 CURVE",
"13 510 OFFCURVE",
"15 502 OFFCURVE",
"34 503 CURVE SMOOTH",
"93 506 OFFCURVE",
"153 537 OFFCURVE",
"189 573 CURVE SMOOTH",
"200 584 OFFCURVE",
"198 589 OFFCURVE",
"183 612 CURVE",
"171 630 OFFCURVE",
"165 632 OFFCURVE",
"154 621 CURVE SMOOTH",
"117 582 OFFCURVE",
"78 563 OFFCURVE",
"10 550 CURVE SMOOTH",
"2 548 OFFCURVE",
"-5 546 OFFCURVE"
);
}
);
width = 196;
}
);
unicode = 00B4;
},
{
glyphname = acute.cap;
lastChange = "2015-09-17 14:55:29 +0000";
layers = (
{
anchors = (
{
name = _top;
position = "{91, 670}";
}
);
background = {
paths = (
{
closed = 1;
nodes = (
"5 525 CURVE",
"13 510 OFFCURVE",
"15 502 OFFCURVE",
"34 503 CURVE SMOOTH",
"93 506 OFFCURVE",
"153 537 OFFCURVE",
"189 573 CURVE SMOOTH",
"200 584 OFFCURVE",
"198 589 OFFCURVE",
"183 612 CURVE",
"171 630 OFFCURVE",
"165 632 OFFCURVE",
"154 621 CURVE SMOOTH",
"117 582 OFFCURVE",
"78 563 OFFCURVE",
"10 550 CURVE SMOOTH",
"2 548 OFFCURVE",
"-5 546 OFFCURVE"
);
}
);
};
layerId = "70F97C4B-94FA-40A4-8E29-E667CA674F9A";
name = Regular;
paths = (
{
closed = 1;
nodes = (
"5 748 CURVE",
"13 733 OFFCURVE",
"15 726 OFFCURVE",
"34 726 CURVE SMOOTH",
"84 726 OFFCURVE",
"153 750 OFFCURVE",
"189 776 CURVE SMOOTH",
"202 785 OFFCURVE",
"198 792 OFFCURVE",
"183 815 CURVE",
"171 833 OFFCURVE",
"166 834 OFFCURVE",
"154 824 CURVE SMOOTH",
"117 795 OFFCURVE",
"79 779 OFFCURVE",
"11 770 CURVE SMOOTH",
"3 769 OFFCURVE",
"-4 766 OFFCURVE"
);
}
);
width = 196;
}
);
},
{
glyphname = cedilla;
lastChange = "2015-09-23 14:25:47 +0000";
layers = (
{
background = {
paths = (
{
closed = 1;
nodes = (
"31 -95 OFFCURVE",
"34 -99 OFFCURVE",
"50 -96 CURVE SMOOTH",
"58 -94 OFFCURVE",
"65 -93 OFFCURVE",
"72 -93 CURVE SMOOTH",
"85 -93 OFFCURVE",
"100 -98 OFFCURVE",
"100 -115 CURVE SMOOTH",
"100 -136 OFFCURVE",
"80 -151 OFFCURVE",
"10 -162 CURVE SMOOTH",
"-7 -165 OFFCURVE",
"1 -182 OFFCURVE",
"10 -194 CURVE",
"19 -206 OFFCURVE",
"28 -209 OFFCURVE",
"44 -206 CURVE SMOOTH",
"126 -191 OFFCURVE",
"152 -153 OFFCURVE",
"152 -112 CURVE SMOOTH",
"152 -62 OFFCURVE",
"109 -43 OFFCURVE",
"71 -43 CURVE SMOOTH",
"61 -43 OFFCURVE",
"50 -44 OFFCURVE",
"37 -47 CURVE SMOOTH",
"24 -50 OFFCURVE",
"22 -57 OFFCURVE",
"26 -76 CURVE"
);
},
{
closed = 1;
nodes = (
"69 -75 LINE",
"109 15 LINE",
"86 22 LINE",
"62 30 LINE",
"25 -55 LINE"
);
}
);
};
layerId = "70F97C4B-94FA-40A4-8E29-E667CA674F9A";
name = Regular;
paths = (
{
closed = 1;
nodes = (
"103 2 LINE",
"108 13 OFFCURVE",
"99 18 OFFCURVE",
"86 22 CURVE",
"70 27 OFFCURVE",
"61 27 OFFCURVE",
"57 18 CURVE",
"25 -55 LINE",
"23.473 -59.6339 OFFCURVE",
"23.9432 -66.2305 OFFCURVE",
"25.9999 -76 CURVE",
"30.9999 -95 OFFCURVE",
"33.9999 -99 OFFCURVE",
"49.9999 -96 CURVE",
"57.9999 -94 OFFCURVE",
"64.9999 -93 OFFCURVE",
"71.9999 -93 CURVE SMOOTH",
"84.9999 -93 OFFCURVE",
"99.9999 -98 OFFCURVE",
"99.9999 -115 CURVE SMOOTH",
"99.9999 -136 OFFCURVE",
"79.9999 -151 OFFCURVE",
"9.9999 -162 CURVE SMOOTH",
"-7 -165 OFFCURVE",
"0.9999 -182 OFFCURVE",
"9.9999 -194 CURVE SMOOTH",
"18.9999 -206 OFFCURVE",
"27.9999 -209 OFFCURVE",
"43.9999 -206 CURVE SMOOTH",
"126 -191 OFFCURVE",
"152 -153 OFFCURVE",
"152 -112 CURVE SMOOTH",
"152 -67.1909 OFFCURVE",
"117.465 -47.2794 OFFCURVE",
"82.943 -43.628 CURVE"
);
}
);
width = 152;
}
);
unicode = 00B8;
},
{
glyphname = Aring;
lastChange = "2015-09-24 12:04:05 +0000";
layers = (
{
background = {
paths = (
{
closed = 1;
nodes = (
"269 685 OFFCURVE",
"275 671 OFFCURVE",
"292 671 CURVE",
"311 671 OFFCURVE",
"328 692 OFFCURVE",
"328 724 CURVE",
"328 737 OFFCURVE",
"322 751 OFFCURVE",
"305 751 CURVE",
"286 751 OFFCURVE",
"269 730 OFFCURVE",
"269 698 CURVE"
);
},
{
closed = 1;
nodes = (
"243 627 OFFCURVE",
"226 664 OFFCURVE",
"226 697 CURVE",
"226 756 OFFCURVE",
"264 796 OFFCURVE",
"312 796 CURVE",
"355 796 OFFCURVE",
"371 758 OFFCURVE",
"371 725 CURVE",
"371 666 OFFCURVE",
"333 627 OFFCURVE",
"286 627 CURVE"
);
},
{
closed = 1;
nodes = (
"434 273 OFFCURVE",
"432 269 OFFCURVE",
"384 264 CURVE SMOOTH",
"138 239 LINE SMOOTH",
"145 297 LINE",
"384 321 LINE SMOOTH",
"413 324 OFFCURVE",
"422 325 OFFCURVE",
"428 298 CURVE"
);
},
{
closed = 1;
nodes = (
"435 10 OFFCURVE",
"435 6 OFFCURVE",
"414 -3 CURVE SMOOTH",
"386 -15 OFFCURVE",
"377 -19 OFFCURVE",
"374 4 CURVE",
"294 477 LINE",
"285 561 LINE",
"50 22 LINE",
"38 -2 OFFCURVE",
"31 -4 OFFCURVE",
"15 -4 CURVE SMOOTH",
"-19 -3 OFFCURVE",
"-24 1 OFFCURVE",
"-14 23 CURVE",
"255 635 LINE",
"264 655 OFFCURVE",
"265 660 OFFCURVE",
"281 666 CURVE SMOOTH",
"312 677 OFFCURVE",
"316 679 OFFCURVE",
"319 661 CURVE SMOOTH",
"321 648 OFFCURVE",
"390 255 OFFCURVE",
"429 38 CURVE SMOOTH"
);
}
);
};
layerId = "70F97C4B-94FA-40A4-8E29-E667CA674F9A";
name = Regular;
paths = (
{
closed = 1;
nodes = (
"272 674 OFFCURVE",
"278 660 OFFCURVE",
"295 660 CURVE",
"314 660 OFFCURVE",
"331 681 OFFCURVE",
"331 713 CURVE",
"331 726 OFFCURVE",
"325 740 OFFCURVE",
"308 740 CURVE",
"289 740 OFFCURVE",
"272 719 OFFCURVE",
"272 687 CURVE"
);
},
{
closed = 1;
nodes = (
"246 616 OFFCURVE",
"229 653 OFFCURVE",
"229 686 CURVE",
"229 745 OFFCURVE",
"267 785 OFFCURVE",
"315 785 CURVE",
"358 785 OFFCURVE",
"374 747 OFFCURVE",
"374 714 CURVE",
"374 655 OFFCURVE",
"336 616 OFFCURVE",
"289 616 CURVE"
);
},
{
closed = 1;
nodes = (
"434 273 OFFCURVE",
"432 269 OFFCURVE",
"384 264 CURVE SMOOTH",
"138 239 LINE SMOOTH",
"145 297 LINE",
"384 321 LINE SMOOTH",
"413 324 OFFCURVE",
"422 325 OFFCURVE",
"428 298 CURVE"
);
},
{
closed = 1;
nodes = (
"435 10 OFFCURVE",
"435 6 OFFCURVE",
"414 -3 CURVE SMOOTH",
"386 -15 OFFCURVE",
"377 -19 OFFCURVE",
"374 4 CURVE",
"294 477 LINE",
"285 561 LINE",
"50 22 LINE",
"38 -2 OFFCURVE",
"31 -4 OFFCURVE",
"15 -4 CURVE SMOOTH",
"-19 -3 OFFCURVE",
"-24 1 OFFCURVE",
"-14 23 CURVE",
"255 635 LINE",
"261 648 OFFCURVE",
"263 655 OFFCURVE",
"269 659 CURVE",
"319 661 LINE",
"321 648 OFFCURVE",
"390 255 OFFCURVE",
"429 38 CURVE SMOOTH"
);
}
);
width = 471;
}
);
unicode = 00C5;
},
{
glyphname = AE;
lastChange = "2015-09-24 12:04:05 +0000";
layers = (
{
background = {
paths = (
{
closed = 1;
nodes = (
"589 50 LINE",
"653 640 LINE SMOOTH",
"656 663 OFFCURVE",
"648 664 OFFCURVE",
"613 657 CURVE",
"598 653 OFFCURVE",
"592 650 OFFCURVE",
"589 622 CURVE SMOOTH",
"525 35 LINE SMOOTH",
"523 15 OFFCURVE",
"545 -11 OFFCURVE",
"564 -10 CURVE",
"820 0 LINE",
"849 0 OFFCURVE",
"855 4 OFFCURVE",
"862 27 CURVE",
"867 54 OFFCURVE",
"865 59 OFFCURVE",
"833 59 CURVE"
);
},
{
closed = 1;
nodes = (
"805 315 LINE",
"834 317 OFFCURVE",
"840 319 OFFCURVE",
"847 342 CURVE",
"852 365 OFFCURVE",
"850 374 OFFCURVE",
"818 373 CURVE",
"614 363 LINE",
"585 363 OFFCURVE",
"579 359 OFFCURVE",
"572 336 CURVE",
"567 313 OFFCURVE",
"569 305 OFFCURVE",
"601 305 CURVE"
);
},
{
closed = 1;
nodes = (
"865 613 LINE",
"894 614 OFFCURVE",
"900 617 OFFCURVE",
"907 640 CURVE",
"912 663 OFFCURVE",
"908 672 OFFCURVE",
"878 671 CURVE",
"544 662 LINE",
"513 661 OFFCURVE",
"512 658 OFFCURVE",
"505 635 CURVE",
"500 609 OFFCURVE",
"502 604 OFFCURVE",
"534 604 CURVE"
);
},
{
closed = 1;
nodes = (
"576 645 OFFCURVE",
"569 650 OFFCURVE",
"536 658 CURVE",
"521 661 OFFCURVE",
"513 661 OFFCURVE",
"499 637 CURVE",
"114 32 LINE",
"100 12 OFFCURVE",
"104 4 OFFCURVE",
"131 -7 CURVE",
"146 -13 OFFCURVE",
"157 -16 OFFCURVE",
"172 8 CURVE",
"564 626 LINE"
);
}
);
};
layerId = "70F97C4B-94FA-40A4-8E29-E667CA674F9A";
name = Regular;
paths = (
{
closed = 1;
nodes = (
"589 50 LINE",
"653 640 LINE SMOOTH",
"656 663 OFFCURVE",
"648 664 OFFCURVE",
"613 657 CURVE",
"598 653 OFFCURVE",
"592 650 OFFCURVE",
"589 622 CURVE SMOOTH",
"525 35 LINE SMOOTH",
"523 15 OFFCURVE",
"545 -11 OFFCURVE",
"564 -10 CURVE",
"820 0 LINE",
"849 0 OFFCURVE",
"855 4 OFFCURVE",
"862 27 CURVE",
"867 54 OFFCURVE",
"865 59 OFFCURVE",
"833 59 CURVE"
);
},
{
closed = 1;
nodes = (
"805 315 LINE",
"834 317 OFFCURVE",
"840 319 OFFCURVE",
"847 342 CURVE",
"851 368 OFFCURVE",
"850 374 OFFCURVE",
"818 373 CURVE",
"353 354 LINE",
"324 354 OFFCURVE",
"318 350 OFFCURVE",
"311 327 CURVE",
"306 304 OFFCURVE",
"308 296 OFFCURVE",
"340 296 CURVE"
);
},
{
closed = 1;
nodes = (
"865 613 LINE",
"894 614 OFFCURVE",
"900 617 OFFCURVE",
"907 640 CURVE",
"912 663 OFFCURVE",
"908 672 OFFCURVE",
"878 671 CURVE",
"544 662 LINE",
"513 661 OFFCURVE",
"512 658 OFFCURVE",
"505 635 CURVE",
"500 609 OFFCURVE",
"502 604 OFFCURVE",
"534 604 CURVE"
);
},
{
closed = 1;
nodes = (
"576 645 OFFCURVE",
"569 650 OFFCURVE",
"536 658 CURVE",
"521 661 OFFCURVE",
"513 661 OFFCURVE",
"499 637 CURVE",
"114 32 LINE",
"100 12 OFFCURVE",
"104 4 OFFCURVE",
"131 -7 CURVE",
"146 -13 OFFCURVE",
"157 -16 OFFCURVE",
"172 8 CURVE",
"564 626 LINE"
);
}
);
width = 883;
}
);
unicode = 00C6;
},
{
glyphname = Eth;
lastChange = "2015-09-24 12:04:05 +0000";
layers = (
{
background = {
paths = (
{
closed = 1;
nodes = (
"186 303 LINE",
"215 305 OFFCURVE",
"222 307 OFFCURVE",
"228 330 CURVE",
"233 356 OFFCURVE",
"231 362 OFFCURVE",
"209 361 CURVE",
"69 353 LINE",
"40 351 OFFCURVE",
"34 349 OFFCURVE",
"27 326 CURVE",
"22 303 OFFCURVE",
"24 294 OFFCURVE",
"46 295 CURVE"
);
}
);
};
components = (
{
name = D;
transform = "{1, 0, 0, 1, 0, 0}";
}
);
layerId = "70F97C4B-94FA-40A4-8E29-E667CA674F9A";
name = Regular;
paths = (
{
closed = 1;
nodes = (
"251 307 LINE",
"280 309 OFFCURVE",
"287 311 OFFCURVE",
"293 334 CURVE",
"298 360 OFFCURVE",
"296 366 OFFCURVE",
"274 365 CURVE",
"59 353 LINE",
"30 351 OFFCURVE",
"24 349 OFFCURVE",
"17 326 CURVE",
"12 303 OFFCURVE",
"14 294 OFFCURVE",
"36 295 CURVE"
);
}
);
width = 511;
}
);
unicode = 00D0;
},
{
glyphname = multiply;
lastChange = "2015-09-20 12:51:50 +0000";
layers = (
{
background = {
paths = (
{
closed = 1;
nodes = (
"55 220 LINE",
"36 200 OFFCURVE",
"40 192 OFFCURVE",
"47 178 CURVE",
"60 152 OFFCURVE",
"66 148 OFFCURVE",
"81 166 CURVE",
"280 389 LINE",
"299 410 OFFCURVE",
"297 416 OFFCURVE",
"290 430 CURVE",
"272 460 OFFCURVE",
"271 460 OFFCURVE",
"255 443 CURVE"
);
},
{
closed = 1;
nodes = (
"260 150 OFFCURVE",
"268 154 OFFCURVE",
"281 171 CURVE",
"293 192 OFFCURVE",
"290 198 OFFCURVE",
"273 221 CURVE",
"94 438 LINE",
"80 455 OFFCURVE",
"75 453 OFFCURVE",
"58 432 CURVE",
"47 412 OFFCURVE",
"49 406 OFFCURVE",
"67 383 CURVE",
"246 166 LINE"
);
}
);
};
layerId = "70F97C4B-94FA-40A4-8E29-E667CA674F9A";
name = Regular;
paths = (
{
closed = 1;
nodes = (
"42 210 LINE",
"21 190 OFFCURVE",
"26 182 OFFCURVE",
"36 167 CURVE",
"48 151 OFFCURVE",
"58 143 OFFCURVE",
"70 155 CURVE",
"284 387 LINE",
"303 408 OFFCURVE",
"301 414 OFFCURVE",
"294 428 CURVE",
"279 452 OFFCURVE",
"273 459 OFFCURVE",
"257 442 CURVE"
);
},
{
closed = 1;
nodes = (
"258 137 OFFCURVE",
"266 141 OFFCURVE",
"278 158 CURVE",
"293 181 OFFCURVE",
"291 187 OFFCURVE",
"273 210 CURVE",
"88 443 LINE",
"74 461 OFFCURVE",
"69 459 OFFCURVE",
"50 436 CURVE",
"39 422 OFFCURVE",
"40 410 OFFCURVE",
"58 387 CURVE",
"244 154 LINE"
);
}
);
width = 329;
}
);
unicode = 00D7;
},
{
glyphname = Oslash;
lastChange = "2015-09-24 12:04:12 +0000";
layers = (
{
background = {
components = (
{
name = O;
transform = "{1, 0, 0, 1, 0, 0}";
}
);
paths = (
{
closed = 1;
nodes = (
"528 673 LINE",
"477 707 LINE",
"-9 -5 LINE",
"42 -39 LINE"
);
}
);
};
layerId = "70F97C4B-94FA-40A4-8E29-E667CA674F9A";
name = Regular;
paths = (
{
closed = 1;
nodes = (
"-6 -1 OFFCURVE",
"0 -11 OFFCURVE",
"17 -22 CURVE",
"35 -34 OFFCURVE",
"45 -35 OFFCURVE",
"54 -22 CURVE",
"519 660 LINE",
"528 673 OFFCURVE",
"521 682 OFFCURVE",
"504 693 CURVE",
"486 705 OFFCURVE",
"476 706 OFFCURVE",
"467 693 CURVE",
"3 12 LINE"
);
},
{
closed = 1;
nodes = (
"404 -10 OFFCURVE",
"488 235 OFFCURVE",
"488 430 CURVE",
"486 569 OFFCURVE",
"438 672 OFFCURVE",
"319 674 CURVE",
"119 674 OFFCURVE",
"35 429 OFFCURVE",
"35 234 CURVE",
"37 98 OFFCURVE",
"81 -8 OFFCURVE",
"204 -10 CURVE"
);
},
{
closed = 1;
nodes = (
"394 613 OFFCURVE",
"425 541 OFFCURVE",
"425 411 CURVE",
"425 307 OFFCURVE",
"366 51 OFFCURVE",
"212 51 CURVE",
"129 51 OFFCURVE",
"98 118 OFFCURVE",
"98 253 CURVE",
"98 367 OFFCURVE",
"157 613 OFFCURVE",
"311 613 CURVE"
);
}
);
width = 523;
}
);
unicode = 00D8;
},
{
color = 4;
glyphname = Thorn;
lastChange = "2015-10-06 12:54:31 +0000";
layers = (
{
background = {
paths = (
{
closed = 1;
nodes = (
"442 442 OFFCURVE",
"382 518 OFFCURVE",
"205 518 CURVE",
"198 461 LINE",
"280 465 OFFCURVE",
"377 445 OFFCURVE",
"378 351 CURVE SMOOTH",
"379 264 OFFCURVE",
"312 190 OFFCURVE",
"111 202 CURVE",
"89 142 LINE",
"359 124 OFFCURVE",
"439 233 OFFCURVE",
"441 347 CURVE SMOOTH"
);
}
);
};
components = (
{
name = I;
transform = "{1, 0, 0, 1, 0, 0}";
}
);
layerId = "70F97C4B-94FA-40A4-8E29-E667CA674F9A";
name = Regular;
paths = (
{
closed = 1;
nodes = (
"430 241 OFFCURVE",
"349 132 OFFCURVE",
"79 150 CURVE",
"101 210 LINE",
"302 198 OFFCURVE",
"369 272 OFFCURVE",
"368 359 CURVE SMOOTH",
"367 461 OFFCURVE",
"254 488 OFFCURVE",
"127 459 CURVE",
"135 521 LINE",
"362 558 OFFCURVE",
"432 455 OFFCURVE",
"431 355 CURVE SMOOTH"
);
}
);
width = 456;
}
);
unicode = 00DE;
},
{
glyphname = germandbls;
lastChange = "2015-09-23 14:25:36 +0000";
layers = (
{
background = {
paths = (
{
closed = 1;
nodes = (
"48 410 LINE",
"62 546 OFFCURVE",
"105 614 OFFCURVE",
"221 614 CURVE SMOOTH",
"302 614 OFFCURVE",
"350 546 OFFCURVE",
"351 477 CURVE",
"351 413 OFFCURVE",
"330 346 OFFCURVE",
"250 309 CURVE",
"319 295 OFFCURVE",
"370 238 OFFCURVE",
"370 163 CURVE SMOOTH",
"370 77 OFFCURVE",
"321 -27 OFFCURVE",
"134 -9 CURVE",
"139 47 LINE",
"282 36 OFFCURVE",
"312 100 OFFCURVE",
"312 160 CURVE SMOOTH",
"312 246 OFFCURVE",
"231 279 OFFCURVE",
"165 276 CURVE SMOOTH",
"146 275 OFFCURVE",
"144 281 OFFCURVE",
"143 305 CURVE SMOOTH",
"142 325 OFFCURVE",
"145 329 OFFCURVE",
"162 331 CURVE SMOOTH",
"265 346 OFFCURVE",
"293 405 OFFCURVE",
"293 474 CURVE SMOOTH",
"293 520 OFFCURVE",
"265 558 OFFCURVE",
"216 558 CURVE SMOOTH",
"145 558 OFFCURVE",
"121 520 OFFCURVE",
"107 434 CURVE",
"95 329 LINE",
"86 251 OFFCURVE",
"82 201 OFFCURVE",
"78 157 CURVE SMOOTH",
"72 89 OFFCURVE",
"71 39 OFFCURVE",
"70 13 CURVE SMOOTH",
"69 -1 OFFCURVE",
"52 -4 OFFCURVE",
"44 -5 CURVE",
"7 -11 OFFCURVE",
"6 -3 OFFCURVE",
"13 76 CURVE",
"16 122 OFFCURVE",
"27 224 OFFCURVE",
"40 335 CURVE"
);
}
);
};
layerId = "70F97C4B-94FA-40A4-8E29-E667CA674F9A";
name = Regular;
paths = (
{
closed = 1;
nodes = (
"48 410 LINE",
"62 546 OFFCURVE",
"105 614 OFFCURVE",
"221 614 CURVE SMOOTH",
"305 614 OFFCURVE",
"349 546 OFFCURVE",
"350 464 CURVE",
"350 413 OFFCURVE",
"326 349 OFFCURVE",
"250 308 CURVE",
"319 294 OFFCURVE",
"370 238 OFFCURVE",
"370 163 CURVE SMOOTH",
"370 80 OFFCURVE",
"326 -20 OFFCURVE",
"155 -11 CURVE SMOOTH",
"135 -10 OFFCURVE",
"135 0 OFFCURVE",
"137 21 CURVE",
"138 40 OFFCURVE",
"141 47 OFFCURVE",
"160 46 CURVE SMOOTH",
"285 39 OFFCURVE",
"312 103 OFFCURVE",
"312 160 CURVE SMOOTH",
"312 246 OFFCURVE",
"231 279 OFFCURVE",
"165 276 CURVE SMOOTH",
"146 275 OFFCURVE",
"144 281 OFFCURVE",
"143 305 CURVE SMOOTH",
"142 325 OFFCURVE",
"145 329 OFFCURVE",
"162 331 CURVE SMOOTH",
"265 346 OFFCURVE",
"293 415 OFFCURVE",
"293 463 CURVE SMOOTH",
"293 520 OFFCURVE",
"265 558 OFFCURVE",
"216 558 CURVE SMOOTH",
"145 558 OFFCURVE",
"121 520 OFFCURVE",
"107 434 CURVE",
"95 329 LINE",
"86 251 OFFCURVE",
"82 201 OFFCURVE",
"78 157 CURVE SMOOTH",
"72 89 OFFCURVE",
"71 39 OFFCURVE",
"70 13 CURVE SMOOTH",
"69 -1 OFFCURVE",
"52 -4 OFFCURVE",
"44 -5 CURVE",
"7 -11 OFFCURVE",
"6 -3 OFFCURVE",
"13 76 CURVE",
"16 122 OFFCURVE",
"27 224 OFFCURVE",
"40 335 CURVE"
);
}
);
width = 392;
}
);
unicode = 00DF;
},
{
glyphname = ae;
lastChange = "2015-09-23 14:25:30 +0000";
layers = (
{
background = {
paths = (
{
closed = 1;
nodes = (
"235 -7 OFFCURVE",
"223 35 OFFCURVE",
"223 67 CURVE",
"193 21 OFFCURVE",
"160 -9 OFFCURVE",
"107 -9 CURVE",
"42 -9 OFFCURVE",
"4 57 OFFCURVE",
"4 142 CURVE",
"4 303 OFFCURVE",
"66 450 OFFCURVE",
"185 450 CURVE",
"239 450 OFFCURVE",
"272 409 OFFCURVE",
"316 366 CURVE",
"289 329 LINE",
"256 361 OFFCURVE",
"234 395 OFFCURVE",
"189 395 CURVE",
"87 395 OFFCURVE",
"64 224 OFFCURVE",
"64 146 CURVE",
"64 102 OFFCURVE",
"78 50 OFFCURVE",
"121 50 CURVE",
"178 50 OFFCURVE",
"224 128 OFFCURVE",
"239 240 CURVE",
"258 374 OFFCURVE",
"251 336 OFFCURVE",
"262 421 CURVE",
"265 449 OFFCURVE",
"271 451 OFFCURVE",
"286 455 CURVE",
"322 462 OFFCURVE",
"329 460 OFFCURVE",
"326 437 CURVE",
"301 271 OFFCURVE",
"277 102 OFFCURVE",
"277 40 CURVE",
"309 60 OFFCURVE",
"321 83 OFFCURVE",
"331 83 CURVE",
"344 83 OFFCURVE",
"360 58 OFFCURVE",
"360 42 CURVE",
"360 27 OFFCURVE",
"311 -7 OFFCURVE",
"271 -7 CURVE"
);
},
{
closed = 1;
nodes = (
"695 392 OFFCURVE",
"673 451 OFFCURVE",
"593 451 CURVE",
"466 451 OFFCURVE",
"406 308 OFFCURVE",
"406 152 CURVE",
"407 63 OFFCURVE",
"443 -9 OFFCURVE",
"530 -10 CURVE",
"599 -10 OFFCURVE",
"638 28 OFFCURVE",
"665 75 CURVE SMOOTH",
"673 89 OFFCURVE",
"669 96 OFFCURVE",
"656 103 CURVE",
"643 110 LINE",
"632 116 OFFCURVE",
"622 115 OFFCURVE",
"613 99 CURVE SMOOTH",
"597 70 OFFCURVE",
"573 47 OFFCURVE",
"535 47 CURVE",
"484 47 OFFCURVE",
"465 94 OFFCURVE",
"465 158 CURVE",
"465 230 OFFCURVE",
"490 393 OFFCURVE",
"588 393 CURVE",
"612 393 OFFCURVE",
"634 381 OFFCURVE",
"634 340 CURVE",
"634 292 OFFCURVE",
"596 242 OFFCURVE",
"441 233 CURVE",
"445 175 LINE",
"599 183 OFFCURVE",
"695 245 OFFCURVE",
"695 347 CURVE"
);
}
);
};
layerId = "70F97C4B-94FA-40A4-8E29-E667CA674F9A";
name = Regular;
paths = (
{
closed = 1;
nodes = (
"523 245 OFFCURVE",
"427 183 OFFCURVE",
"273 175 CURVE",
"269 233 LINE",
"424 242 OFFCURVE",
"462 292 OFFCURVE",
"462 340 CURVE",
"462 381 OFFCURVE",
"440 393 OFFCURVE",
"416 393 CURVE",
"318 393 OFFCURVE",
"293 230 OFFCURVE",
"293 158 CURVE",
"293 94 OFFCURVE",
"312 47 OFFCURVE",
"363 47 CURVE",
"401 47 OFFCURVE",
"425 70 OFFCURVE",
"441 99 CURVE SMOOTH",
"450 115 OFFCURVE",
"460 116 OFFCURVE",
"471 110 CURVE",
"484 103 LINE",
"497 96 OFFCURVE",
"501 89 OFFCURVE",
"493 75 CURVE SMOOTH",
"466 28 OFFCURVE",
"427 -10 OFFCURVE",
"358 -10 CURVE",
"288 -9 OFFCURVE",
"251 38 OFFCURVE",
"239 103 CURVE",
"278 357 LINE",
"309 414 OFFCURVE",
"356 451 OFFCURVE",
"421 451 CURVE",
"501 451 OFFCURVE",
"523 392 OFFCURVE",
"523 347 CURVE"
);
},
{
closed = 1;
nodes = (
"14 196 OFFCURVE",
"110 258 OFFCURVE",
"264 266 CURVE",
"268 208 LINE",
"113 199 OFFCURVE",
"75 149 OFFCURVE",
"75 101 CURVE",
"75 60 OFFCURVE",
"97 48 OFFCURVE",
"121 48 CURVE",
"219 48 OFFCURVE",
"244 211 OFFCURVE",
"244 283 CURVE",
"244 347 OFFCURVE",
"225 394 OFFCURVE",
"174 394 CURVE",
"136 394 OFFCURVE",
"112 371 OFFCURVE",
"96 342 CURVE SMOOTH",
"87 326 OFFCURVE",
"77 325 OFFCURVE",
"66 331 CURVE",
"53 338 LINE",
"40 345 OFFCURVE",
"36 352 OFFCURVE",
"44 366 CURVE SMOOTH",
"71 413 OFFCURVE",
"110 451 OFFCURVE",
"179 451 CURVE",
"247 450 OFFCURVE",
"283 406 OFFCURVE",
"297 345 CURVE",
"258 82 LINE",
"227 26 OFFCURVE",
"180 -10 OFFCURVE",
"116 -10 CURVE",
"36 -10 OFFCURVE",
"14 49 OFFCURVE",
"14 94 CURVE"
);
}
);
width = 538;
}
);
unicode = 00E6;
},
{
glyphname = eth;
lastChange = "2015-09-23 14:25:30 +0000";
layers = (
{
background = {
paths = (
{
closed = 1;
nodes = (
"489 451 OFFCURVE",
"429 308 OFFCURVE",
"429 144 CURVE",
"430 63 OFFCURVE",
"470 -9 OFFCURVE",
"543 -10 CURVE",
"670 -10 OFFCURVE",
"730 133 OFFCURVE",
"730 297 CURVE",
"729 378 OFFCURVE",
"689 450 OFFCURVE",
"616 451 CURVE"
);
},
{
closed = 1;
nodes = (
"507 47 OFFCURVE",
"488 94 OFFCURVE",
"488 158 CURVE",
"488 230 OFFCURVE",
"513 392 OFFCURVE",
"611 392 CURVE",
"652 392 OFFCURVE",
"671 347 OFFCURVE",
"671 283 CURVE",
"671 211 OFFCURVE",
"646 47 OFFCURVE",
"548 47 CURVE"
);
},
{
closed = 1;
nodes = (
"89 431 OFFCURVE",
"29 288 OFFCURVE",
"29 144 CURVE",
"30 63 OFFCURVE",
"70 -9 OFFCURVE",
"143 -10 CURVE",
"270 -10 OFFCURVE",
"330 133 OFFCURVE",
"330 297 CURVE",
"329 358 OFFCURVE",
"289 430 OFFCURVE",
"216 431 CURVE"
);
},
{
closed = 1;
nodes = (
"107 47 OFFCURVE",
"88 94 OFFCURVE",
"88 158 CURVE",
"88 210 OFFCURVE",
"113 372 OFFCURVE",
"211 372 CURVE",
"252 372 OFFCURVE",
"271 327 OFFCURVE",
"271 283 CURVE",
"271 211 OFFCURVE",
"246 47 OFFCURVE",
"148 47 CURVE"
);
},
{
closed = 1;
nodes = (
"336 438 OFFCURVE",
"259 608 OFFCURVE",
"115 678 CURVE",
"82 634 LINE",
"227 548 OFFCURVE",
"280 410 OFFCURVE",
"273 283 CURVE",
"330 297 LINE"
);
},
{
closed = 1;
nodes = (
"108 530 LINE",
"82 518 OFFCURVE",
"78 511 OFFCURVE",
"80 491 CURVE",
"85 470 OFFCURVE",
"86 462 OFFCURVE",
"115 476 CURVE",
"321 576 LINE",
"347 589 OFFCURVE",
"350 595 OFFCURVE",
"347 617 CURVE",
"343 636 OFFCURVE",
"338 643 OFFCURVE",
"309 628 CURVE"
);
},
{
closed = 1;
nodes = (
"87 518 LINE",
"109 473 LINE",
"346 590 LINE",
"323 635 LINE"
);
}
);
};
layerId = "70F97C4B-94FA-40A4-8E29-E667CA674F9A";
name = Regular;
paths = (
{
closed = 1;
nodes = (
"114 677 OFFCURVE",
"109 670 OFFCURVE",
"100 658 CURVE",
"87 640 OFFCURVE",
"84 633 OFFCURVE",
"100 623 CURVE SMOOTH",
"181 574 OFFCURVE",
"233 505 OFFCURVE",
"257 415 CURVE",
"246 422 OFFCURVE",
"233 428 OFFCURVE",
"216 428 CURVE SMOOTH",
"89 428 OFFCURVE",
"29 288 OFFCURVE",
"29 144 CURVE SMOOTH",
"30 63 OFFCURVE",
"70 -8.9999 OFFCURVE",
"143 -9.9999 CURVE SMOOTH",
"270 -9.9999 OFFCURVE",
"329 133 OFFCURVE",
"329 297 CURVE",
"329 432 OFFCURVE",
"263 590 OFFCURVE",
"132 667 CURVE SMOOTH"
);
},
{
closed = 1;
nodes = (
"107 47 OFFCURVE",
"88 94 OFFCURVE",
"88 158 CURVE SMOOTH",
"88 210 OFFCURVE",
"113 374 OFFCURVE",
"211 374 CURVE SMOOTH",
"252 374 OFFCURVE",
"271 327 OFFCURVE",
"271 283 CURVE SMOOTH",
"271 211 OFFCURVE",
"246 47 OFFCURVE",
"148 47 CURVE SMOOTH"
);
},
{
closed = 1;
nodes = (
"88 521 OFFCURVE",
"88 515 OFFCURVE",
"97 497 CURVE",
"105 480 OFFCURVE",
"112 477 OFFCURVE",
"127 484 CURVE",
"328 581 LINE",
"343 589 OFFCURVE",
"343 595 OFFCURVE",
"334 613 CURVE",
"326 630 OFFCURVE",
"319 633 OFFCURVE",
"304 626 CURVE",
"103 529 LINE"
);
}
);
width = 359;
}
);
unicode = 00F0;
},
{
glyphname = divide;
lastChange = "2015-09-20 12:51:50 +0000";
layers = (
{
components = (
{
name = minus;
transform = "{1, 0, 0, 1, 0, 0}";
}
);
layerId = "70F97C4B-94FA-40A4-8E29-E667CA674F9A";
name = Regular;
paths = (
{
closed = 1;
nodes = (
"184 483 OFFCURVE",
"163 456 OFFCURVE",
"163 418 CURVE",
"163 396 OFFCURVE",
"174 382 OFFCURVE",
"193 382 CURVE",
"221 382 OFFCURVE",
"242 411 OFFCURVE",
"242 449 CURVE",
"242 470 OFFCURVE",
"231 483 OFFCURVE",
"212 483 CURVE"
);
},
{
closed = 1;
nodes = (
"154 222 OFFCURVE",
"133 195 OFFCURVE",
"133 157 CURVE SMOOTH",
"133 135 OFFCURVE",
"144 121 OFFCURVE",
"163 121 CURVE",
"191 121 OFFCURVE",
"212 150 OFFCURVE",
"212 188 CURVE",
"212 209 OFFCURVE",
"201 222 OFFCURVE",
"182 222 CURVE SMOOTH"
);
}
);
width = 376;
}
);
unicode = 00F7;
},
{
glyphname = oslash;
lastChange = "2015-09-23 14:25:36 +0000";
layers = (
{
anchors = (
{
name = bottom;
position = "{143, 0}";
},
{
name = top;
position = "{220, 447}";
}
);
background = {
paths = (
{
closed = 1;
nodes = (
"-6 -1 OFFCURVE",
"0 -11 OFFCURVE",
"17 -22 CURVE",
"35 -34 OFFCURVE",
"45 -35 OFFCURVE",
"54 -22 CURVE",
"519 660 LINE",
"528 673 OFFCURVE",
"521 682 OFFCURVE",
"504 693 CURVE",
"486 705 OFFCURVE",
"476 706 OFFCURVE",
"467 693 CURVE",
"3 12 LINE"
);
}
);
};
layerId = "70F97C4B-94FA-40A4-8E29-E667CA674F9A";
name = Regular;
paths = (
{
closed = 1;
nodes = (
"-10 -11 OFFCURVE",
"-5 -20 OFFCURVE",
"11 -30 CURVE",
"28 -41 OFFCURVE",
"37 -41 OFFCURVE",
"46 -28 CURVE",
"366 442 LINE",
"375 455 OFFCURVE",
"369 463 OFFCURVE",
"353 473 CURVE",
"336 484 OFFCURVE",
"327 484 OFFCURVE",
"318 471 CURVE",
"-1 2 LINE"
);
},
{
closed = 1;
nodes = (
"89 451 OFFCURVE",
"29 308 OFFCURVE",
"29 144 CURVE",
"30 63 OFFCURVE",
"70 -9 OFFCURVE",
"143 -10 CURVE",
"270 -10 OFFCURVE",
"330 133 OFFCURVE",
"330 297 CURVE",
"329 378 OFFCURVE",
"289 450 OFFCURVE",
"216 451 CURVE"
);
},
{
closed = 1;
nodes = (
"107 47 OFFCURVE",
"87 84 OFFCURVE",
"87 158 CURVE",
"87 230 OFFCURVE",
"113 392 OFFCURVE",
"211 392 CURVE",
"252 392 OFFCURVE",
"272 357 OFFCURVE",
"272 283 CURVE",
"272 211 OFFCURVE",
"246 47 OFFCURVE",
"148 47 CURVE"
);
}
);
width = 359;
}
);
unicode = 00F8;
},
{
glyphname = thorn;
lastChange = "2015-09-23 14:25:36 +0000";
layers = (
{
background = {
paths = (
{
closed = 1;
nodes = (
"73 262 OFFCURVE",
"21 -40 OFFCURVE",
"3 -179 CURVE",
"1 -202 OFFCURVE",
"8 -204 OFFCURVE",
"44 -196 CURVE",
"58 -192 OFFCURVE",
"64 -190 OFFCURVE",
"67 -162 CURVE",
"77 -78 OFFCURVE",
"96 62 OFFCURVE",
"113 199 CURVE",
"123 281 OFFCURVE",
"181 392 OFFCURVE",
"238 392 CURVE",
"276 392 OFFCURVE",
"293 349 OFFCURVE",
"293 295 CURVE",
"293 227 OFFCURVE",
"267 49 OFFCURVE",
"165 49 CURVE",
"130 49 OFFCURVE",
"109 62 OFFCURVE",
"65 94 CURVE",
"40 55 LINE",
"82 21 OFFCURVE",
"116 -8 OFFCURVE",
"170 -8 CURVE",
"289 -8 OFFCURVE",
"352 138 OFFCURVE",
"352 299 CURVE",
"352 394 OFFCURVE",
"313 451 OFFCURVE",
"247 451 CURVE",
"194 451 OFFCURVE",
"164 423 OFFCURVE",
"133 376 CURVE",
"137 432 LINE",
"141 455 OFFCURVE",
"134 457 OFFCURVE",
"97 450 CURVE",
"78 446 OFFCURVE",
"73 444 OFFCURVE",
"73 416 CURVE"
);
}
);
};
layerId = "70F97C4B-94FA-40A4-8E29-E667CA674F9A";
name = Regular;
paths = (
{
closed = 1;
nodes = (
"163 423 OFFCURVE",
"194 451 OFFCURVE",
"247 451 CURVE",
"313 451 OFFCURVE",
"352 394 OFFCURVE",
"352 299 CURVE",
"352 138 OFFCURVE",
"289 -8 OFFCURVE",
"170 -8 CURVE",
"116 -8 OFFCURVE",
"82 21 OFFCURVE",
"40 55 CURVE",
"65 94 LINE",
"109 62 OFFCURVE",
"130 49 OFFCURVE",
"165 49 CURVE",
"267 49 OFFCURVE",
"293 227 OFFCURVE",
"293 295 CURVE",
"293 349 OFFCURVE",
"276 392 OFFCURVE",
"238 392 CURVE",
"183 392 OFFCURVE",
"145 318 OFFCURVE",
"124 236 CURVE SMOOTH",
"103 156 OFFCURVE",
"97 69 OFFCURVE",
"93 40 CURVE SMOOTH",
"82 -40 OFFCURVE",
"73 -111 OFFCURVE",
"67 -162 CURVE",
"64 -190 OFFCURVE",
"58 -192 OFFCURVE",
"44 -196 CURVE",
"8 -204 OFFCURVE",
"1 -202 OFFCURVE",
"3 -179 CURVE",
"16 -75 OFFCURVE",
"46 121 OFFCURVE",
"66 277 CURVE",
"82 413 OFFCURVE",
"100 579 OFFCURVE",
"113 673 CURVE",
"116 701 OFFCURVE",
"122 703 OFFCURVE",
"136 707 CURVE",
"168 715 OFFCURVE",
"175 713 OFFCURVE",
"173 690 CURVE",
"154 551 OFFCURVE",
"141 451 OFFCURVE",
"132 374 CURVE"
);
}
);
width = 380;
}
);
unicode = 00FE;
},
{
glyphname = Aogonek;
lastChange = "2015-09-24 12:04:05 +0000";
layers = (
{
background = {
paths = (
{
closed = 1;
nodes = (
"394 -18 OFFCURVE",
"356 -42 OFFCURVE",
"356 -83 CURVE SMOOTH",
"356 -103 OFFCURVE",
"367 -117 OFFCURVE",
"389 -117 CURVE SMOOTH",
"405 -117 OFFCURVE",
"421 -107 OFFCURVE",
"432 -96 CURVE SMOOTH",
"443 -85 OFFCURVE",
"448 -89 OFFCURVE",
"460 -103 CURVE",
"474 -119 OFFCURVE",
"478 -123 OFFCURVE",
"467 -134 CURVE SMOOTH",
"447 -154 OFFCURVE",
"420 -168 OFFCURVE",
"385 -168 CURVE SMOOTH",
"330 -168 OFFCURVE",
"301 -134 OFFCURVE",
"301 -87 CURVE SMOOTH",
"301 -29 OFFCURVE",
"339 -3 OFFCURVE",
"378 24 CURVE",
"430 7 LINE"
);
},
{
closed = 1;
nodes = (
"434 273 OFFCURVE",
"432 269 OFFCURVE",
"384 264 CURVE SMOOTH",
"138 239 LINE SMOOTH",
"145 297 LINE",
"384 321 LINE SMOOTH",
"413 324 OFFCURVE",
"422 325 OFFCURVE",
"428 298 CURVE"
);
},
{
closed = 1;
nodes = (
"435 10 OFFCURVE",
"435 6 OFFCURVE",
"414 -3 CURVE SMOOTH",
"386 -15 OFFCURVE",
"377 -19 OFFCURVE",
"374 4 CURVE",
"294 477 LINE",
"285 561 LINE",
"50 22 LINE",
"38 -2 OFFCURVE",
"31 -4 OFFCURVE",
"15 -4 CURVE SMOOTH",
"-19 -3 OFFCURVE",
"-24 1 OFFCURVE",
"-14 23 CURVE",
"255 635 LINE",
"264 655 OFFCURVE",
"265 660 OFFCURVE",
"281 666 CURVE SMOOTH",
"312 677 OFFCURVE",
"316 679 OFFCURVE",
"319 661 CURVE SMOOTH",
"321 648 OFFCURVE",
"390 255 OFFCURVE",
"429 38 CURVE SMOOTH"
);
}
);
};
layerId = "70F97C4B-94FA-40A4-8E29-E667CA674F9A";
name = Regular;
paths = (
{
closed = 1;
nodes = (
"434 273 OFFCURVE",
"432 269 OFFCURVE",
"384 264 CURVE SMOOTH",
"138 239 LINE SMOOTH",
"145 297 LINE",
"384 321 LINE SMOOTH",
"413 324 OFFCURVE",
"422 325 OFFCURVE",
"428 298 CURVE"
);
},
{
closed = 1;
nodes = (
"474 -119 OFFCURVE",
"478 -123 OFFCURVE",
"467 -134 CURVE SMOOTH",
"447 -154 OFFCURVE",
"420 -168 OFFCURVE",
"385 -168 CURVE SMOOTH",
"330 -168 OFFCURVE",
"301 -134 OFFCURVE",
"301 -87 CURVE SMOOTH",
"301 -32.2837 OFFCURVE",
"334.819 -6.0466 OFFCURVE",
"371.392 19.4177 CURVE",
"294 477 LINE",
"285 561 LINE",
"49.9998 21.9999 LINE",
"37.9998 -2 OFFCURVE",
"30.9998 -4 OFFCURVE",
"14.9998 -4 CURVE SMOOTH",
"-19 -3 OFFCURVE",
"-24 0.999899 OFFCURVE",
"-14 22.9999 CURVE SMOOTH",
"255 635 LINE SMOOTH",
"264 655 OFFCURVE",
"265 660 OFFCURVE",
"281 666 CURVE SMOOTH",
"312 677 OFFCURVE",
"316 679 OFFCURVE",
"319 661 CURVE SMOOTH",
"321 648 OFFCURVE",
"390 255 OFFCURVE",
"429 37.9999 CURVE SMOOTH",
"432.648 20.9764 OFFCURVE",
"434 11 OFFCURVE",
"429.797 6.8589 CURVE SMOOTH",
"415 -7 OFFCURVE",
"356 -33 OFFCURVE",
"356 -83 CURVE SMOOTH",
"356 -103 OFFCURVE",
"367 -117 OFFCURVE",
"389 -117 CURVE SMOOTH",
"405 -117 OFFCURVE",
"421 -107 OFFCURVE",
"432 -96 CURVE SMOOTH",
"443 -85 OFFCURVE",
"448 -89 OFFCURVE",
"460 -103 CURVE SMOOTH"
);
}
);
width = 471;
}
);
unicode = 0104;
},
{
glyphname = aogonek;
lastChange = "2015-09-23 14:25:30 +0000";
layers = (
{
background = {
paths = (
{
closed = 1;
nodes = (
"296 -24 OFFCURVE",
"258 -48 OFFCURVE",
"258 -89 CURVE SMOOTH",
"258 -109 OFFCURVE",
"269 -123 OFFCURVE",
"291 -123 CURVE SMOOTH",
"307 -123 OFFCURVE",
"323 -113 OFFCURVE",
"334 -102 CURVE SMOOTH",
"345 -91 OFFCURVE",
"350 -95 OFFCURVE",
"362 -109 CURVE",
"376 -125 OFFCURVE",
"380 -129 OFFCURVE",
"369 -140 CURVE SMOOTH",
"349 -160 OFFCURVE",
"322 -174 OFFCURVE",
"287 -174 CURVE SMOOTH",
"232 -174 OFFCURVE",
"203 -140 OFFCURVE",
"203 -93 CURVE SMOOTH",
"203 -35 OFFCURVE",
"241 -9 OFFCURVE",
"280 18 CURVE",
"332 1 LINE"
);
},
{
closed = 1;
nodes = (
"247 35 OFFCURVE",
"247 67 CURVE",
"217 21 OFFCURVE",
"184 -9 OFFCURVE",
"131 -9 CURVE",
"66 -9 OFFCURVE",
"28 57 OFFCURVE",
"28 142 CURVE",
"28 303 OFFCURVE",
"90 450 OFFCURVE",
"209 450 CURVE",
"263 450 OFFCURVE",
"296 409 OFFCURVE",
"340 366 CURVE",
"313 329 LINE",
"280 361 OFFCURVE",
"258 395 OFFCURVE",
"213 395 CURVE",
"111 395 OFFCURVE",
"88 224 OFFCURVE",
"88 146 CURVE",
"88 102 OFFCURVE",
"102 50 OFFCURVE",
"145 50 CURVE",
"202 50 OFFCURVE",
"248 128 OFFCURVE",
"263 240 CURVE",
"282 374 OFFCURVE",
"275 336 OFFCURVE",
"286 421 CURVE",
"289 449 OFFCURVE",
"295 451 OFFCURVE",
"310 455 CURVE",
"346 462 OFFCURVE",
"353 460 OFFCURVE",
"350 437 CURVE",
"325 271 OFFCURVE",
"301 102 OFFCURVE",
"301 40 CURVE",
"333 60 OFFCURVE",
"345 83 OFFCURVE",
"355 83 CURVE",
"368 83 OFFCURVE",
"384 58 OFFCURVE",
"384 42 CURVE",
"384 27 OFFCURVE",
"335 -7 OFFCURVE",
"295 -7 CURVE",
"259 -7 OFFCURVE"
);
}
);
};
layerId = "70F97C4B-94FA-40A4-8E29-E667CA674F9A";
name = Regular;
paths = (
{
closed = 1;
nodes = (
"353 15 OFFCURVE",
"384 31.4367 OFFCURVE",
"384 42 CURVE SMOOTH",
"384 58 OFFCURVE",
"368 83 OFFCURVE",
"355 83 CURVE SMOOTH",
"345 83 OFFCURVE",
"333 60 OFFCURVE",
"301 40 CURVE",
"301 95 OFFCURVE",
"317 216 OFFCURVE",
"339 367 CURVE",
"350 437 LINE SMOOTH",
"353 460 OFFCURVE",
"346 462 OFFCURVE",
"310 455 CURVE",
"295 451 OFFCURVE",
"289 449 OFFCURVE",
"286 421 CURVE SMOOTH",
"285.642 418.227 LINE",
"262.935 437.12 OFFCURVE",
"239.266 450 OFFCURVE",
"209 450 CURVE SMOOTH",
"90 450 OFFCURVE",
"28 303 OFFCURVE",
"28 142 CURVE SMOOTH",
"28 57 OFFCURVE",
"66 -9 OFFCURVE",
"131 -9 CURVE SMOOTH",
"184 -9 OFFCURVE",
"217 21 OFFCURVE",
"247 67 CURVE",
"247 46.6664 OFFCURVE",
"251.845 22.2954 OFFCURVE",
"264.614 7.2277 CURVE",
"231.585 -16.4634 OFFCURVE",
"203 -42.6961 OFFCURVE",
"203 -93 CURVE SMOOTH",
"203 -140 OFFCURVE",
"232 -174 OFFCURVE",
"287 -174 CURVE SMOOTH",
"322 -174 OFFCURVE",
"349 -160 OFFCURVE",
"369 -140 CURVE SMOOTH",
"380 -129 OFFCURVE",
"376 -125 OFFCURVE",
"362 -109 CURVE SMOOTH",
"350 -95 OFFCURVE",
"345 -91 OFFCURVE",
"334 -102 CURVE SMOOTH",
"323 -113 OFFCURVE",
"307 -123 OFFCURVE",
"291 -123 CURVE SMOOTH",
"269 -123 OFFCURVE",
"258 -109 OFFCURVE",
"258 -89 CURVE SMOOTH",
"258 -48.2448 OFFCURVE",
"295.548 -24.2872 OFFCURVE",
"331.355 0.552295 CURVE"
);
},
{
closed = 1;
nodes = (
"102 50 OFFCURVE",
"88 102 OFFCURVE",
"88 146 CURVE SMOOTH",
"88 224 OFFCURVE",
"111 395 OFFCURVE",
"213 395 CURVE SMOOTH",
"241.317 395 OFFCURVE",
"260.526 381.537 OFFCURVE",
"279.1 363.581 CURVE",
"276.685 341.215 OFFCURVE",
"275.219 326.174 OFFCURVE",
"263 240 CURVE SMOOTH",
"248 128 OFFCURVE",
"202 50 OFFCURVE",
"145 50 CURVE SMOOTH"
);
}
);
width = 401;
}
);
unicode = 0105;
},
{
glyphname = dcaron;
lastChange = "2015-09-23 14:25:30 +0000";
layers = (
{
components = (
{
name = d;
transform = "{1, 0, 0, 1, 0, 0}";
}
);
layerId = "70F97C4B-94FA-40A4-8E29-E667CA674F9A";
name = Regular;
paths = (
{
closed = 1;
nodes = (
"443 740 OFFCURVE",
"444 745 OFFCURVE",
"460 750 CURVE",
"489 758 LINE",
"506 762 OFFCURVE",
"512 761 OFFCURVE",
"518 738 CURVE",
"523 710 OFFCURVE",
"528 667 OFFCURVE",
"466 600 CURVE SMOOTH",
"456 590 OFFCURVE",
"452 591 OFFCURVE",
"436 602 CURVE",
"424 611 OFFCURVE",
"419 614 OFFCURVE",
"430 629 CURVE SMOOTH",
"451 658 OFFCURVE",
"461 677 OFFCURVE",
"448 722 CURVE SMOOTH"
);
}
);
width = 461;
}
);
unicode = 010F;
},
{
glyphname = dcroat;
lastChange = "2015-09-23 14:25:30 +0000";
layers = (
{
anchors = (
{
name = bottom;
position = "{144, 0}";
}
);
layerId = "70F97C4B-94FA-40A4-8E29-E667CA674F9A";
name = Regular;
paths = (
{
closed = 1;
nodes = (
"156 555 OFFCURVE",
"154 563 OFFCURVE",
"159 582 CURVE",
"166 603 OFFCURVE",
"172 607 OFFCURVE",
"201 607 CURVE",
"430 607 LINE",
"462 607 OFFCURVE",
"459 599 OFFCURVE",
"454 578 CURVE",
"447 559 OFFCURVE",
"441 555 OFFCURVE",
"412 555 CURVE",
"188 555 LINE"
);
},
{
closed = 1;
nodes = (
"246 -11 OFFCURVE",
"245 -3 OFFCURVE",
"252 76 CURVE",
"228 25 OFFCURVE",
"186 -10 OFFCURVE",
"133 -10 CURVE",
"70 -9 OFFCURVE",
"27 57 OFFCURVE",
"27 158 CURVE",
"29 303 OFFCURVE",
"91 450 OFFCURVE",
"210 449 CURVE",
"264 449 OFFCURVE",
"298 420 OFFCURVE",
"341 386 CURVE",
"315 347 LINE",
"271 379 OFFCURVE",
"250 392 OFFCURVE",
"215 392 CURVE",
"113 393 OFFCURVE",
"89 214 OFFCURVE",
"88 159 CURVE",
"88 102 OFFCURVE",
"102 49 OFFCURVE",
"151 49 CURVE",
"207 49 OFFCURVE",
"255 140 OFFCURVE",
"267 242 CURVE",
"280 340 OFFCURVE",
"298 477 OFFCURVE",
"310 576 CURVE",
"312 584 LINE",
"317 620 OFFCURVE",
"318 651 OFFCURVE",
"321 673 CURVE",
"324 701 OFFCURVE",
"330 703 OFFCURVE",
"344 707 CURVE",
"380 715 OFFCURVE",
"387 713 OFFCURVE",
"385 690 CURVE",
"380 652 OFFCURVE",
"373 617 OFFCURVE",
"368 584 CURVE",
"367 570 LINE",
"333 330 OFFCURVE",
"322 235 OFFCURVE",
"315 157 CURVE SMOOTH",
"309 89 OFFCURVE",
"308 39 OFFCURVE",
"307 13 CURVE SMOOTH",
"306 -1 OFFCURVE",
"289 -4 OFFCURVE",
"283 -5 CURVE"
);
}
);
width = 370;
}
);
unicode = 0111;
},
{
glyphname = Eogonek;
lastChange = "2015-09-24 12:04:05 +0000";
layers = (
{
components = (
{
name = E;
transform = "{1, 0, 0, 1, 0, 0}";
}
);
layerId = "70F97C4B-94FA-40A4-8E29-E667CA674F9A";
name = Regular;
paths = (
{
closed = 1;
nodes = (
"306 22 LINE",
"267 -5 OFFCURVE",
"229 -31 OFFCURVE",
"229 -89 CURVE SMOOTH",
"229 -136 OFFCURVE",
"258 -170 OFFCURVE",
"313 -170 CURVE SMOOTH",
"348 -170 OFFCURVE",
"375 -156 OFFCURVE",
"395 -136 CURVE SMOOTH",
"406 -125 OFFCURVE",
"402 -121 OFFCURVE",
"388 -105 CURVE",
"376 -91 OFFCURVE",
"371 -87 OFFCURVE",
"360 -98 CURVE SMOOTH",
"349 -109 OFFCURVE",
"333 -119 OFFCURVE",
"317 -119 CURVE SMOOTH",
"295 -119 OFFCURVE",
"284 -105 OFFCURVE",
"284 -85 CURVE SMOOTH",
"284 -44 OFFCURVE",
"322 -20 OFFCURVE",
"358 5 CURVE"
);
}
);
width = 412;
}
);
unicode = 0118;
},
{
glyphname = eogonek;
lastChange = "2015-09-23 14:25:30 +0000";
layers = (
{
background = {
paths = (
{
closed = 1;
nodes = (
"150 16 LINE",
"111 -11 OFFCURVE",
"73 -37 OFFCURVE",
"73 -95 CURVE SMOOTH",
"73 -142 OFFCURVE",
"102 -176 OFFCURVE",
"157 -176 CURVE SMOOTH",
"192 -176 OFFCURVE",
"219 -162 OFFCURVE",
"239 -142 CURVE SMOOTH",
"250 -131 OFFCURVE",
"246 -127 OFFCURVE",
"232 -111 CURVE",
"220 -97 OFFCURVE",
"215 -93 OFFCURVE",
"204 -104 CURVE SMOOTH",
"193 -115 OFFCURVE",
"177 -125 OFFCURVE",
"161 -125 CURVE SMOOTH",
"139 -125 OFFCURVE",
"128 -111 OFFCURVE",
"128 -91 CURVE SMOOTH",
"128 -50 OFFCURVE",
"163 -29 OFFCURVE",
"199 -4 CURVE"
);
}
);
};
components = (
{
name = e;
transform = "{1, 0, 0, 1, 0, 0}";
}
);
layerId = "70F97C4B-94FA-40A4-8E29-E667CA674F9A";
name = Regular;
paths = (
{
closed = 1;
nodes = (
"150 16 LINE",
"111 -11 OFFCURVE",
"73 -37 OFFCURVE",
"73 -95 CURVE SMOOTH",
"73 -142 OFFCURVE",
"102 -176 OFFCURVE",
"157 -176 CURVE SMOOTH",
"192 -176 OFFCURVE",
"219 -162 OFFCURVE",
"239 -142 CURVE SMOOTH",
"250 -131 OFFCURVE",
"246 -127 OFFCURVE",
"232 -111 CURVE",
"220 -97 OFFCURVE",
"215 -93 OFFCURVE",
"204 -104 CURVE SMOOTH",
"193 -115 OFFCURVE",
"177 -125 OFFCURVE",
"161 -125 CURVE SMOOTH",
"139 -125 OFFCURVE",
"128 -111 OFFCURVE",
"128 -91 CURVE SMOOTH",
"128 -50 OFFCURVE",
"166 -26 OFFCURVE",
"202 -1 CURVE"
);
}
);
width = 333;
}
);
unicode = 0119;
},
{
glyphname = gcommaaccent;
lastChange = "2015-10-06 12:26:13 +0000";
layers = (
{
background = {
paths = (
{
closed = 1;
nodes = (
"265 513 OFFCURVE",
"264 508 OFFCURVE",
"248 503 CURVE",
"219 495 LINE",
"202 491 OFFCURVE",
"196 492 OFFCURVE",
"190 515 CURVE",
"185 543 OFFCURVE",
"180 586 OFFCURVE",
"242 653 CURVE SMOOTH",
"252 663 OFFCURVE",
"256 662 OFFCURVE",
"272 651 CURVE",
"284 642 OFFCURVE",
"289 639 OFFCURVE",
"278 624 CURVE SMOOTH",
"257 595 OFFCURVE",
"247 576 OFFCURVE",
"260 531 CURVE SMOOTH"
);
}
);
};
components = (
{
name = g;
transform = "{1, 0, 0, 1, 0, 0}";
}
);
layerId = "70F97C4B-94FA-40A4-8E29-E667CA674F9A";
name = Regular;
paths = (
{
closed = 1;
nodes = (
"265 511 OFFCURVE",
"252 504 OFFCURVE",
"233 498 CURVE",
"209 491 OFFCURVE",
"195 492 OFFCURVE",
"190 515 CURVE",
"185 543 OFFCURVE",
"179 583 OFFCURVE",
"239 650 CURVE SMOOTH",
"248 660 OFFCURVE",
"257 662 OFFCURVE",
"271 652 CURVE",
"283 643 OFFCURVE",
"287 636 OFFCURVE",
"278 624 CURVE SMOOTH",
"257 596 OFFCURVE",
"249 576 OFFCURVE",
"260 531 CURVE SMOOTH"
);
}
);
width = 378;
}
);
unicode = 0123;
},
{
glyphname = Hbar;
lastChange = "2015-09-24 12:04:05 +0000";
layers = (
{
background = {
paths = (
{
closed = 1;
nodes = (
"124 306 OFFCURVE",
"122 314 OFFCURVE",
"126 337 CURVE",
"133 360 OFFCURVE",
"139 364 OFFCURVE",
"168 365 CURVE",
"482 370 LINE",
"514 371 OFFCURVE",
"516 363 OFFCURVE",
"511 340 CURVE",
"505 317 OFFCURVE",
"499 313 OFFCURVE",
"470 312 CURVE",
"156 307 LINE"
);
}
);
};
components = (
{
name = I;
transform = "{1, 0, 0, 1, 44, 0}";
},
{
name = I;
transform = "{1, 0, 0, 1, 334, 0}";
}
);
layerId = "70F97C4B-94FA-40A4-8E29-E667CA674F9A";
name = Regular;
paths = (
{
closed = 1;
nodes = (
"124 276 OFFCURVE",
"122 284 OFFCURVE",
"126 307 CURVE",
"133 330 OFFCURVE",
"139 334 OFFCURVE",
"168 335 CURVE",
"422 340 LINE",
"454 341 OFFCURVE",
"456 333 OFFCURVE",
"451 310 CURVE",
"445 287 OFFCURVE",
"439 283 OFFCURVE",
"410 282 CURVE",
"156 277 LINE"
);
},
{
closed = 1;
nodes = (
"14 456 OFFCURVE",
"12 464 OFFCURVE",
"16 487 CURVE",
"23 510 OFFCURVE",
"29 514 OFFCURVE",
"58 515 CURVE",
"552 520 LINE",
"584 521 OFFCURVE",
"586 513 OFFCURVE",
"581 490 CURVE",
"575 467 OFFCURVE",
"569 463 OFFCURVE",
"540 462 CURVE",
"46 457 LINE"
);
}
);
width = 584;
}
);
unicode = 0126;
},
{
glyphname = hbar;
lastChange = "2015-09-23 14:25:30 +0000";
layers = (
{
components = (
{
name = h;
transform = "{1, 0, 0, 1, 3, 0}";
}
);
layerId = "70F97C4B-94FA-40A4-8E29-E667CA674F9A";
name = Regular;
paths = (
{
closed = 1;
nodes = (
"255 555 LINE",
"284 555 OFFCURVE",
"290 559 OFFCURVE",
"297 578 CURVE",
"302 599 OFFCURVE",
"305 607 OFFCURVE",
"273 607 CURVE",
"44 607 LINE",
"15 607 OFFCURVE",
"9 603 OFFCURVE",
"2 582 CURVE",
"-3 563 OFFCURVE",
"-1 555 OFFCURVE",
"31 555 CURVE"
);
}
);
width = 394;
}
);
unicode = 0127;
},
{
glyphname = Iogonek;
lastChange = "2015-09-24 12:04:12 +0000";
layers = (
{
background = {
paths = (
{
closed = 1;
nodes = (
"36 22 LINE",
"-3 -5 OFFCURVE",
"-41 -31 OFFCURVE",
"-41 -89 CURVE SMOOTH",
"-41 -136 OFFCURVE",
"-12 -170 OFFCURVE",
"43 -170 CURVE SMOOTH",
"78 -170 OFFCURVE",
"105 -156 OFFCURVE",
"125 -136 CURVE SMOOTH",
"136 -125 OFFCURVE",
"132 -121 OFFCURVE",
"118 -105 CURVE",
"106 -91 OFFCURVE",
"101 -87 OFFCURVE",
"90 -98 CURVE SMOOTH",
"79 -109 OFFCURVE",
"63 -119 OFFCURVE",
"47 -119 CURVE SMOOTH",
"25 -119 OFFCURVE",
"14 -105 OFFCURVE",
"14 -85 CURVE SMOOTH",
"14 -44 OFFCURVE",
"52 -20 OFFCURVE",
"88 5 CURVE"
);
},
{
closed = 1;
nodes = (
"95 30 LINE",
"93 2 OFFCURVE",
"84 0 OFFCURVE",
"69 -4 CURVE",
"37 -12 OFFCURVE",
"30 -10 OFFCURVE",
"33 13 CURVE",
"103 633 LINE",
"106 661 OFFCURVE",
"112 664 OFFCURVE",
"127 668 CURVE",
"161 675 OFFCURVE",
"166 674 OFFCURVE",
"164 651 CURVE"
);
}
);
};
layerId = "70F97C4B-94FA-40A4-8E29-E667CA674F9A";
name = Regular;
paths = (
{
closed = 1;
nodes = (
"164 651 LINE SMOOTH",
"166 674 OFFCURVE",
"161 675 OFFCURVE",
"127 668 CURVE",
"112 664 OFFCURVE",
"106 661 OFFCURVE",
"103 633 CURVE SMOOTH",
"33.8479 20.51 LINE",
"-4.3859 -5.9679 OFFCURVE",
"-41 -32.0675 OFFCURVE",
"-41 -89 CURVE SMOOTH",
"-41 -136 OFFCURVE",
"-12 -170 OFFCURVE",
"43 -170 CURVE SMOOTH",
"78 -170 OFFCURVE",
"105 -156 OFFCURVE",
"125 -136 CURVE SMOOTH",
"136 -125 OFFCURVE",
"132 -121 OFFCURVE",
"118 -105 CURVE SMOOTH",
"106 -91 OFFCURVE",
"101 -87 OFFCURVE",
"90 -98 CURVE SMOOTH",
"79 -109 OFFCURVE",
"63 -119 OFFCURVE",
"47 -119 CURVE SMOOTH",
"25 -119 OFFCURVE",
"14 -105 OFFCURVE",
"14 -85 CURVE SMOOTH",
"14 -34 OFFCURVE",
"72 -12 OFFCURVE",
"87.4466 4.6158 CURVE SMOOTH",
"92 9 OFFCURVE",
"94.0744 17.0427 OFFCURVE",
"94.9999 29.9999 CURVE"
);
}
);
width = 199;
}
);
unicode = 012E;
},
{
glyphname = iogonek;
lastChange = "2015-09-23 14:25:30 +0000";
layers = (
{
background = {
paths = (
{
closed = 1;
nodes = (
"40 16 LINE",
"1 -11 OFFCURVE",
"-37 -37 OFFCURVE",
"-37 -95 CURVE SMOOTH",
"-37 -142 OFFCURVE",
"-8 -176 OFFCURVE",
"47 -176 CURVE SMOOTH",
"82 -176 OFFCURVE",
"109 -162 OFFCURVE",
"129 -142 CURVE SMOOTH",
"140 -131 OFFCURVE",
"136 -127 OFFCURVE",
"122 -111 CURVE",
"110 -97 OFFCURVE",
"105 -93 OFFCURVE",
"94 -104 CURVE SMOOTH",
"83 -115 OFFCURVE",
"67 -125 OFFCURVE",
"51 -125 CURVE SMOOTH",
"29 -125 OFFCURVE",
"18 -111 OFFCURVE",
"18 -91 CURVE SMOOTH",
"18 -50 OFFCURVE",
"56 -26 OFFCURVE",
"92 -1 CURVE"
);
},
{
closed = 1;
nodes = (
"32 -11 OFFCURVE",
"31 -3 OFFCURVE",
"38 76 CURVE",
"44 172 OFFCURVE",
"58 260 OFFCURVE",
"77 415 CURVE",
"82 442 OFFCURVE",
"86 445 OFFCURVE",
"100 449 CURVE",
"132 457 OFFCURVE",
"139 455 OFFCURVE",
"137 432 CURVE",
"120 328 OFFCURVE",
"111 247 OFFCURVE",
"103 157 CURVE SMOOTH",
"97 89 OFFCURVE",
"95 39 OFFCURVE",
"94 13 CURVE SMOOTH",
"93 -1 OFFCURVE",
"77 -4 OFFCURVE",
"69 -5 CURVE"
);
}
);
};
components = (
{
name = dotaccent;
transform = "{1, 0, 0, 1, 84, 0}";
}
);
layerId = "70F97C4B-94FA-40A4-8E29-E667CA674F9A";
name = Regular;
paths = (
{
closed = 1;
nodes = (
"91 -1 OFFCURVE",
"94 5 OFFCURVE",
"94 21 CURVE SMOOTH",
"94 54 OFFCURVE",
"97 92 OFFCURVE",
"103 157 CURVE SMOOTH",
"111 247 OFFCURVE",
"120 328 OFFCURVE",
"137 432 CURVE",
"139 455 OFFCURVE",
"132 457 OFFCURVE",
"100 449 CURVE SMOOTH",
"86 445 OFFCURVE",
"82 442 OFFCURVE",
"77 415 CURVE",
"54 239 OFFCURVE",
"32 62 OFFCURVE",
"35 13 CURVE",
"-2 -14 OFFCURVE",
"-37 -37 OFFCURVE",
"-37 -95 CURVE SMOOTH",
"-37 -142 OFFCURVE",
"-8 -176 OFFCURVE",
"47 -176 CURVE SMOOTH",
"82 -176 OFFCURVE",
"109 -162 OFFCURVE",
"129 -142 CURVE SMOOTH",
"140 -131 OFFCURVE",
"136 -127 OFFCURVE",
"122 -111 CURVE SMOOTH",
"110 -97 OFFCURVE",
"105 -93 OFFCURVE",
"94 -104 CURVE SMOOTH",
"83 -115 OFFCURVE",
"67 -125 OFFCURVE",
"51 -125 CURVE SMOOTH",
"29 -125 OFFCURVE",
"18 -111 OFFCURVE",
"18 -91 CURVE SMOOTH",
"18 -56 OFFCURVE",
"46 -33 OFFCURVE",
"77 -11 CURVE SMOOTH"
);
}
);
width = 162;
}
);
unicode = 012F;
},
{
glyphname = dotlessi;
lastChange = "2015-10-06 06:43:35 +0000";
layers = (
{
anchors = (
{
name = bottom;
position = "{58, 0}";
},
{
name = top;
position = "{110, 447}";
}
);
background = {
paths = (
{
closed = 1;
nodes = (
"32 -11 OFFCURVE",
"31 -3 OFFCURVE",
"38 76 CURVE",
"44 172 OFFCURVE",
"58 260 OFFCURVE",
"77 415 CURVE",
"82 442 OFFCURVE",
"86 445 OFFCURVE",
"100 449 CURVE",
"132 457 OFFCURVE",
"139 455 OFFCURVE",
"137 432 CURVE",
"120 328 OFFCURVE",
"111 247 OFFCURVE",
"103 157 CURVE SMOOTH",
"97 89 OFFCURVE",
"95 39 OFFCURVE",
"94 13 CURVE SMOOTH",
"93 -1 OFFCURVE",
"77 -4 OFFCURVE",
"69 -5 CURVE"
);
}
);
};
layerId = "70F97C4B-94FA-40A4-8E29-E667CA674F9A";
name = Regular;
paths = (
{
closed = 1;
nodes = (
"38 -10 OFFCURVE",
"34 -5 OFFCURVE",
"34 21 CURVE SMOOTH",
"34 67 OFFCURVE",
"53 233 OFFCURVE",
"77 415 CURVE",
"80 442 OFFCURVE",
"86 445 OFFCURVE",
"100 449 CURVE",
"132 457 OFFCURVE",
"140 455 OFFCURVE",
"137 432 CURVE",
"121 328 OFFCURVE",
"111 247 OFFCURVE",
"103 157 CURVE SMOOTH",
"97 89 OFFCURVE",
"95 39 OFFCURVE",
"94 19 CURVE SMOOTH",
"93 -1 OFFCURVE",
"86 -1 OFFCURVE",
"69 -5 CURVE"
);
}
);
width = 162;
}
);
unicode = 0131;
},
